<?xml version="1.0" standalone="no"?>
<!DOCTYPE svg PUBLIC "-//W3C//DTD SVG 1.1//EN" "http://www.w3.org/Graphics/SVG/1.1/DTD/svg11.dtd" >
<svg xmlns="http://www.w3.org/2000/svg" xmlns:xlink="http://www.w3.org/1999/xlink" version="1.1">
<metadata>
Created by FontForge 20201107 at Mon Feb 14 15:31:17 2022
 By 
Copyright 2021 The Anek Project Authors (https://github.com/EkType/Anek)
</metadata>
<defs>
<font id="AnekDevanagariExpanded-Bold" horiz-adv-x="676" >
  <font-face 
    font-family="Anek Devanagari Expanded"
    font-weight="700"
    font-stretch="expanded"
    units-per-em="2000"
    panose-1="0 0 0 0 0 0 0 0 0 0"
    ascent="1600"
    descent="-400"
    x-height="960"
    cap-height="1278"
    bbox="-1444 -1265 6048 2033"
    underline-thickness="50"
    underline-position="-125"
    unicode-range="U+000D-FB02"
  />
<missing-glyph horiz-adv-x="1160" 
d="M975 0h-790v1278h790v-1278zM224 1243v-1208h712v1208h-712zM250 0h-40l695 1266h40zM255 1266l695 -1266h-40l-695 1266h40z" />
    <glyph glyph-name="fi" unicode="fi" horiz-adv-x="1582" 
d="M582 1349q99 0 190.5 -14t163.5 -36l34 -249q-62 17 -129 27t-145 10q-93 0 -140 -15.5t-62.5 -43.5t-15.5 -63v-3q0 -24 7.5 -43t19.5 -34l-219 -13v32q-59 19 -101 63.5t-42 124.5v4q0 121 104 187t335 66zM524 0h-340v798h340v-798zM932 635h-922v262l322 -4l122 4
h512zM1451 0h-342v961h342v-961zM1281 1072q-97 0 -141.5 41t-44.5 111v5q0 70 44.5 111t140.5 41t141 -41t45 -111v-4q0 -72 -45 -112.5t-140 -40.5z" />
    <glyph glyph-name="fl" unicode="fl" horiz-adv-x="1583" 
d="M582 1349q99 0 190.5 -14t163.5 -36l34 -249q-62 17 -129 27t-145 10q-93 0 -140 -15.5t-62.5 -43t-15.5 -63.5v-3q0 -24 7.5 -43t19.5 -34l-219 -13v32q-59 19 -101 63.5t-42 124.5v4q0 121 104 187t335 66zM524 0h-340v798h340v-798zM932 635h-922v262l322 -4l122 4
h512zM1452 0h-343v1316h343v-1316z" />
    <glyph glyph-name="f_f" unicode="ff" horiz-adv-x="1801" 
d="M582 1349q99 0 190.5 -14t163.5 -36l34 -249q-62 17 -129 27t-145 10q-93 0 -140 -15.5t-62.5 -43t-15.5 -63.5v-3q0 -24 7.5 -43t19.5 -34l-219 -13v32q-59 19 -101 63.5t-42 124.5v4q0 121 104 187t335 66zM524 0h-340v798h340v-798zM932 635h-922v262l322 -4l122 4
h512zM1404 1349q100 0 191.5 -14t163.5 -36l34 -249q-62 17 -129 27t-145 10q-93 0 -140 -15.5t-63 -43t-16 -63.5v-3q0 -24 8 -43t19 -34l-218 -13v32q-59 19 -101 63.5t-42 124.5v4q0 121 104 187t334 66zM1347 0h-340v798h340v-798zM1755 635h-922v262l322 -4l122 4h512z
" />
    <glyph glyph-name="f_f_i" unicode="ffi" horiz-adv-x="2405" 
d="M582 1349q99 0 190.5 -14t163.5 -36l34 -249q-62 17 -129 27t-145 10q-93 0 -140 -15.5t-62.5 -43.5t-15.5 -63v-3q0 -24 7.5 -43t19.5 -34l-219 -13v32q-59 19 -101 63.5t-42 124.5v4q0 121 104 187t335 66zM524 0h-340v798h340v-798zM932 635h-922v262l322 -4l122 4
h512zM1404 1349q100 0 191.5 -14t163.5 -36l34 -249q-62 17 -129 27t-145 10q-93 0 -140 -15.5t-63 -43.5t-16 -63v-3q0 -24 8 -43t19 -34l-218 -13v32q-59 19 -101 63.5t-42 124.5v4q0 121 104 187t334 66zM1347 0h-340v798h340v-798zM1755 635h-922v262l322 -4l122 4h512z
M2274 0h-342v961h342v-961zM2103 1072q-96 0 -140.5 41t-44.5 111v5q0 70 44.5 111t140.5 41q95 0 140.5 -41t45.5 -111v-4q0 -72 -45 -112.5t-141 -40.5z" />
    <glyph glyph-name="f_f_l" unicode="ffl" horiz-adv-x="2406" 
d="M582 1349q99 0 190.5 -14t163.5 -36l34 -249q-62 17 -129 27t-145 10q-93 0 -140 -15.5t-62.5 -43.5t-15.5 -63v-3q0 -24 7.5 -43t19.5 -34l-219 -13v32q-59 19 -101 63.5t-42 124.5v4q0 121 104 187t335 66zM524 0h-340v798h340v-798zM932 635h-922v262l322 -4l122 4
h512zM1404 1349q100 0 191.5 -14t163.5 -36l34 -249q-62 17 -129 27t-145 10q-93 0 -140 -15.5t-63 -43.5t-16 -63v-3q0 -24 8 -43t19 -34l-218 -13v32q-59 19 -101 63.5t-42 124.5v4q0 121 104 187t334 66zM1347 0h-340v798h340v-798zM1755 635h-922v262l322 -4l122 4h512z
M2275 0h-343v1316h343v-1316z" />
    <glyph glyph-name=".notdef" horiz-adv-x="1160" 
d="M975 0h-790v1278h790v-1278zM224 1243v-1208h712v1208h-712zM250 0h-40l695 1266h40zM255 1266l695 -1266h-40l-695 1266h40z" />
    <glyph glyph-name=".null" horiz-adv-x="0" 
 />
    <glyph glyph-name="uni000D" unicode="&#xd;" horiz-adv-x="3246" 
 />
    <glyph glyph-name="NULL" horiz-adv-x="143" 
 />
    <glyph glyph-name="NULL" horiz-adv-x="143" 
 />
    <glyph glyph-name="space" unicode=" " horiz-adv-x="499" 
 />
    <glyph glyph-name="exclam" unicode="!" horiz-adv-x="614" 
d="M493 1278l-36 -854h-299l-37 854h372zM307 -30q-97 0 -143 44t-46 122v4q0 78 46 122.5t143 44.5q98 0 144 -44.5t46 -122.5v-4q0 -78 -46 -122t-144 -44z" />
    <glyph glyph-name="quotedbl" unicode="&#x22;" horiz-adv-x="983" 
d="M419 1316l-38 -548h-263l-35 548h336zM899 1316l-38 -548h-263l-34 548h335z" />
    <glyph glyph-name="numbersign" unicode="#" horiz-adv-x="1472" 
d="M486 0h-268l210 1278h268zM1337 259h-1277v231h1277v-231zM1059 0h-269l200 1278h270zM1413 781h-1277v232h1277v-232z" />
    <glyph glyph-name="dollar" unicode="$" horiz-adv-x="1465" 
d="M867 1519v-384h-291v384h291zM867 129v-369h-291v369h291zM720 -34q-123 0 -232.5 16.5t-200 42t-158.5 50.5l-37 317q116 -51 281 -94.5t345 -43.5q167 0 235 28t68 94v3q0 45 -30.5 70.5t-106.5 41t-211 28.5q-204 21 -335 62.5t-193.5 122t-62.5 216.5v6
q0 193 152.5 289.5t456.5 96.5q196 0 337 -31t242 -72l39 -290q-121 52 -270.5 83.5t-313.5 31.5q-115 0 -177 -13.5t-85 -38t-23 -59.5v-1q0 -37 25 -62t98.5 -42.5t217.5 -31.5q200 -20 333.5 -57.5t200 -116t66.5 -219.5v-9q0 -216 -162 -317t-499 -101z" />
    <glyph glyph-name="percent" unicode="%" horiz-adv-x="1960" 
d="M623 0h-321l1040 1278h316zM1505 -42q-180 0 -277.5 90t-97.5 255v8q0 161 97.5 252t277.5 91q179 0 278.5 -89.5t99.5 -253.5v-8q0 -165 -98.5 -255t-279.5 -90zM1505 159q68 0 102.5 37t34.5 107v6q0 69 -35 107.5t-102 38.5q-66 0 -101.5 -38.5t-35.5 -107.5v-6
q0 -70 35.5 -107t101.5 -37zM452 625q-179 0 -277 90t-98 254v9q0 163 98 253t277 90q181 0 280 -90t99 -253v-9q0 -161 -99 -252.5t-280 -91.5zM452 825q68 0 102.5 37.5t34.5 106.5v8q0 69 -34.5 106.5t-102.5 37.5q-66 0 -101.5 -37.5t-35.5 -106.5v-8q0 -69 36 -106.5
t101 -37.5z" />
    <glyph glyph-name="ampersand" unicode="&#x26;" horiz-adv-x="1692" 
d="M1716 0h-386q-18 14 -52 41.5t-72 59t-69.5 57.5t-44.5 38l-74 59l-562 404l-70 73q-73 55 -108 114.5t-35 136.5v8q0 152 121 236.5t366 84.5q159 0 274 -23.5t199 -54.5l42 -269q-100 36 -220.5 59t-233.5 23q-103 0 -140 -25t-37 -67v-2q0 -34 25.5 -63t74.5 -64
l496 -366l134 -110q23 -20 61.5 -52.5t84 -71t90.5 -76.5t81 -69t55 -49v-32zM677 -36q-298 0 -444.5 116.5t-146.5 306.5v9q0 144 72 245.5t231 167.5l197 -187q-76 -28 -117.5 -73t-41.5 -118v-7q0 -88 73 -141.5t216 -53.5q98 0 179 26.5t144 74.5l73 71q64 80 103 174
t60 206h343q-37 -174 -106 -306t-174 -241l-85 -74q-74 -62 -157.5 -106t-186 -67t-232.5 -23z" />
    <glyph glyph-name="quotesingle" unicode="'" horiz-adv-x="503" 
d="M419 1316l-38 -548h-263l-35 548h336z" />
    <glyph glyph-name="parenleft" unicode="(" horiz-adv-x="814" 
d="M464 556v-18q0 -143 35 -280t106 -266.5t181 -251.5h-350q-106 117 -172.5 240.5t-97.5 261t-31 296.5v18q0 157 33 294.5t101 261t172 237.5h345q-109 -120 -180.5 -248t-106.5 -264t-35 -281z" />
    <glyph glyph-name="parenright" unicode=")" horiz-adv-x="814" 
d="M350 538v18q0 145 -35 281t-106 264t-181 248h344q105 -114 173 -237.5t101 -261t33 -294.5v-18q0 -159 -31 -296.5t-97.5 -261t-172.5 -240.5h-350q110 122 181.5 251.5t106 266.5t34.5 280z" />
    <glyph glyph-name="asterisk" unicode="*" horiz-adv-x="942" 
d="M469 745l-153 -225l-212 152l198 179l-1 4l-259 39l66 243l256 -112l4 2l-34 251h274l-34 -251l4 -2l256 112l66 -243l-259 -39l-2 -4l199 -179l-210 -152l-155 225h-4z" />
    <glyph glyph-name="plus" unicode="+" horiz-adv-x="1327" 
d="M806 1128v-1054h-285v1054h285zM1204 470h-1081v262h1081v-262z" />
    <glyph glyph-name="comma" unicode="," horiz-adv-x="551" 
d="M117 327h317q4 -24 7 -55.5t3 -63.5q0 -137 -41 -253t-137 -222l-242 51q51 92 75 192t24 220q0 35 -1.5 66t-4.5 65z" />
    <glyph glyph-name="hyphen" unicode="-" horiz-adv-x="938" 
d="M830 389h-722v262h722v-262z" />
    <glyph glyph-name="period" unicode="." horiz-adv-x="582" 
d="M291 -31q-99 0 -146 46t-47 125v4q0 80 47 126.5t146 46.5t146.5 -46.5t47.5 -125.5v-5q0 -79 -47.5 -125t-146.5 -46z" />
    <glyph glyph-name="slash" unicode="/" horiz-adv-x="1243" 
d="M299 -258h-327l974 1602h326z" />
    <glyph glyph-name="zero" unicode="0" horiz-adv-x="1576" 
d="M788 -41q-337 0 -512.5 172.5t-175.5 499.5v15q0 326 175 499t513 173t512.5 -173t174.5 -499v-15q0 -327 -174.5 -499.5t-512.5 -172.5zM788 244q169 0 248.5 100.5t79.5 285.5v16q0 186 -79.5 286t-248.5 100t-248.5 -100.5t-79.5 -285.5v-16q0 -185 80.5 -285.5
t247.5 -100.5z" />
    <glyph glyph-name="one" unicode="1" horiz-adv-x="903" 
d="M754 0h-348v962h-15l-342 -125l10 302l375 139h320v-1278z" />
    <glyph glyph-name="two" unicode="2" horiz-adv-x="1312" 
d="M1232 0h-1159v300l428 220q121 62 198 111t115 97.5t38 108.5v7q0 51 -25.5 90.5t-87 62t-169.5 22.5q-139 0 -266 -36.5t-222 -80.5l39 299q59 29 137 53.5t174 40t208 15.5q279 0 425.5 -109t146.5 -311v-13q0 -100 -38 -180t-120 -149t-217 -137l-230 -119v-70
l-151 58h776v-280z" />
    <glyph glyph-name="three" unicode="3" horiz-adv-x="1369" 
d="M627 -32q-113 0 -210.5 12.5t-176 31t-132.5 36.5l-31 291q102 -36 235 -63t288 -27q127 0 197.5 16.5t98.5 47.5t28 75v7q0 42 -22 68.5t-74 39.5t-140 15l-400 8v255l398 9q88 2 138.5 15.5t72 39.5t21.5 65v5q0 62 -64.5 91t-238.5 29q-150 0 -291 -30t-238 -62
l31 276q97 38 231 65t312 27q309 0 463 -88t154 -261v-11q0 -82 -30.5 -140t-97 -90.5t-175.5 -39.5v-45l-22 33q184 -17 260.5 -94t76.5 -210v-14q0 -181 -164 -282t-498 -101z" />
    <glyph glyph-name="four" unicode="4" horiz-adv-x="1478" 
d="M1246 0h-329v778l4 259h-33l-466 -518v-160l-120 139h1134v-270h-1370v321l658 729h522v-1278z" />
    <glyph glyph-name="five" unicode="5" horiz-adv-x="1446" 
d="M698 -33q-179 0 -321.5 31.5t-217.5 62.5l-35 299q63 -26 150.5 -51t190.5 -42t213 -17q134 0 206.5 23.5t100.5 63t28 87.5v7q0 74 -57 116t-186 42q-119 0 -204.5 -32.5t-140.5 -83.5l-293 60v745h1175v-274h-851l1 -203l-2 -165h9q46 90 152 149t289 59
q231 0 344.5 -107t113.5 -301v-16q0 -128 -62 -231t-207.5 -162.5t-395.5 -59.5z" />
    <glyph glyph-name="six" unicode="6" horiz-adv-x="1512" 
d="M796 -41q-222 0 -379 75t-240.5 218t-83.5 346v16q0 330 190.5 512.5t547.5 182.5q155 0 277.5 -24.5t213.5 -61.5l39 -285q-64 27 -134 48.5t-150 33t-175 11.5q-234 0 -346 -101t-112 -315v-15q0 -122 40 -202t121 -119t200 -39q139 0 205.5 46t66.5 122v8
q0 44 -22 80.5t-79.5 59t-164.5 22.5q-82 0 -152 -19.5t-123 -53t-87 -76.5l-46 145h51q27 74 86.5 130t157 87t234.5 31q238 0 365.5 -104.5t127.5 -295.5v-18q0 -214 -161.5 -329.5t-467.5 -115.5z" />
    <glyph glyph-name="seven" unicode="7" horiz-adv-x="1304" 
d="M632 0h-393l614 999h-788v279h1168v-282z" />
    <glyph glyph-name="eight" unicode="8" horiz-adv-x="1535" 
d="M765 -47q-195 0 -326.5 28t-209.5 78.5t-111.5 120.5t-33.5 152v15q0 92 40 158.5t116 108.5t185 56v13q-100 9 -172 42.5t-111 91.5t-39 140v15q0 159 159.5 251t502.5 92q348 0 508 -92t160 -251v-15q0 -81 -39 -139t-111 -92t-172 -43v-13q110 -15 186.5 -57
t115.5 -108.5t39 -157.5v-15q0 -75 -30 -143.5t-105.5 -121.5t-209.5 -83.5t-342 -30.5zM773 222q181 0 252 40.5t71 105.5v7q0 65 -78 103t-268 56q-174 -17 -242.5 -57.5t-68.5 -101.5v-7q0 -68 74.5 -107t259.5 -39zM783 773q156 12 229.5 51t73.5 96v7q0 63 -74.5 97.5
t-246.5 34.5q-167 0 -241 -34t-74 -95v-7q0 -38 30.5 -68.5t103 -51.5t199.5 -30z" />
    <glyph glyph-name="nine" unicode="9" horiz-adv-x="1511" 
d="M729 1309q345 0 518 -173t173 -497v-17q0 -314 -201 -488t-579 -174q-140 0 -252.5 21t-191.5 51l-38 296q86 -38 192.5 -63t228.5 -25q260 0 376.5 94t116.5 300v13q0 204 -84.5 292.5t-265.5 88.5q-142 0 -212.5 -45t-70.5 -122v-7q0 -80 66.5 -122.5t207.5 -42.5
q74 0 141.5 17.5t122.5 50t91 77.5l63 -145h-69q-26 -74 -87 -129t-158 -85t-234 -30q-233 0 -364 105t-131 291v19q0 215 165.5 332t475.5 117z" />
    <glyph glyph-name="colon" unicode=":" horiz-adv-x="592" 
d="M295 -31q-99 0 -146 46t-47 125v4q0 80 47 126.5t147 46.5q99 0 146 -46.5t47 -125.5v-5q0 -79 -47 -125t-147 -46zM295 591q-99 0 -146 45.5t-47 124.5v5q0 80 47 126.5t147 46.5q99 0 146 -46.5t47 -126.5v-5q0 -79 -47 -124.5t-147 -45.5z" />
    <glyph glyph-name="semicolon" unicode=";" horiz-adv-x="594" 
d="M139 327h317q4 -24 7 -55.5t3 -63.5q0 -137 -41 -253t-137 -222l-242 51q51 92 75 192t24 220q0 35 -1.5 66t-4.5 65zM298 591q-99 0 -146 45.5t-47 124.5v5q0 80 47 126.5t146 46.5q100 0 147 -46.5t47 -126.5v-5q0 -79 -47 -124.5t-147 -45.5z" />
    <glyph glyph-name="less" unicode="&#x3c;" horiz-adv-x="1334" 
d="M1204 760l-856 -153v-22l856 -158v-291l-1081 240v437l1081 236v-289z" />
    <glyph glyph-name="equal" unicode="=" horiz-adv-x="1346" 
d="M1212 238h-1078v263h1078v-263zM1212 703h-1078v263h1078v-263z" />
    <glyph glyph-name="greater" unicode="&#x3e;" horiz-adv-x="1334" 
d="M986 585v22l-856 153v289l1081 -236v-437l-1081 -240v291z" />
    <glyph glyph-name="question" unicode="?" horiz-adv-x="1274" 
d="M518 432l-165 -7v267l146 8q127 8 201.5 29.5t107 58t32.5 88.5v7q0 72 -58.5 109t-222.5 37q-129 0 -261 -28.5t-256 -72.5l40 284q52 22 130 44.5t176.5 38t210.5 15.5q295 0 446 -103.5t151 -311.5v-14q0 -155 -80 -251t-231.5 -143t-366.5 -55zM510 -32
q-100 0 -147 44.5t-47 120.5v5q0 78 47 122.5t147 44.5q99 0 146 -44.5t47 -122.5v-5q0 -76 -47 -120.5t-146 -44.5z" />
    <glyph glyph-name="at" unicode="@" horiz-adv-x="2080" 
d="M887 61q-137 0 -220.5 85t-83.5 250v3v2.5v3v2.5q0 138 42 248.5t126.5 175t212.5 64.5q130 0 186.5 -58t71.5 -157h90l-98 -200q1 7 1 13v12q1 47 -14.5 80t-49 51.5t-87.5 18.5q-85 0 -125.5 -57.5t-41.5 -143.5v-2.5v-3v-2.5v-3q0 -66 35 -99t96 -33q41 0 77.5 14.5
t65 42.5t44.5 68l65 -158h-89q-20 -62 -56 -111t-96 -77.5t-152 -28.5zM1479 143l-298 -71l24 249l-4 47l25 239l3 39l18 210l1 14h295zM1181 72l230 229q16 -3 32.5 -4t46.5 -1q110 0 178 82t68 248v8v8v7q0 159 -69.5 267.5t-210.5 164t-355 55.5q-236 0 -402.5 -86.5
t-254 -249.5t-88.5 -392v-3v-3.5v-3v-2.5v-3q0 -285 177 -419t499 -134q163 0 294 17t245.5 50.5t225.5 78.5l-59 -241q-105 -37 -212.5 -64.5t-232 -42.5t-282.5 -15q-294 0 -501.5 84t-316 253.5t-108.5 425.5v4v4.5v4v4v4.5q0 301 126.5 512t358 322t546.5 111
q286 0 484.5 -83t302.5 -240t104 -379v-7v-8.5v-8.5q0 -198 -77.5 -321.5t-229.5 -180.5t-376 -57q-35 0 -68 0.5t-75 4.5z" />
    <glyph glyph-name="A" unicode="A" horiz-adv-x="1662" 
d="M385 0h-362l556 1278h511l550 -1278h-363l-428 1062h-30zM1228 298h-795v268h795v-268z" />
    <glyph glyph-name="B" unicode="B" horiz-adv-x="1611" 
d="M1025 0h-622v266h588q89 0 131 33.5t42 96.5v9q0 64 -42 97t-132 33h-587v238h568q87 0 125.5 31.5t38.5 87.5v9q0 58 -38.5 89.5t-125.5 31.5h-568v256h593q265 0 378 -76t113 -229v-11q0 -111 -70.5 -174t-211.5 -67v-12q153 -14 237 -96t84 -230v-14
q0 -178 -121 -273.5t-380 -95.5zM488 0h-339v1278h339v-1278z" />
    <glyph glyph-name="C" unicode="C" horiz-adv-x="1470" 
d="M859 -41q-382 0 -575 178t-193 497v17q0 313 190.5 490.5t567.5 177.5q104 0 192.5 -14.5t162 -38.5t133.5 -55l29 -292q-94 45 -208.5 78t-261.5 33q-221 0 -328.5 -100.5t-107.5 -276.5v-17q0 -178 109 -280.5t348 -102.5q138 0 252.5 33t209.5 76l-30 -296
q-58 -29 -132 -54t-163.5 -39t-194.5 -14z" />
    <glyph glyph-name="D" unicode="D" horiz-adv-x="1648" 
d="M842 0h-433v283h425q181 0 273 93t92 256v17q0 163 -92 254.5t-273 91.5h-427v283h435q354 0 536.5 -162.5t182.5 -464.5v-19q0 -304 -182.5 -468t-536.5 -164zM498 0h-349v1278h349v-1278z" />
    <glyph glyph-name="E" unicode="E" horiz-adv-x="1481" 
d="M492 0h-343v1278h343v-1278zM1372 0h-1219v271h1219v-271zM1334 518h-1006v258h1006v-258zM1356 1007h-1203v271h1203v-271z" />
    <glyph glyph-name="F" unicode="F" horiz-adv-x="1418" 
d="M493 0h-344v1278h344v-1278zM1304 425h-976v279h976v-279zM1325 999h-1172v279h1172v-279z" />
    <glyph glyph-name="G" unicode="G" horiz-adv-x="1686" 
d="M760 -41q-204 0 -354.5 78.5t-232.5 227.5t-82 361v17q0 318 204 497t604 179q121 0 225 -14.5t191 -39.5t157 -56l32 -284q-115 44 -249 76t-308 32q-252 0 -372 -99t-120 -287v-17q0 -179 105.5 -282.5t319.5 -103.5q94 0 163 20.5t116.5 54t75.5 72.5v185l39 -80
l-406 -4v252h679v-508h-317q-20 -81 -72 -143.5t-147.5 -98t-250.5 -35.5zM1232 0l11 302h304v-302h-315z" />
    <glyph glyph-name="H" unicode="H" horiz-adv-x="1709" 
d="M500 1278v-1278h-351v1278h351zM1559 1278v-1278h-350v1278h350zM329 514v283h1031v-283h-1031z" />
    <glyph glyph-name="I" unicode="I" horiz-adv-x="651" 
d="M501 1278v-1278h-351v1278h351z" />
    <glyph glyph-name="J" unicode="J" horiz-adv-x="1098" 
d="M409 -21q-83 0 -168 13.5t-155 37.5l-31 295q69 -22 140.5 -36t146.5 -14q153 0 210 64.5t57 204.5v734h350v-765q0 -268 -129.5 -401t-420.5 -133z" />
    <glyph glyph-name="K" unicode="K" horiz-adv-x="1562" 
d="M1554 0h-443l-548 557h-90v193h91l546 528h428l-677 -653v74zM500 0h-351v1278h351v-1278z" />
    <glyph glyph-name="L" unicode="L" horiz-adv-x="1354" 
d="M500 1278v-1278h-351v1278h351zM328 0v280h957v-280h-957z" />
    <glyph glyph-name="M" unicode="M" horiz-adv-x="2006" 
d="M469 0h-344l74 1278h492l301 -787h20l304 787h491l74 -1278h-343l-23 494l-19 427h-22l-301 -766h-339l-303 766h-23l-18 -427z" />
    <glyph glyph-name="N" unicode="N" horiz-adv-x="1709" 
d="M149 1278h488l570 -919h17l-10 462v457h345v-1278h-466l-590 949h-18l10 -475v-474h-346v1278z" />
    <glyph glyph-name="O" unicode="O" horiz-adv-x="1722" 
d="M861 -41q-377 0 -573.5 176t-196.5 497v15q0 320 196.5 496t573.5 176t573.5 -176t196.5 -496v-15q0 -321 -196.5 -497t-573.5 -176zM861 243q199 0 302 103t103 285v17q0 181 -103 284t-302 103q-201 0 -303.5 -103t-102.5 -284v-17q0 -182 102.5 -285t303.5 -103z" />
    <glyph glyph-name="P" unicode="P" horiz-adv-x="1536" 
d="M897 366h-494v270h480q119 0 174.5 45t55.5 134v14q0 89 -55.5 134.5t-174.5 45.5h-482v269h496q292 0 430.5 -117.5t138.5 -331.5v-15q0 -210 -138.5 -329t-430.5 -119zM492 0h-343v1278h342v-720l1 -146v-412z" />
    <glyph glyph-name="Q" unicode="Q" horiz-adv-x="1722" 
d="M1700 228v-300l-748 28q-448 17 -654.5 188t-206.5 490v14q0 321 197 496t573 175q250 0 421 -79.5t259 -224.5t88 -340v-11q0 -113 -33 -192t-89.5 -129.5t-130 -78t-153.5 -36.5v-13zM899 244l60 -1q61 16 116 47t98 78.5t67.5 112t24.5 148.5v19q0 180 -103 283.5
t-302 103.5q-200 0 -302.5 -103.5t-102.5 -283.5v-15q0 -182 118.5 -282.5t325.5 -106.5z" />
    <glyph glyph-name="R" unicode="R" horiz-adv-x="1581" 
d="M1512 0h-370l-32 178q-14 83 -40 132.5t-77 71.5t-140 22l-462 2v254l511 2q117 0 168.5 45.5t51.5 125.5v10q0 79 -51 122.5t-168 43.5h-512v269h550q277 0 405 -93t128 -270v-10q0 -137 -79 -210.5t-237 -85.5v-52l-68 48q130 -8 203 -49t111 -118t61 -195zM492 0h-343
v1278h342v-722l1 -121v-435z" />
    <glyph glyph-name="S" unicode="S" horiz-adv-x="1465" 
d="M720 -34q-123 0 -232.5 16.5t-200 42t-158.5 50.5l-37 317q116 -51 281 -94.5t345 -43.5q167 0 235 28t68 94v3q0 45 -30.5 70.5t-106.5 41t-211 28.5q-204 21 -335 62.5t-193.5 122t-62.5 216.5v6q0 193 152.5 289.5t456.5 96.5q196 0 337 -31t242 -72l39 -290
q-121 52 -270.5 83.5t-313.5 31.5q-115 0 -177 -13.5t-85 -38t-23 -59.5v-1q0 -37 25 -62t98.5 -42.5t217.5 -31.5q200 -20 333.5 -57.5t200 -116t66.5 -219.5v-9q0 -216 -162 -317t-499 -101z" />
    <glyph glyph-name="T" unicode="T" horiz-adv-x="1509" 
d="M930 0h-351v1158h351v-1158zM1439 1002h-1369v276h1369v-276z" />
    <glyph glyph-name="U" unicode="U" horiz-adv-x="1683" 
d="M841 -41q-355 0 -529.5 162.5t-174.5 481.5v675h351v-674q0 -173 87 -264.5t266 -91.5q180 0 267 91.5t87 264.5v674h350v-675q0 -319 -173.5 -481.5t-530.5 -162.5z" />
    <glyph glyph-name="V" unicode="V" horiz-adv-x="1599" 
d="M1054 0h-509l-522 1278h371l392 -1010h27l392 1010h372z" />
    <glyph glyph-name="W" unicode="W" horiz-adv-x="2199" 
d="M870 0h-492l-333 1278h361l197 -877l24 -108h21l25 108l203 841h447l203 -841l25 -108h21l23 107l199 878h361l-334 -1278h-492l-168 734l-52 222h-20l-52 -222z" />
    <glyph glyph-name="X" unicode="X" horiz-adv-x="1601" 
d="M439 0h-414l530 691l-1 -59l-512 646h402l346 -441h20l346 441h402l-512 -646v59l530 -691h-414l-352 465h-20z" />
    <glyph glyph-name="Y" unicode="Y" horiz-adv-x="1550" 
d="M920 336h-289l-619 942h380l253 -400l121 -192h17l120 190l255 402h380zM950 0h-350v633h350v-633z" />
    <glyph glyph-name="Z" unicode="Z" horiz-adv-x="1441" 
d="M530 276h832v-276h-1283v267l816 735h-804v276h1258v-267z" />
    <glyph glyph-name="bracketleft" unicode="[" horiz-adv-x="774" 
d="M705 -260h-556v1609h556v-237h-245v-1135h245v-237z" />
    <glyph glyph-name="backslash" unicode="\" horiz-adv-x="1243" 
d="M297 1344l975 -1602h-327l-973 1602h325z" />
    <glyph glyph-name="bracketright" unicode="]" horiz-adv-x="774" 
d="M624 1349v-1609h-556v237h246v1135h-246v237h556z" />
    <glyph glyph-name="asciicircum" unicode="^" horiz-adv-x="1171" 
d="M35 598l331 680h439l331 -680h-303l-237 501h-19l-239 -501h-303z" />
    <glyph glyph-name="underscore" unicode="_" horiz-adv-x="1156" 
d="M1108 -311h-1059v261h1059v-261z" />
    <glyph glyph-name="grave" unicode="`" horiz-adv-x="802" 
d="M107 1386h374l235 -301v-6h-302l-307 300v7z" />
    <glyph glyph-name="a" unicode="a" horiz-adv-x="1337" 
d="M1226 0h-341l13 269l-4 45v217l-2 48q0 83 -68 125.5t-218 42.5q-136 0 -254 -29.5t-225 -68.5l34 249q62 27 139 49t167.5 36t195.5 14q169 0 278.5 -37t171.5 -101t87.5 -147t25.5 -175v-537zM457 -31q-189 0 -289.5 76t-100.5 211v10q0 164 122.5 232.5t356.5 86.5
l370 27l7 -181l-353 -31q-93 -8 -131 -29.5t-38 -66.5v-4q0 -41 38 -64.5t124 -23.5q92 0 159.5 23t111.5 60.5t65 81.5l58 -138h-72q-19 -75 -67 -136t-135.5 -97.5t-225.5 -36.5z" />
    <glyph glyph-name="b" unicode="b" horiz-adv-x="1479" 
d="M898 -31q-125 0 -211.5 34t-139 96.5t-73.5 149.5h-86l79 232q4 -74 40 -126t103 -79t161 -27q130 0 205 57.5t75 168.5v19q0 111 -71 170t-204 59q-79 0 -142.5 -24t-108 -65.5t-67.5 -92.5l-40 172h59q20 80 69.5 143.5t137.5 100.5t221 37q229 0 361 -127.5
t132 -375.5v-19q0 -247 -134.5 -375t-365.5 -128zM473 0h-342v1316h340v-356l-6 -336l2 -28v-275l-6 -39z" />
    <glyph glyph-name="c" unicode="c" horiz-adv-x="1217" 
d="M698 -37q-312 0 -466 135.5t-154 382.5v15q0 239 153.5 372.5t462.5 133.5q85 0 160 -11.5t138 -31.5t109 -44l33 -274q-75 37 -170 63t-213 26q-169 0 -247.5 -60.5t-78.5 -173.5v-14q0 -116 83.5 -179t253.5 -63q115 0 206 24t176 62l-30 -273q-74 -38 -181 -64
t-235 -26z" />
    <glyph glyph-name="d" unicode="d" horiz-adv-x="1479" 
d="M574 -31q-229 0 -361 127t-132 375v19q0 249 134 376.5t366 127.5q126 0 211.5 -33.5t137.5 -96.5t72 -151h103l-92 -225q-4 75 -40 127.5t-103 80t-164 27.5q-130 0 -204 -58t-74 -170v-20q0 -111 71.5 -168.5t202.5 -57.5q78 0 142 23t109.5 64t67.5 92l96 -179h-112
q-17 -78 -68.5 -141.5t-141 -101t-221.5 -37.5zM1349 0h-343l12 285l-5 63v287v48l-4 277v356h340v-1316z" />
    <glyph glyph-name="e" unicode="e" horiz-adv-x="1350" 
d="M729 -37q-329 0 -490 132t-161 376v20q0 243 155.5 377t443.5 134q198 0 330 -58t199 -164t67 -249v-12q0 -33 -3.5 -69t-8.5 -61h-315q6 37 9 81t3 74q0 69 -31 118t-93 75t-157 26q-138 0 -207 -59.5t-69 -162.5v-35l2 -25v-50q0 -37 14 -75t53.5 -69.5t116 -51
t200.5 -19.5q123 0 239.5 22.5t227.5 63.5l-33 -243q-91 -45 -214.5 -70.5t-277.5 -25.5zM1195 389h-962v197h962v-197z" />
    <glyph glyph-name="f" unicode="f" horiz-adv-x="978" 
d="M582 1349q99 0 190.5 -14t163.5 -36l34 -249q-62 17 -129 27t-145 10q-93 0 -140 -15.5t-62.5 -43t-15.5 -63.5v-3q0 -24 7.5 -43t19.5 -34l-219 -13v32q-59 19 -101 63.5t-42 124.5v4q0 121 104 187t335 66zM524 0h-340v798h340v-798zM932 635h-922v262l322 -4l122 4
h512z" />
    <glyph glyph-name="g" unicode="g" horiz-adv-x="1349" 
d="M690 330q-321 0 -466.5 86t-145.5 240v6q0 110 57 178.5t169.5 103t279.5 41.5l752 35v-226l-303 3v-13q75 -10 122 -34t70 -62.5t23 -92.5v-9q0 -133 -136.5 -194.5t-421.5 -61.5zM670 -156h17q100 0 164 9t94 30t30 54v3q0 37 -38 51t-115 19l-420 26l95 11
q-34 -4 -62 -15.5t-44.5 -30.5t-16.5 -49v-2q0 -37 32 -60.5t97 -34.5t167 -11zM684 -392h-42q-188 0 -318.5 23t-198 78t-67.5 151v3q0 58 26.5 98t79 64.5t129.5 29.5v10q-81 13 -129.5 48.5t-48.5 103.5v2q0 48 22.5 80.5t66.5 50t109 19.5v39l295 -64l-103 2
q-45 -1 -64.5 -12t-19.5 -31v-1q0 -26 32 -36.5t106 -15.5l313 -22q213 -14 319 -79.5t106 -208.5v-4q0 -117 -72 -190t-209 -105.5t-332 -32.5zM670 542q108 0 166 13.5t80.5 38.5t22.5 58v7q0 33 -22 58t-79.5 39.5t-162.5 14.5h-8q-106 0 -164.5 -14t-81 -39t-22.5 -58
v-7q0 -33 23 -58t82 -39t166 -14z" />
    <glyph glyph-name="h" unicode="h" horiz-adv-x="1431" 
d="M1312 0h-343v479q0 62 -19 115t-68 85.5t-141 32.5q-74 0 -128 -23t-89.5 -61t-55.5 -85l-58 170h67q20 79 70 142.5t135 101t208 37.5q143 0 236.5 -50.5t139.5 -148.5t46 -241v-554zM473 0h-342v1316h340v-357l-6 -340l8 -3v-616z" />
    <glyph glyph-name="i" unicode="i" horiz-adv-x="604" 
d="M473 0h-342v961h342v-961zM302 1072q-96 0 -140.5 41t-44.5 111v5q0 70 44.5 111t140.5 41t141 -41t45 -111v-4q0 -72 -45 -112.5t-141 -40.5z" />
    <glyph glyph-name="j" unicode="j" horiz-adv-x="634" 
d="M502 172h-342v789h342v-789zM332 1066q-97 0 -141.5 41t-44.5 111v5q0 70 44.5 111t140.5 41t141 -41t45 -111v-4q0 -72 -45 -112.5t-140 -40.5zM101 -361q-50 0 -93.5 5t-74.5 13l-27 262q22 -6 45 -9.5t49 -3.5q97 0 128.5 48t31.5 133v136h342v-147
q0 -130 -36.5 -228.5t-124 -153.5t-240.5 -55z" />
    <glyph glyph-name="k" unicode="k" horiz-adv-x="1375" 
d="M1380 0h-442l-421 414h-77v187h78l408 360h434l-546 -472v58zM473 0h-342v1316h342v-1316z" />
    <glyph glyph-name="l" unicode="l" horiz-adv-x="605" 
d="M474 0h-343v1316h343v-1316z" />
    <glyph glyph-name="m" unicode="m" horiz-adv-x="2174" 
d="M2056 0h-343v479q0 59 -16 112.5t-60 87t-130 33.5q-69 0 -119 -22.5t-82 -60.5t-52 -84l-33 166h33q21 77 67.5 141t128.5 103t206 39q136 0 224 -50.5t132 -147t44 -236.5v-560zM473 0h-342v961h342l-12 -286l12 -58v-617zM1265 0h-343v479q0 65 -17.5 117.5t-61.5 84
t-126 31.5q-69 0 -119 -23t-82.5 -61t-51.5 -85l-40 170h50q16 77 63 141t129 102t202 38q175 0 269 -85.5t114 -240.5q4 -22 9 -55t5 -56v-557z" />
    <glyph glyph-name="n" unicode="n" horiz-adv-x="1431" 
d="M1312 0h-343v479q0 62 -19 115t-68.5 85.5t-140.5 32.5q-76 0 -130.5 -23t-90.5 -61t-56 -85l-38 170h47q19 77 69 141t136 102t212 38q143 0 236.5 -50.5t139.5 -147.5t46 -236v-560zM473 0h-342v961h342l-13 -306l13 -33v-622z" />
    <glyph glyph-name="o" unicode="o" horiz-adv-x="1420" 
d="M709 -36q-306 0 -468.5 131t-162.5 376v23q0 244 162.5 376t468.5 132q308 0 470.5 -132t162.5 -376v-23q0 -245 -162.5 -376t-470.5 -131zM709 228q137 0 213 62.5t76 180.5v23q0 117 -76 180.5t-213 63.5q-135 0 -211 -63.5t-76 -180.5v-23q0 -118 76 -180.5t211 -62.5
z" />
    <glyph glyph-name="p" unicode="p" horiz-adv-x="1479" 
d="M898 -31q-123 0 -209.5 33t-138 94t-71.5 145h-108l96 237q4 -73 40.5 -124.5t103 -78t161.5 -26.5q130 0 204.5 58t74.5 168v19q0 111 -71 170t-204 59q-80 0 -143.5 -24t-107.5 -65.5t-67 -92.5l-62 172h77q20 80 70 143.5t138.5 100.5t221.5 37q233 0 364 -127.5
t131 -375.5v-20q0 -246 -134 -374t-366 -128zM471 -338h-340v1299h342l-12 -284l6 -98v-229l-2 -28l6 -319v-341z" />
    <glyph glyph-name="q" unicode="q" horiz-adv-x="1479" 
d="M573 -31q-227 0 -359.5 126.5t-132.5 375.5v19q0 249 133.5 376.5t366.5 127.5q126 0 213 -33.5t139 -96.5t72 -152h100l-92 -221q-4 74 -40 126t-103 79t-164 27q-132 0 -205 -58t-73 -170v-20q0 -111 71.5 -168.5t202.5 -57.5q78 0 141.5 23.5t109 64.5t68.5 92
l74 -188h-95q-17 -76 -68 -138t-139.5 -98t-219.5 -36zM1349 -338h-340v341l5 323l-1 35v264l5 51l-12 285h343v-1299z" />
    <glyph glyph-name="r" unicode="r" horiz-adv-x="1009" 
d="M464 503l-72 186h70q31 135 121.5 215.5t240.5 80.5q39 0 71 -5t57 -13l24 -313q-34 9 -76.5 14.5t-85.5 5.5q-131 0 -219 -45.5t-131 -125.5zM473 0h-342v961h331l-15 -339l26 -3v-619z" />
    <glyph glyph-name="s" unicode="s" horiz-adv-x="1233" 
d="M621 -37q-161 0 -290.5 25.5t-222.5 60.5l-36 268q106 -41 241.5 -73t287.5 -32q122 0 176.5 18t54.5 66v0q0 34 -25.5 50.5t-86 24t-167.5 15.5q-186 14 -292 49t-150 97.5t-44 158.5v4q0 159 128 233t383 74q156 0 281.5 -24t215.5 -58l34 -247q-104 39 -233 63
t-266 24q-88 0 -134.5 -8.5t-63.5 -24.5t-17 -40v0q0 -27 17 -43t73 -25.5t174 -19.5q181 -14 293.5 -43t165 -88.5t52.5 -167.5v0q0 -179 -135.5 -258t-413.5 -79z" />
    <glyph glyph-name="t" unicode="t" horiz-adv-x="1063" 
d="M630 -28q-173 0 -271 48.5t-139 144.5t-41 237v393h340v-354q0 -97 45 -142t176 -45q71 0 145 16t132 40l-34 -272q-68 -31 -158 -48.5t-195 -17.5zM978 695h-973v262h1008zM511 930h-325l-2 274l339 26z" />
    <glyph glyph-name="u" unicode="u" horiz-adv-x="1431" 
d="M119 961h343v-478q0 -62 19 -115.5t68.5 -86t140.5 -32.5q77 0 131 23t90 61.5t56 84.5l38 -169h-47q-18 -78 -68.5 -141.5t-136 -101.5t-212.5 -38q-142 0 -236 50.5t-140 147.5t-46 236v559zM958 961h342v-961h-342l14 307l-14 32v622z" />
    <glyph glyph-name="v" unicode="v" horiz-adv-x="1330" 
d="M654 222h30l273 739h359l-378 -961h-541l-383 961h362z" />
    <glyph glyph-name="w" unicode="w" horiz-adv-x="1956" 
d="M793 0h-484l-284 961h358l179 -719h22l180 692h425l186 -692h20l178 719h358l-284 -961h-484l-139 549l-38 142h-17l-37 -142z" />
    <glyph glyph-name="x" unicode="x" horiz-adv-x="1358" 
d="M415 0h-395l416 540v-82l-403 503h392l242 -316h24l243 316h392l-403 -503v80l416 -538h-395l-253 335h-24z" />
    <glyph glyph-name="y" unicode="y" horiz-adv-x="1332" 
d="M645 267h175l-201 -121l338 815h360l-582 -1299h-355l233 537l147 -152h-355l-391 914h363z" />
    <glyph glyph-name="z" unicode="z" horiz-adv-x="1243" 
d="M550 268h603v-268h-1062v240l592 452h-588v268h1050v-240z" />
    <glyph glyph-name="braceleft" unicode="{" horiz-adv-x="835" 
d="M770 1325v-228q-22 6 -50.5 10t-62.5 4q-69 0 -100 -27t-31 -92q0 -30 3 -71t6.5 -83.5t3.5 -78.5q0 -56 -17.5 -99t-58 -71t-113.5 -38v-43l-11 33q78 -8 121 -37t61 -73t18 -101q0 -35 -3.5 -78t-6.5 -84t-3 -71q0 -65 32.5 -92.5t104.5 -27.5q32 0 58.5 5t48.5 10
v-232q-38 -10 -93 -18.5t-114 -8.5q-178 0 -262.5 74.5t-84.5 244.5q0 32 3 76.5t6.5 89t3.5 76.5q0 40 -14.5 67t-48.5 41.5t-94 16.5v251q60 2 94 16.5t48.5 42t14.5 66.5q0 32 -3.5 76.5t-6.5 89t-3 76.5q0 169 84.5 242.5t262.5 73.5q59 0 114 -8.5t93 -19.5z" />
    <glyph glyph-name="bar" unicode="|" horiz-adv-x="622" 
d="M454 1415v-1846h-286v1846h286z" />
    <glyph glyph-name="braceright" unicode="}" horiz-adv-x="835" 
d="M65 1097v228q38 11 93 19.5t114 8.5q179 0 263 -73.5t84 -242.5q0 -32 -3 -76.5t-6.5 -89t-3.5 -76.5q0 -39 14 -66.5t49 -42t94 -16.5v-251q-59 -2 -94 -16.5t-49 -41.5t-14 -67q0 -32 3.5 -76.5t6.5 -89t3 -76.5q0 -170 -84 -244.5t-263 -74.5q-59 0 -114 8.5t-93 18.5
v232q22 -5 48.5 -10t58.5 -5q72 0 104.5 27.5t32.5 92.5q0 30 -3 71t-6.5 84t-3.5 78q0 57 18 101t61.5 73t120.5 37l-11 -33v43q-72 10 -113 38t-58.5 71t-17.5 99q0 36 3.5 78.5t6.5 83.5t3 71q0 65 -30.5 92t-100.5 27q-34 0 -62 -4t-51 -10z" />
    <glyph glyph-name="asciitilde" unicode="~" horiz-adv-x="1368" 
d="M933 424q-69 0 -133 15.5t-122 36.5t-111 36.5t-101 15.5q-53 0 -74.5 -29t-24.5 -86v-14h-241v51q0 169 71.5 256t235.5 87q73 0 137 -16t121 -37t109.5 -37t99.5 -16q54 0 75 31t24 92v8h243v-51q0 -169 -72 -256t-237 -87z" />
    <glyph glyph-name="nbspace" unicode="&#xa0;" horiz-adv-x="499" 
 />
    <glyph glyph-name="exclamdown" unicode="&#xa1;" horiz-adv-x="614" 
d="M158 537h299l36 -854h-372zM307 992q98 0 144 -45t46 -121v-5q0 -77 -46 -122t-144 -45q-97 0 -143 45t-46 122v5q0 77 46 121.5t143 44.5z" />
    <glyph glyph-name="cent" unicode="&#xa2;" horiz-adv-x="1217" 
d="M848 1210v-384h-290v384h290zM848 129v-369h-290v369h290zM698 -37q-312 0 -466 135.5t-154 382.5v15q0 239 153.5 372.5t462.5 133.5q85 0 160 -11.5t138 -31.5t109 -44l33 -274q-75 37 -170 63t-213 26q-169 0 -247.5 -60.5t-78.5 -173.5v-14q0 -116 83.5 -179
t253.5 -63q115 0 206 24t176 62l-30 -273q-74 -38 -181 -64t-235 -26z" />
    <glyph glyph-name="sterling" unicode="&#xa3;" horiz-adv-x="1478" 
d="M1260 532h-1166l18 219h1165zM490 291v-11h923v-280h-1313v263l92 18q51 12 82 33.5t44.5 53.5t13.5 75q0 47 -13.5 102.5t-31.5 115.5t-32 122t-14 122q0 205 147.5 306t453.5 101q116 0 236.5 -13.5t219.5 -38.5l29 -284q-99 23 -199.5 36t-206.5 13q-122 0 -188 -19
t-91 -56.5t-25 -92.5q0 -45 12 -90.5t28 -89.5t28.5 -87t12.5 -84q0 -83 -43.5 -135.5t-164.5 -79.5z" />
    <glyph glyph-name="currency" unicode="&#xa4;" horiz-adv-x="1324" 
d="M660 172q-238 0 -365.5 111.5t-127.5 313.5v9q0 203 127.5 314t365.5 111q239 0 367 -111t128 -314v-9q0 -202 -128 -313.5t-367 -111.5zM660 430q90 0 138 43.5t48 123.5v9q0 80 -48 123t-138 43q-88 0 -136.5 -43t-48.5 -123v-9q0 -80 48.5 -123.5t136.5 -43.5z
M804 300l185 160l242 -227l-175 -169zM344 468l166 -178l-242 -226l-176 169zM509 910l-192 -154l-225 210l176 170zM995 746l-178 166l239 224l175 -170z" />
    <glyph glyph-name="yen" unicode="&#xa5;" horiz-adv-x="1551" 
d="M1400 514h-541l57 181h501zM136 218l19 181h1262l-17 -181h-1264zM155 695h494l58 -181h-571zM920 336h-289l-619 942h380l253 -400l121 -192h17l120 190l255 402h380zM950 0h-350v633h350v-633z" />
    <glyph glyph-name="brokenbar" unicode="&#xa6;" horiz-adv-x="623" 
d="M455 1415v-837h-287v837h287zM455 406v-837h-287v837h287z" />
    <glyph glyph-name="section" unicode="&#xa7;" horiz-adv-x="1284" 
d="M963 422l-235 55q59 23 90 48.5t31 60.5v0q0 40 -25 58.5t-84.5 27.5t-163.5 19q-169 18 -274.5 47t-154 90t-48.5 173v4q0 159 126 233t376 74q153 0 277.5 -24t212.5 -59l34 -251q-102 40 -229.5 65t-261.5 25q-128 0 -167.5 -17.5t-39.5 -49.5v0q0 -25 16.5 -40
t70.5 -24t168 -20q176 -14 287 -38.5t163 -72.5t52 -135v0q0 -85 -57 -135.5t-164 -52.5v-61zM298 778l259 -42q-74 -29 -103.5 -55t-29.5 -60v0q0 -30 19.5 -50t77 -33t168.5 -23q174 -14 283.5 -44t161 -91t51.5 -169v0q0 -175 -132 -253.5t-406 -78.5q-158 0 -287.5 25
t-221.5 59l-35 270q102 -40 237.5 -72t283.5 -32q119 0 171 16t52 59v0q0 32 -24.5 47t-82 22.5t-157.5 15.5q-182 15 -287.5 43t-150.5 77.5t-45 127.5v4q0 91 58 133.5t140 54.5v49z" />
    <glyph glyph-name="dieresis" unicode="&#xa8;" horiz-adv-x="939" 
d="M263 1077q-84 0 -124 40t-40 106v5q0 66 40 106.5t124 40.5q85 0 125.5 -40.5t40.5 -106.5v-5q0 -67 -40.5 -106.5t-125.5 -39.5zM675 1077q-85 0 -125 40t-40 106v5q0 66 41 106.5t124 40.5q84 0 124.5 -40.5t40.5 -106.5v-5q0 -67 -40.5 -106.5t-124.5 -39.5z" />
    <glyph glyph-name="copyright" unicode="&#xa9;" horiz-adv-x="1704" 
d="M852 -41q-240 0 -410.5 80.5t-260.5 232t-90 365.5v16q0 209 90 356.5t260.5 226t410.5 78.5t410 -78.5t260.5 -226t90.5 -356.5v-16q0 -214 -90.5 -365.5t-260.5 -232t-410 -80.5zM891 309q-196 0 -292.5 84.5t-96.5 240.5v10q0 151 96.5 234.5t290.5 83.5
q80 0 146.5 -16t109.5 -39l21 -177q-48 25 -108 41t-134 16q-103 0 -151.5 -36.5t-48.5 -106.5v-10q0 -70 51.5 -109t156.5 -39q72 0 129.5 15t110.5 40l-19 -176q-46 -24 -113.5 -40t-148.5 -16zM852 132q258 0 401.5 132.5t143.5 369.5v23q0 230 -143.5 356.5
t-401.5 126.5q-259 0 -402.5 -126.5t-143.5 -356.5v-23q0 -237 143.5 -369.5t402.5 -132.5z" />
    <glyph glyph-name="ordfeminine" unicode="&#xaa;" horiz-adv-x="854" 
d="M767 641h-231l8 157l-1 26v137l-2 68q0 44 -36 67t-128 23q-77 0 -147.5 -18t-135.5 -41l22 173q59 25 135.5 42.5t168.5 17.5q110 0 178.5 -25.5t105 -67.5t50 -93.5t13.5 -104.5v-361zM285 622q-110 0 -169 51t-59 138v7q0 109 77 151.5t204 53.5l218 17l6 -123
l-186 -18q-46 -4 -66 -16.5t-20 -37.5v-2q0 -24 20.5 -37.5t64.5 -13.5q58 0 104.5 23t66.5 54l37 -97h-48q-22 -66 -75.5 -108t-174.5 -42z" />
    <glyph glyph-name="guillemetleft" unicode="&#xab;" horiz-adv-x="1309" 
d="M1297 888l-369 -413l369 -411h-336l-355 400v44l355 380h336zM739 888l-369 -413l369 -411h-336l-355 400v44l355 380h336z" />
    <glyph glyph-name="logicalnot" unicode="&#xac;" horiz-adv-x="1330" 
d="M1204 645v-571h-284v571h284zM1204 470h-1081v262h1081v-262z" />
    <glyph glyph-name="softhyphen" unicode="&#xad;" horiz-adv-x="938" 
d="M830 389h-722v262h722v-262z" />
    <glyph glyph-name="registered" unicode="&#xae;" horiz-adv-x="1014" 
d="M508 503q-217 0 -338 104.5t-121 290.5v5q0 187 121 292t338 105q215 0 336 -105t121 -292v-5q0 -186 -121 -290.5t-336 -104.5zM508 612q160 0 242.5 75t82.5 212v5q0 136 -82.5 211t-242.5 75q-161 0 -244 -75t-83 -211v-5q0 -137 83 -212t244 -75zM721 727h-129l-8 41
q-7 37 -22 50.5t-53 13.5l-109 1v85l126 1q32 0 46 11.5t14 31.5v3q0 19 -14 30t-47 11h-125v89h153q82 0 119.5 -27.5t37.5 -80.5v-3q0 -41 -24.5 -64t-71.5 -25v-17l-14 14q56 -5 76.5 -29.5t31.5 -75.5zM447 727h-121v368h121v-217v-37v-114z" />
    <glyph glyph-name="macron" unicode="&#xaf;" horiz-adv-x="965" 
d="M867 1112h-769v202h769v-202z" />
    <glyph glyph-name="degree" unicode="&#xb0;" horiz-adv-x="821" 
d="M410 705q-163 0 -251.5 83t-88.5 221v6q0 139 88.5 221.5t251.5 82.5q164 0 252.5 -82.5t88.5 -220.5v-7q0 -138 -88 -221t-253 -83zM410 882q63 0 98 34.5t35 92.5v6q0 59 -35 93.5t-98 34.5q-62 0 -97 -34.5t-35 -93.5v-6q0 -58 35 -92.5t97 -34.5z" />
    <glyph glyph-name="plusminus" unicode="&#xb1;" horiz-adv-x="1349" 
d="M1215 22h-1081v261h1081v-261zM817 1202v-820h-285v820h285zM1215 662h-1081v261h1081v-261z" />
    <glyph glyph-name="twosuperior" unicode="&#xb2;" horiz-adv-x="802" 
d="M759 751h-721v189l257 105q69 27 115 50t69 45.5t23 50.5v2q0 35 -33 51.5t-114 16.5t-164.5 -20t-151.5 -45l23 187q57 27 147 46.5t180 19.5q174 0 265.5 -58t91.5 -166v-8q0 -57 -23.5 -101t-73 -77.5t-127.5 -60.5l-89 -32v-46l-129 39h455v-188z" />
    <glyph glyph-name="threesuperior" unicode="&#xb3;" horiz-adv-x="836" 
d="M398 725q-110 0 -197 14t-141 27l-20 184q62 -17 145 -31t170 -14q108 0 143.5 15t35.5 42v2q0 11 -4.5 19.5t-16 15t-32.5 9.5t-53 4l-257 5v147l257 5q57 2 80 14t23 36v1q0 26 -34 37.5t-124 11.5q-100 0 -186 -15t-142 -29l19 174q63 21 150 35t191 14
q191 0 286 -46.5t95 -141.5v-6q0 -61 -39 -100t-128 -47v-24l-16 19q103 -11 146 -50.5t43 -110.5v-8q0 -65 -43 -111.5t-130 -71.5t-221 -25z" />
    <glyph glyph-name="acute" unicode="&#xb4;" horiz-adv-x="802" 
d="M86 1085l235 301h374v-7l-307 -300h-302v6z" />
    <glyph glyph-name="micro" unicode="&#xb5;" horiz-adv-x="1436" 
d="M963 961h342v-961h-338l8 293l-12 46v622zM473 961v-468q0 -52 12 -96.5t39 -78t71.5 -51.5t109.5 -18q73 0 125 23t86.5 62.5t54.5 84.5l39 -170h-47q-13 -83 -44 -146t-86 -98.5t-142 -35.5q-58 0 -102 15.5t-74.5 46t-49.5 71.5h-8l14 -370v-70h-340v1299h342z" />
    <glyph glyph-name="paragraph" unicode="&#xb6;" horiz-adv-x="1002" 
d="M567 639h-93q-203 0 -299.5 83.5t-96.5 230.5v10q0 151 96.5 233t299.5 82h93v-639zM852 1278v-1278h-342l1 1278h341z" />
    <glyph glyph-name="periodcentered" unicode="&#xb7;" horiz-adv-x="555" 
d="M277 373q-91 0 -135 40.5t-44 108.5v7q0 69 44 110.5t135 41.5q92 0 136.5 -41.5t44.5 -110.5v-7q0 -68 -44.5 -108.5t-136.5 -40.5z" />
    <glyph glyph-name="cedilla" unicode="&#xb8;" horiz-adv-x="742" 
d="M264 32h229l-38 -186l-125 72h51h52q140 -1 197 -45t57 -121v-5q0 -99 -75.5 -146t-230.5 -47q-53 0 -106.5 7.5t-94.5 17.5l-36 172q42 -10 87 -15t88 -5q62 0 93 7.5t31 30.5v2q0 24 -40 34.5t-160 12.5h-10.5h-6.5z" />
    <glyph glyph-name="onesuperior" unicode="&#xb9;" horiz-adv-x="543" 
d="M466 751h-232v461h-9l-199 -72l8 202l223 83h209v-674z" />
    <glyph glyph-name="ordmasculine" unicode="&#xba;" horiz-adv-x="885" 
d="M442 623q-189 0 -289.5 85.5t-100.5 242.5v15q0 158 101 243t289 85q190 0 290.5 -85.5t100.5 -242.5v-15q0 -157 -100.5 -242.5t-290.5 -85.5zM442 809q73 0 112 36.5t39 108.5v10q0 72 -39 108t-112 36q-72 0 -111 -36t-39 -108v-10q0 -72 39 -108.5t111 -36.5z" />
    <glyph glyph-name="guillemetright" unicode="&#xbb;" horiz-adv-x="1309" 
d="M12 64l369 411l-369 413h336l355 -380v-44l-355 -400h-336zM569 64l370 411l-370 413h337l355 -380v-44l-355 -400h-337z" />
    <glyph glyph-name="onequarter" unicode="&#xbc;" horiz-adv-x="1853" 
d="M466 604h-232v461h-9l-199 -73l8 202l223 84h209v-674zM355 0h-299l1242 1278h294zM1720 0h-224v387l2 137h-13l-251 -238v-82l-103 75h700v-178h-848v200l386 373h351v-674z" />
    <glyph glyph-name="onehalf" unicode="&#xbd;" horiz-adv-x="1904" 
d="M466 604h-232v461h-9l-199 -73l8 202l223 84h209v-674zM355 0h-299l1242 1278h294zM1861 0h-721v189l257 105q69 27 115 50t69 45.5t23 50.5v2q0 35 -33 51.5t-114 16.5t-164 -20t-152 -45l23 187q57 27 147 46.5t180 19.5q174 0 265.5 -58t91.5 -166v-8
q0 -57 -23.5 -101t-73 -77.5t-127.5 -60.5l-89 -32v-46l-129 39h455v-188z" />
    <glyph glyph-name="threequarters" unicode="&#xbe;" horiz-adv-x="2143" 
d="M398 578q-110 0 -197 14t-141 27l-20 184q62 -17 145 -31t170 -14q108 0 143.5 15t35.5 42v2q0 11 -4.5 19.5t-16 15t-32.5 9.5t-53 3l-257 6v146l257 6q57 1 80 13.5t23 35.5v2q0 26 -34 37.5t-124 11.5q-100 0 -186 -15t-142 -30l19 174q63 21 150 35t191 14
q191 0 286 -46t95 -141v-6q0 -61 -39 -100.5t-128 -46.5v-24l-16 18q103 -10 146 -50t43 -110v-8q0 -65 -43 -111.5t-130 -71.5t-221 -25zM645 0h-299l1242 1278h294zM2010 0h-224v387l2 137h-14l-250 -238v-82l-103 75h700v-178h-849v200l387 373h351v-674z" />
    <glyph glyph-name="questiondown" unicode="&#xbf;" horiz-adv-x="1274" 
d="M755 528l165 7v-267l-145 -8q-127 -8 -201.5 -29.5t-107 -57.5t-32.5 -89v-7q0 -72 58 -109t222 -37q130 0 262 28.5t255 71.5l-40 -283q-50 -21 -128.5 -44t-177 -38.5t-210.5 -15.5q-295 0 -446 103.5t-151 311.5v14q0 156 80 251.5t231.5 142t365.5 55.5zM764 991
q100 0 146.5 -44t46.5 -121v-4q0 -77 -46.5 -122.5t-146.5 -45.5t-147 45.5t-47 122.5v4q0 77 47 121t147 44z" />
    <glyph glyph-name="Agrave" unicode="&#xc0;" horiz-adv-x="1662" 
d="M385 0h-362l556 1278h511l550 -1278h-363l-428 1062h-30zM1228 298h-795v268h795v-268zM331 1692h394l283 -281v-5h-328l-349 279v7z" />
    <glyph glyph-name="Aacute" unicode="&#xc1;" horiz-adv-x="1662" 
d="M385 0h-362l556 1278h511l550 -1278h-363l-428 1062h-30zM1228 298h-795v268h795v-268zM654 1411l283 281h394v-7l-349 -279h-328v5z" />
    <glyph glyph-name="Acircumflex" unicode="&#xc2;" horiz-adv-x="1662" 
d="M385 0h-362l556 1278h511l550 -1278h-363l-428 1062h-30zM1228 298h-795v268h795v-268zM402 1414l258 278h344l258 -278v-8h-280l-145 127h-10l-145 -127h-280v8z" />
    <glyph glyph-name="Atilde" unicode="&#xc3;" horiz-adv-x="1662" 
d="M385 0h-362l556 1278h511l550 -1278h-363l-428 1062h-30zM1228 298h-795v268h795v-268zM993 1410q-45 0 -87 9t-80 21t-72 21t-63 9q-35 0 -48.5 -17.5t-14.5 -53.5v-3h-196v33q0 111 51.5 180.5t184.5 69.5q46 0 88 -9t80 -21t71 -21t63 -9q35 0 48.5 18t13.5 53v3h199
v-30q0 -113 -52 -183t-186 -70z" />
    <glyph glyph-name="Adieresis" unicode="&#xc4;" horiz-adv-x="1662" 
d="M385 0h-362l556 1278h511l550 -1278h-363l-428 1062h-30zM1228 298h-795v268h795v-268zM625 1401q-84 0 -124 39.5t-40 105.5v5q0 67 40 107.5t124 40.5q85 0 125.5 -40.5t40.5 -107.5v-5q0 -66 -40.5 -105.5t-125.5 -39.5zM1037 1401q-85 0 -125 39.5t-40 105.5v5
q0 67 40.5 107.5t124.5 40.5t124.5 -40.5t40.5 -107.5v-5q0 -66 -40.5 -105.5t-124.5 -39.5z" />
    <glyph glyph-name="Aring" unicode="&#xc5;" horiz-adv-x="1662" 
d="M385 0h-362l556 1278h511l550 -1278h-363l-428 1062h-30zM1228 298h-795v268h795v-268zM579 1545v6q0 85 60.5 137.5t192.5 52.5q130 0 190.5 -52.5t60.5 -137.5v-6q0 -86 -60.5 -138.5t-191.5 -52.5t-191.5 52.5t-60.5 138.5zM744 1550v-4q0 -31 22 -48.5t66 -17.5
q43 0 65 17.5t22 48.5v4q0 31 -22 48t-65 17q-44 0 -66 -17t-22 -48z" />
    <glyph glyph-name="AE" unicode="&#xc6;" horiz-adv-x="2550" 
d="M418 0h-397l919 1278h364l-4 -216h-132zM1229 300h-772v268h772v-268zM2442 0h-1223v271h1223v-271zM1559 0h-343v1278h343v-1278zM2403 518h-1009v258h1009v-258zM2425 1007h-1206v271h1206v-271z" />
    <glyph glyph-name="Ccedilla" unicode="&#xc7;" horiz-adv-x="1470" 
d="M859 -41q-382 0 -575 178t-193 497v17q0 313 190.5 490.5t567.5 177.5q104 0 192.5 -14.5t162 -38.5t133.5 -55l29 -292q-94 45 -208.5 78t-261.5 33q-221 0 -328.5 -100.5t-107.5 -276.5v-17q0 -178 109 -280.5t348 -102.5q138 0 252.5 33t209.5 76l-30 -296
q-58 -29 -132 -54t-163.5 -39t-194.5 -14zM696 23h229l-38 -185l-125 72h51h52q140 -2 197 -46t57 -120v-5q0 -99 -75.5 -146t-230.5 -47q-53 0 -106.5 7.5t-94.5 17.5l-36 171q42 -9 87 -14t88 -5q62 0 93 7.5t31 29.5v2q0 25 -40 35t-160 12h-10.5h-6.5z" />
    <glyph glyph-name="Egrave" unicode="&#xc8;" horiz-adv-x="1481" 
d="M492 0h-343v1278h343v-1278zM1372 0h-1219v271h1219v-271zM1334 518h-1006v258h1006v-258zM1356 1007h-1203v271h1203v-271zM268 1692h394l283 -281v-5h-328l-349 279v7z" />
    <glyph glyph-name="Eacute" unicode="&#xc9;" horiz-adv-x="1481" 
d="M492 0h-343v1278h343v-1278zM1372 0h-1219v271h1219v-271zM1334 518h-1006v258h1006v-258zM1356 1007h-1203v271h1203v-271zM591 1411l283 281h394v-7l-349 -279h-328v5z" />
    <glyph glyph-name="Ecircumflex" unicode="&#xca;" horiz-adv-x="1481" 
d="M492 0h-343v1278h343v-1278zM1372 0h-1219v271h1219v-271zM1334 518h-1006v258h1006v-258zM1356 1007h-1203v271h1203v-271zM339 1414l258 278h344l258 -278v-8h-280l-145 127h-10l-145 -127h-280v8z" />
    <glyph glyph-name="Edieresis" unicode="&#xcb;" horiz-adv-x="1481" 
d="M492 0h-343v1278h343v-1278zM1372 0h-1219v271h1219v-271zM1334 518h-1006v258h1006v-258zM1356 1007h-1203v271h1203v-271zM561 1401q-83 0 -123.5 39.5t-40.5 105.5v5q0 67 40.5 107.5t123.5 40.5q86 0 126.5 -40.5t40.5 -107.5v-5q0 -67 -40.5 -106t-126.5 -39z
M974 1401q-85 0 -125 39.5t-40 105.5v5q0 67 40.5 107.5t124.5 40.5t124 -40.5t40 -107.5v-5q0 -67 -40 -106t-124 -39z" />
    <glyph glyph-name="Igrave" unicode="&#xcc;" horiz-adv-x="651" 
d="M501 1278v-1278h-351v1278h351zM-175 1692h394l283 -281v-5h-328l-349 279v7z" />
    <glyph glyph-name="Iacute" unicode="&#xcd;" horiz-adv-x="651" 
d="M501 1278v-1278h-351v1278h351zM149 1411l283 281h393v-7l-349 -279h-327v5z" />
    <glyph glyph-name="Icircumflex" unicode="&#xce;" horiz-adv-x="651" 
d="M501 1278v-1278h-351v1278h351zM-103 1414l257 278h345l257 -278v-8h-280l-145 127h-9l-146 -127h-279v8z" />
    <glyph glyph-name="Idieresis" unicode="&#xcf;" horiz-adv-x="651" 
d="M501 1278v-1278h-351v1278h351zM119 1401q-84 0 -124 39.5t-40 105.5v5q0 67 40 107.5t124 40.5q85 0 125.5 -40.5t40.5 -107.5v-5q0 -66 -40.5 -105.5t-125.5 -39.5zM531 1401q-85 0 -125 39.5t-40 105.5v5q0 67 41 107.5t124 40.5q84 0 124.5 -40.5t40.5 -107.5v-5
q0 -66 -40.5 -105.5t-124.5 -39.5z" />
    <glyph glyph-name="Eth" unicode="&#xd0;" horiz-adv-x="1648" 
d="M860 553l-860 1v182l860 -1v-182zM842 0h-433v283h425q181 0 273 93t92 256v17q0 163 -92 254.5t-273 91.5h-427v283h435q354 0 536.5 -162.5t182.5 -464.5v-19q0 -304 -182.5 -468t-536.5 -164zM498 0h-349v1278h349v-1278z" />
    <glyph glyph-name="Ntilde" unicode="&#xd1;" horiz-adv-x="1709" 
d="M149 1278h488l569 -919h18l-10 462v457h345v-1278h-466l-590 949h-18l10 -475v-474h-346v1278zM1017 1410q-46 0 -87.5 9t-80 21t-72.5 21t-63 9q-34 0 -48 -17.5t-14 -53.5v-3h-197v33q0 111 51.5 180.5t184.5 69.5q46 0 88 -9t80 -21t71.5 -21t62.5 -9q35 0 48.5 18
t14.5 53v3h198v-30q0 -113 -52 -183t-185 -70z" />
    <glyph glyph-name="Ograve" unicode="&#xd2;" horiz-adv-x="1722" 
d="M861 -41q-377 0 -573.5 176t-196.5 497v15q0 320 196.5 496t573.5 176t573.5 -176t196.5 -496v-15q0 -321 -196.5 -497t-573.5 -176zM861 243q199 0 302 103t103 285v17q0 181 -103 284t-302 103q-201 0 -303.5 -103t-102.5 -284v-17q0 -182 102.5 -285t303.5 -103z
M361 1692h393l283 -281v-5h-327l-349 279v7z" />
    <glyph glyph-name="Oacute" unicode="&#xd3;" horiz-adv-x="1722" 
d="M861 -41q-377 0 -573.5 176t-196.5 497v15q0 320 196.5 496t573.5 176t573.5 -176t196.5 -496v-15q0 -321 -196.5 -497t-573.5 -176zM861 243q199 0 302 103t103 285v17q0 181 -103 284t-302 103q-201 0 -303.5 -103t-102.5 -284v-17q0 -182 102.5 -285t303.5 -103z
M684 1411l283 281h394v-7l-349 -279h-328v5z" />
    <glyph glyph-name="Ocircumflex" unicode="&#xd4;" horiz-adv-x="1722" 
d="M861 -41q-377 0 -573.5 176t-196.5 497v15q0 320 196.5 496t573.5 176t573.5 -176t196.5 -496v-15q0 -321 -196.5 -497t-573.5 -176zM861 243q199 0 302 103t103 285v17q0 181 -103 284t-302 103q-201 0 -303.5 -103t-102.5 -284v-17q0 -182 102.5 -285t303.5 -103z
M432 1414l257 278h345l258 -278v-8h-280l-145 127h-10l-145 -127h-280v8z" />
    <glyph glyph-name="Otilde" unicode="&#xd5;" horiz-adv-x="1722" 
d="M861 -41q-377 0 -573.5 176t-196.5 497v15q0 320 196.5 496t573.5 176t573.5 -176t196.5 -496v-15q0 -321 -196.5 -497t-573.5 -176zM861 243q199 0 302 103t103 285v17q0 181 -103 284t-302 103q-201 0 -303.5 -103t-102.5 -284v-17q0 -182 102.5 -285t303.5 -103z
M1023 1410q-45 0 -87 9t-80 21t-72 21t-63 9q-35 0 -48.5 -17.5t-14.5 -53.5v-3h-197v33q0 111 52 180.5t184 69.5q47 0 89 -9t79.5 -21t71 -21t63.5 -9q35 0 48 18t14 53v3h198v-30q0 -113 -51.5 -183t-185.5 -70z" />
    <glyph glyph-name="Odieresis" unicode="&#xd6;" horiz-adv-x="1722" 
d="M861 -41q-377 0 -573.5 176t-196.5 497v15q0 320 196.5 496t573.5 176t573.5 -176t196.5 -496v-15q0 -321 -196.5 -497t-573.5 -176zM861 243q199 0 302 103t103 285v17q0 181 -103 284t-302 103q-201 0 -303.5 -103t-102.5 -284v-17q0 -182 102.5 -285t303.5 -103z
M654 1401q-83 0 -123.5 39.5t-40.5 105.5v5q0 67 40.5 107.5t123.5 40.5q86 0 126 -40.5t40 -107.5v-5q0 -66 -40 -105.5t-126 -39.5zM1067 1401q-85 0 -125 39.5t-40 105.5v5q0 67 40.5 107.5t124.5 40.5q83 0 123.5 -40.5t40.5 -107.5v-5q0 -66 -40.5 -105.5t-123.5 -39.5
z" />
    <glyph glyph-name="multiply" unicode="&#xd7;" horiz-adv-x="1303" 
d="M311 1097l878 -828l-191 -183l-878 827zM305 86l-191 183l878 828l191 -184z" />
    <glyph glyph-name="Oslash" unicode="&#xd8;" horiz-adv-x="1722" 
d="M861 -40q-244 0 -416.5 82.5t-263 234t-90.5 356.5v15q0 321 196 497t574 176q244 0 416 -82.5t263 -233.5t91 -357v-15q0 -320 -196 -496.5t-574 -176.5zM375 -70h-276l245 277l94 107l694 785l77 87l143 163h271l-266 -301l-67 -78l-703 -800l-72 -81zM861 244
q198 0 301.5 102.5t103.5 285.5v17q0 179 -105 283.5t-300 104.5q-199 0 -302.5 -102.5t-103.5 -285.5v-17q0 -179 105.5 -283.5t300.5 -104.5z" />
    <glyph glyph-name="Ugrave" unicode="&#xd9;" horiz-adv-x="1683" 
d="M841 -41q-355 0 -529.5 162.5t-174.5 481.5v675h351v-674q0 -173 87 -264.5t266 -91.5q180 0 267 91.5t87 264.5v674h350v-675q0 -319 -173.5 -481.5t-530.5 -162.5zM341 1692h394l283 -281v-5h-328l-349 279v7z" />
    <glyph glyph-name="Uacute" unicode="&#xda;" horiz-adv-x="1683" 
d="M841 -41q-355 0 -529.5 162.5t-174.5 481.5v675h351v-674q0 -173 87 -264.5t266 -91.5q180 0 267 91.5t87 264.5v674h350v-675q0 -319 -173.5 -481.5t-530.5 -162.5zM665 1411l283 281h393v-7l-349 -279h-327v5z" />
    <glyph glyph-name="Ucircumflex" unicode="&#xdb;" horiz-adv-x="1683" 
d="M841 -41q-355 0 -529.5 162.5t-174.5 481.5v675h351v-674q0 -173 87 -264.5t266 -91.5q180 0 267 91.5t87 264.5v674h350v-675q0 -319 -173.5 -481.5t-530.5 -162.5zM412 1414l258 278h345l257 -278v-8h-280l-145 127h-9l-146 -127h-280v8z" />
    <glyph glyph-name="Udieresis" unicode="&#xdc;" horiz-adv-x="1683" 
d="M841 -41q-355 0 -529.5 162.5t-174.5 481.5v675h351v-674q0 -173 87 -264.5t266 -91.5q180 0 267 91.5t87 264.5v674h350v-675q0 -319 -173.5 -481.5t-530.5 -162.5zM635 1401q-84 0 -124 39.5t-40 105.5v5q0 67 40 107.5t124 40.5q85 0 125.5 -40.5t40.5 -107.5v-5
q0 -66 -40.5 -105.5t-125.5 -39.5zM1047 1401q-85 0 -125 39.5t-40 105.5v5q0 67 41 107.5t124 40.5q84 0 124.5 -40.5t40.5 -107.5v-5q0 -66 -40.5 -105.5t-124.5 -39.5z" />
    <glyph glyph-name="Yacute" unicode="&#xdd;" horiz-adv-x="1550" 
d="M920 336h-289l-619 942h380l253 -400l121 -192h17l120 190l255 402h380zM950 0h-350v633h350v-633zM598 1411l283 281h394v-7l-349 -279h-328v5z" />
    <glyph glyph-name="Thorn" unicode="&#xde;" horiz-adv-x="1534" 
d="M895 188h-492v270h478q119 0 174.5 44.5t55.5 131.5v15q0 87 -55.5 131.5t-174.5 44.5h-480v270h494q292 0 430.5 -117t138.5 -330v-15q0 -209 -138.5 -327t-430.5 -118zM495 0h-346v1278h346v-263l-1 -120v-521l1 -111v-263z" />
    <glyph glyph-name="germandbls" unicode="&#xdf;" horiz-adv-x="1485" 
d="M131 0v916q0 144 50.5 240t166 144.5t309.5 48.5q134 0 248 -31t183.5 -102t69.5 -191q0 -60 -23.5 -103t-58 -73.5t-69 -54t-58 -45t-23.5 -46.5v-2q1 -33 31 -47.5t131 -31.5q102 -17 176 -49t114 -94t40 -172v-5q0 -113 -61 -184.5t-170 -104.5t-252 -33
q-74 0 -156 9.5t-147 25.5l-35 261q71 -19 152 -32t146 -13q94 0 140.5 18.5t46.5 58.5v2q0 30 -16 45.5t-50.5 24t-92.5 16.5q-116 15 -187.5 45t-105 81t-33.5 127v6q0 61 24 103.5t58.5 73.5t69.5 56.5t58.5 51.5t23.5 58q0 28 -18.5 48.5t-55 31.5t-91.5 11
q-77 0 -119 -22t-58 -62.5t-16 -94.5v-910h-342z" />
    <glyph glyph-name="agrave" unicode="&#xe0;" horiz-adv-x="1337" 
d="M1226 0h-341l13 269l-4 45v217l-2 48q0 83 -68 125.5t-218 42.5q-136 0 -254 -29.5t-225 -68.5l34 249q62 27 139 49t167.5 36t195.5 14q169 0 278.5 -37t171.5 -101t87.5 -147t25.5 -175v-537zM457 -31q-189 0 -289.5 76t-100.5 211v10q0 164 122.5 232.5t356.5 86.5
l370 27l7 -181l-353 -31q-93 -8 -131 -29.5t-38 -66.5v-4q0 -41 38 -64.5t124 -23.5q92 0 159.5 23t111.5 60.5t65 81.5l58 -138h-72q-19 -75 -67 -136t-135.5 -97.5t-225.5 -36.5zM217 1386h373l235 -301v-6h-301l-307 300v7z" />
    <glyph glyph-name="aacute" unicode="&#xe1;" horiz-adv-x="1337" 
d="M1226 0h-341l13 269l-4 45v217l-2 48q0 83 -68 125.5t-218 42.5q-136 0 -254 -29.5t-225 -68.5l34 249q62 27 139 49t167.5 36t195.5 14q169 0 278.5 -37t171.5 -101t87.5 -147t25.5 -175v-537zM457 -31q-189 0 -289.5 76t-100.5 211v10q0 164 122.5 232.5t356.5 86.5
l370 27l7 -181l-353 -31q-93 -8 -131 -29.5t-38 -66.5v-4q0 -41 38 -64.5t124 -23.5q92 0 159.5 23t111.5 60.5t65 81.5l58 -138h-72q-19 -75 -67 -136t-135.5 -97.5t-225.5 -36.5zM505 1085l235 301h374v-7l-307 -300h-302v6z" />
    <glyph glyph-name="acircumflex" unicode="&#xe2;" horiz-adv-x="1337" 
d="M1226 0h-341l13 269l-4 45v217l-2 48q0 83 -68 125.5t-218 42.5q-136 0 -254 -29.5t-225 -68.5l34 249q62 27 139 49t167.5 36t195.5 14q169 0 278.5 -37t171.5 -101t87.5 -147t25.5 -175v-537zM457 -31q-189 0 -289.5 76t-100.5 211v10q0 164 122.5 232.5t356.5 86.5
l370 27l7 -181l-353 -31q-93 -8 -131 -29.5t-38 -66.5v-4q0 -41 38 -64.5t124 -23.5q92 0 159.5 23t111.5 60.5t65 81.5l58 -138h-72q-19 -75 -67 -136t-135.5 -97.5t-225.5 -36.5zM252 1087l240 299h346l240 -299v-8h-265l-143 144h-9l-145 -144h-264v8z" />
    <glyph glyph-name="atilde" unicode="&#xe3;" horiz-adv-x="1337" 
d="M1226 0h-341l13 269l-4 45v217l-2 48q0 83 -68 125.5t-218 42.5q-136 0 -254 -29.5t-225 -68.5l34 249q62 27 139 49t167.5 36t195.5 14q169 0 278.5 -37t171.5 -101t87.5 -147t25.5 -175v-537zM457 -31q-189 0 -289.5 76t-100.5 211v10q0 164 122.5 232.5t356.5 86.5
l370 27l7 -181l-353 -31q-93 -8 -131 -29.5t-38 -66.5v-4q0 -41 38 -64.5t124 -23.5q92 0 159.5 23t111.5 60.5t65 81.5l58 -138h-72q-19 -75 -67 -136t-135.5 -97.5t-225.5 -36.5zM824 1086q-45 0 -85.5 9.5t-77.5 22t-70.5 22t-62.5 9.5q-34 0 -48 -18t-14 -55v-3h-197v36
q0 113 51.5 184t184.5 71q47 0 88 -9.5t77.5 -22t69 -22t61.5 -9.5q35 0 48 18.5t14 54.5v4h198v-36q0 -115 -52 -185.5t-185 -70.5z" />
    <glyph glyph-name="adieresis" unicode="&#xe4;" horiz-adv-x="1337" 
d="M1226 0h-341l13 269l-4 45v217l-2 48q0 83 -68 125.5t-218 42.5q-136 0 -254 -29.5t-225 -68.5l34 249q62 27 139 49t167.5 36t195.5 14q169 0 278.5 -37t171.5 -101t87.5 -147t25.5 -175v-537zM457 -31q-189 0 -289.5 76t-100.5 211v10q0 164 122.5 232.5t356.5 86.5
l370 27l7 -181l-353 -31q-93 -8 -131 -29.5t-38 -66.5v-4q0 -41 38 -64.5t124 -23.5q92 0 159.5 23t111.5 60.5t65 81.5l58 -138h-72q-19 -75 -67 -136t-135.5 -97.5t-225.5 -36.5zM459 1077q-84 0 -124 40t-40 106v5q0 66 40 106.5t124 40.5q85 0 125.5 -40.5t40.5 -106.5
v-5q0 -67 -40.5 -106.5t-125.5 -39.5zM871 1077q-85 0 -125 40t-40 106v5q0 66 41 106.5t124 40.5q84 0 124.5 -40.5t40.5 -106.5v-5q0 -67 -40.5 -106.5t-124.5 -39.5z" />
    <glyph glyph-name="aring" unicode="&#xe5;" horiz-adv-x="1337" 
d="M1226 0h-341l13 269l-4 45v217l-2 48q0 83 -68 125.5t-218 42.5q-136 0 -254 -29.5t-225 -68.5l34 249q62 27 139 49t167.5 36t195.5 14q169 0 278.5 -37t171.5 -101t87.5 -147t25.5 -175v-537zM457 -31q-189 0 -289.5 76.5t-100.5 210.5v10q0 164 122.5 232.5
t356.5 86.5l370 27l7 -181l-353 -31q-93 -8 -131 -29.5t-38 -66.5v-4q0 -41 38 -64.5t124 -23.5q92 0 159.5 23t111.5 60.5t65 81.5l58 -138h-72q-19 -75 -67 -136t-135 -97.5t-226 -36.5zM413 1248v7q0 85 60.5 137.5t191.5 52.5q132 0 192 -52.5t60 -137.5v-7
q0 -85 -60 -137.5t-192 -52.5q-131 0 -191.5 52.5t-60.5 137.5zM578 1254v-4q0 -31 22 -48.5t65 -17.5q44 0 66 17t22 49v4q0 31 -21.5 48t-66.5 17q-43 0 -65 -17t-22 -48z" />
    <glyph glyph-name="ae" unicode="&#xe6;" horiz-adv-x="2174" 
d="M1552 -37q-260 0 -408 81t-199 212l-44 54q-4 48 -5 102t-1 102l-3 65q0 83 -68.5 125.5t-219.5 42.5q-135 0 -253 -29.5t-224 -68.5l34 249q57 27 128.5 49t156.5 36t182 14q183 0 283.5 -59.5t142.5 -138.5h13q47 86 158.5 144.5t291.5 58.5q189 0 318 -58.5t195 -164
t66 -248.5v-12q0 -33 -3.5 -69t-8.5 -61h-315q6 37 9 81t3 74q0 69 -30.5 118t-93 75t-157.5 26q-137 0 -206.5 -60.5t-69.5 -161.5v-33l2 -23v-57q0 -36 14 -73.5t54 -68.5t116 -50.5t201 -19.5q122 0 239 22.5t228 63.5l-33 -243q-92 -45 -215.5 -70.5t-277.5 -25.5z
M471 -31q-198 0 -301 77t-103 215v8q0 161 122.5 229.5t356.5 86.5l370 27l7 -181l-353 -31q-93 -8 -131 -29.5t-38 -66.5v-4q0 -41 39 -64.5t130 -23.5q90 0 157.5 20t113.5 53.5t71 72.5l134 -183h-70q-40 -54 -103 -101t-160 -76t-242 -29zM2019 389h-961v197h961v-197z
" />
    <glyph glyph-name="ccedilla" unicode="&#xe7;" horiz-adv-x="1217" 
d="M698 -37q-312 0 -466 135.5t-154 382.5v15q0 239 153.5 372.5t462.5 133.5q85 0 160 -11.5t138 -31.5t109 -44l33 -274q-75 37 -170 63t-213 26q-169 0 -247.5 -60.5t-78.5 -173.5v-14q0 -116 83.5 -179t253.5 -63q115 0 206 24t176 62l-30 -273q-74 -38 -181 -64
t-235 -26zM543 32h229l-38 -186l-125 72h51h52q140 -1 196.5 -45t56.5 -121v-5q0 -99 -75 -146t-230 -47q-53 0 -106.5 7.5t-94.5 17.5l-36 172q42 -10 87 -15t88 -5q62 0 93 7.5t31 30.5v2q0 24 -40 34.5t-160 12.5h-10.5h-6.5z" />
    <glyph glyph-name="egrave" unicode="&#xe8;" horiz-adv-x="1350" 
d="M729 -37q-329 0 -490 132t-161 376v20q0 243 155.5 377t443.5 134q198 0 330 -58t199 -164t67 -249v-12q0 -33 -3.5 -69t-8.5 -61h-315q6 37 9 81t3 74q0 69 -31 118t-93 75t-157 26q-138 0 -207 -59.5t-69 -162.5v-35l2 -25v-50q0 -37 14 -75t53.5 -69.5t116 -51
t200.5 -19.5q123 0 239.5 22.5t227.5 63.5l-33 -243q-91 -45 -214.5 -70.5t-277.5 -25.5zM1195 389h-962v197h962v-197zM241 1386h373l235 -301v-6h-302l-306 300v7z" />
    <glyph glyph-name="eacute" unicode="&#xe9;" horiz-adv-x="1350" 
d="M729 -37q-329 0 -490 132t-161 376v20q0 243 155.5 377t443.5 134q198 0 330 -58t199 -164t67 -249v-12q0 -33 -3.5 -69t-8.5 -61h-315q6 37 9 81t3 74q0 69 -31 118t-93 75t-157 26q-138 0 -207 -59.5t-69 -162.5v-35l2 -25v-50q0 -37 14 -75t53.5 -69.5t116 -51
t200.5 -19.5q123 0 239.5 22.5t227.5 63.5l-33 -243q-91 -45 -214.5 -70.5t-277.5 -25.5zM1195 389h-962v197h962v-197zM529 1085l235 301h374v-7l-307 -300h-302v6z" />
    <glyph glyph-name="ecircumflex" unicode="&#xea;" horiz-adv-x="1350" 
d="M729 -37q-329 0 -490 132t-161 376v20q0 243 155.5 377t443.5 134q198 0 330 -58t199 -164t67 -249v-12q0 -33 -3.5 -69t-8.5 -61h-315q6 37 9 81t3 74q0 69 -31 118t-93 75t-157 26q-138 0 -207 -59.5t-69 -162.5v-35l2 -25v-50q0 -37 14 -75t53.5 -69.5t116 -51
t200.5 -19.5q123 0 239.5 22.5t227.5 63.5l-33 -243q-91 -45 -214.5 -70.5t-277.5 -25.5zM1195 389h-962v197h962v-197zM276 1087l240 299h346l240 -299v-8h-265l-143 144h-10l-144 -144h-264v8z" />
    <glyph glyph-name="edieresis" unicode="&#xeb;" horiz-adv-x="1350" 
d="M729 -37q-329 0 -490 132t-161 376v20q0 243 155.5 377t443.5 134q198 0 330 -58t199 -164t67 -249v-12q0 -33 -3.5 -69t-8.5 -61h-315q6 37 9 81t3 74q0 69 -31 118t-93 75t-157 26q-138 0 -207 -59.5t-69 -162.5v-35l2 -25v-50q0 -37 14 -75t53.5 -69.5t116 -51
t200.5 -19.5q123 0 239.5 22.5t227.5 63.5l-33 -243q-91 -45 -214.5 -70.5t-277.5 -25.5zM1195 389h-962v197h962v-197zM482 1077q-83 0 -123.5 40t-40.5 106v5q0 66 40.5 106.5t123.5 40.5q86 0 126 -40.5t40 -106.5v-5q0 -67 -40 -106.5t-126 -39.5zM895 1077
q-85 0 -125 40t-40 106v5q0 66 40.5 106.5t124.5 40.5t124 -40.5t40 -106.5v-5q0 -67 -40 -106.5t-124 -39.5z" />
    <glyph glyph-name="igrave" unicode="&#xec;" horiz-adv-x="604" 
d="M473 0h-342v961h342v-961zM-25 1386h340l126 -302v-5h-280l-186 301v6z" />
    <glyph glyph-name="iacute" unicode="&#xed;" horiz-adv-x="604" 
d="M473 0h-342v961h342v-961zM164 1084l126 302h340v-6l-187 -301h-279v5z" />
    <glyph glyph-name="icircumflex" unicode="&#xee;" horiz-adv-x="604" 
d="M473 0h-342v961h342v-961zM-61 1087l196 299h335l195 -299v-8h-256l-104 144h-6l-105 -144h-255v8z" />
    <glyph glyph-name="idieresis" unicode="&#xef;" horiz-adv-x="604" 
d="M473 0h-342v961h342v-961zM120 1070q-76 0 -114 40t-38 106v5q0 67 38 107.5t114 40.5q77 0 115.5 -40.5t38.5 -107.5v-5q0 -66 -38.5 -106t-115.5 -40zM485 1070q-77 0 -115 40t-38 106v5q0 67 38.5 107.5t114.5 40.5q75 0 113.5 -40.5t38.5 -107.5v-5q0 -66 -38.5 -106
t-113.5 -40z" />
    <glyph glyph-name="eth" unicode="&#xf0;" horiz-adv-x="1423" 
d="M709 -36q-305 0 -468 122.5t-163 354.5v19q0 214 133.5 331t354.5 117q91 0 159.5 -16.5t119.5 -50t87 -83.5l126 7l-61 -311q-2 53 -23.5 92.5t-59.5 65.5t-91.5 38.5t-119.5 12.5q-130 0 -205.5 -52t-75.5 -154v-18q0 -104 76.5 -157.5t210.5 -53.5q135 0 211.5 53.5
t76.5 157.5v33.5v33.5q-4 47 -9 86.5t-10 80.5q-12 77 -67.5 152.5t-146.5 153.5t-209.5 161t-256.5 175v1h440q136 -90 247.5 -180.5t191.5 -188t124 -208.5t44 -243v-23q0 -246 -163.5 -377.5t-472.5 -131.5zM1250 1133l-997 -171v152l997 169v-150z" />
    <glyph glyph-name="ntilde" unicode="&#xf1;" horiz-adv-x="1431" 
d="M1312 0h-343v479q0 62 -19 115t-68.5 85.5t-140.5 32.5q-76 0 -130.5 -23t-90.5 -61t-56 -85l-38 170h47q19 77 69 141t136 102t212 38q143 0 236.5 -50.5t139.5 -147.5t46 -236v-560zM473 0h-342v961h342l-13 -306l13 -33v-622zM875 1086q-45 0 -86 9.5t-78 22t-70 22
t-62 9.5q-34 0 -48 -18t-15 -55v-3h-196v36q0 113 51.5 184t184.5 71q47 0 88 -9.5t77.5 -22t69 -22t60.5 -9.5q35 0 48.5 18.5t14.5 54.5v4h198v-36q0 -115 -52 -185.5t-185 -70.5z" />
    <glyph glyph-name="ograve" unicode="&#xf2;" horiz-adv-x="1420" 
d="M709 -36q-306 0 -468.5 131t-162.5 376v23q0 244 162.5 376t468.5 132q308 0 470.5 -132t162.5 -376v-23q0 -245 -162.5 -376t-470.5 -131zM709 228q137 0 213 62.5t76 180.5v23q0 117 -76 180.5t-213 63.5q-135 0 -211 -63.5t-76 -180.5v-23q0 -118 76 -180.5t211 -62.5
zM262 1386h374l234 -301v-6h-301l-307 300v7z" />
    <glyph glyph-name="oacute" unicode="&#xf3;" horiz-adv-x="1420" 
d="M709 -36q-306 0 -468.5 131t-162.5 376v23q0 244 162.5 376t468.5 132q308 0 470.5 -132t162.5 -376v-23q0 -245 -162.5 -376t-470.5 -131zM709 228q137 0 213 62.5t76 180.5v23q0 117 -76 180.5t-213 63.5q-135 0 -211 -63.5t-76 -180.5v-23q0 -118 76 -180.5t211 -62.5
zM551 1085l235 301h373v-7l-307 -300h-301v6z" />
    <glyph glyph-name="ocircumflex" unicode="&#xf4;" horiz-adv-x="1420" 
d="M709 -36q-306 0 -468.5 131t-162.5 376v23q0 244 162.5 376t468.5 132q308 0 470.5 -132t162.5 -376v-23q0 -245 -162.5 -376t-470.5 -131zM709 228q137 0 213 62.5t76 180.5v23q0 117 -76 180.5t-213 63.5q-135 0 -211 -63.5t-76 -180.5v-23q0 -118 76 -180.5t211 -62.5
zM297 1087l241 299h345l240 -299v-8h-265l-143 144h-9l-145 -144h-264v8z" />
    <glyph glyph-name="otilde" unicode="&#xf5;" horiz-adv-x="1420" 
d="M709 -36q-306 0 -468.5 131t-162.5 376v23q0 244 162.5 376t468.5 132q308 0 470.5 -132t162.5 -376v-23q0 -245 -162.5 -376t-470.5 -131zM709 228q137 0 213 62.5t76 180.5v23q0 118 -76 181t-213 63q-135 0 -211 -63t-76 -181v-23q0 -118 76 -180.5t211 -62.5z
M869 1086q-45 0 -85.5 9.5t-77.5 22t-70.5 22t-61.5 9.5q-35 0 -48.5 -18t-14.5 -55v-3h-197v36q0 113 51.5 184t184.5 71q47 0 88 -9.5t77.5 -22t69 -22t61.5 -9.5q35 0 48 18.5t14 54.5v4h198v-36q0 -115 -51.5 -185.5t-185.5 -70.5z" />
    <glyph glyph-name="odieresis" unicode="&#xf6;" horiz-adv-x="1420" 
d="M709 -36q-306 0 -468.5 131t-162.5 376v23q0 244 162.5 376t468.5 132q308 0 470.5 -132t162.5 -376v-23q0 -245 -162.5 -376t-470.5 -131zM709 228q137 0 213 62.5t76 180.5v23q0 117 -76 180.5t-213 63.5q-135 0 -211 -63.5t-76 -180.5v-23q0 -118 76 -180.5t211 -62.5
zM504 1077q-84 0 -124 40t-40 106v5q0 66 40 106.5t124 40.5q85 0 125.5 -40.5t40.5 -106.5v-5q0 -67 -40.5 -106.5t-125.5 -39.5zM917 1077q-86 0 -125.5 40t-39.5 106v5q0 66 40.5 106.5t124.5 40.5q83 0 123.5 -40.5t40.5 -106.5v-5q0 -67 -40.5 -106.5t-123.5 -39.5z
" />
    <glyph glyph-name="divide" unicode="&#xf7;" horiz-adv-x="1327" 
d="M1204 463h-1081v262h1081v-262zM665 28q-91 0 -134 42t-43 115v5q0 73 43 115t134 42q92 0 135 -42t43 -115v-5q0 -73 -43 -115t-135 -42zM665 843q-91 0 -134 42t-43 115v4q0 73 43 115.5t134 42.5q92 0 135 -42.5t43 -115.5v-4q0 -73 -43 -115t-135 -42z" />
    <glyph glyph-name="oslash" unicode="&#xf8;" horiz-adv-x="1420" 
d="M709 -32q-196 0 -337.5 60.5t-217.5 174t-76 274.5v17q0 241 163 371t468 130q197 0 339 -60.5t218 -173.5t76 -272v-18q0 -243 -162.5 -373t-470.5 -130zM342 -70h-241l221 250l81 91l483 542l75 87l118 132h241l-221 -250l-68 -77l-487 -547l-64 -72zM709 216
q143 0 222.5 65.5t79.5 189.5v23q0 123 -79.5 189.5t-222.5 66.5q-142 0 -221 -66t-79 -190v-23q0 -124 79.5 -189.5t220.5 -65.5z" />
    <glyph glyph-name="ugrave" unicode="&#xf9;" horiz-adv-x="1431" 
d="M119 961h343v-478q0 -62 19 -115.5t68.5 -86t140.5 -32.5q77 0 131 23t90 61.5t56 84.5l38 -169h-47q-18 -78 -68.5 -141.5t-136 -101.5t-212.5 -38q-142 0 -236 50.5t-140 147.5t-46 236v559zM958 961h342v-961h-342l14 307l-14 32v622zM268 1386h373l235 -301v-6h-302
l-306 300v7z" />
    <glyph glyph-name="uacute" unicode="&#xfa;" horiz-adv-x="1431" 
d="M119 961h343v-478q0 -62 19 -115.5t68.5 -86t140.5 -32.5q77 0 131 23t90 61.5t56 84.5l38 -169h-47q-18 -78 -68.5 -141.5t-136 -101.5t-212.5 -38q-142 0 -236 50.5t-140 147.5t-46 236v559zM958 961h342v-961h-342l14 307l-14 32v622zM556 1085l235 301h374v-7
l-307 -300h-302v6z" />
    <glyph glyph-name="ucircumflex" unicode="&#xfb;" horiz-adv-x="1431" 
d="M119 961h343v-478q0 -62 19 -115.5t68.5 -86t140.5 -32.5q77 0 131 23t90 61.5t56 84.5l38 -169h-47q-18 -78 -68.5 -141.5t-136 -101.5t-212.5 -38q-142 0 -236 50.5t-140 147.5t-46 236v559zM958 961h342v-961h-342l14 307l-14 32v622zM303 1087l240 299h346l240 -299
v-8h-265l-143 144h-10l-144 -144h-264v8z" />
    <glyph glyph-name="udieresis" unicode="&#xfc;" horiz-adv-x="1431" 
d="M119 961h343v-478q0 -62 19 -115.5t68.5 -86t140.5 -32.5q77 0 131 23t90 61.5t56 84.5l38 -169h-47q-18 -78 -68.5 -141.5t-136 -101.5t-212.5 -38q-142 0 -236 50.5t-140 147.5t-46 236v559zM958 961h342v-961h-342l14 307l-14 32v622zM509 1077q-83 0 -123.5 40
t-40.5 106v5q0 66 40.5 106.5t123.5 40.5q86 0 126 -40.5t40 -106.5v-5q0 -67 -40 -106.5t-126 -39.5zM922 1077q-85 0 -125 40t-40 106v5q0 66 40.5 106.5t124.5 40.5t124 -40.5t40 -106.5v-5q0 -67 -40 -106.5t-124 -39.5z" />
    <glyph glyph-name="yacute" unicode="&#xfd;" horiz-adv-x="1332" 
d="M645 267h175l-201 -121l338 815h360l-582 -1299h-355l233 537l147 -152h-355l-391 914h363zM506 1085l235 301h374v-7l-307 -300h-302v6z" />
    <glyph glyph-name="thorn" unicode="&#xfe;" horiz-adv-x="1479" 
d="M898 -31q-123 0 -209.5 33t-138 94t-71.5 145h-108l96 237q4 -73 40.5 -124.5t103 -78t161.5 -26.5q130 0 204.5 58t74.5 168v19q0 111 -71 170t-204 59q-79 0 -142.5 -24t-107.5 -65.5t-67 -92.5l-63 172h81q20 80 69 143.5t136.5 100.5t220.5 37q233 0 364 -127.5
t131 -375.5v-20q0 -246 -134 -374t-366 -128zM471 -338h-340v1654h340v-357l-6 -334l2 -46v-229l-2 -28l6 -319v-341z" />
    <glyph glyph-name="ydieresis" unicode="&#xff;" horiz-adv-x="1332" 
d="M645 267h175l-201 -121l338 815h360l-582 -1299h-355l233 537l147 -152h-355l-391 914h363zM460 1077q-84 0 -124 40t-40 106v5q0 66 40 106.5t124 40.5q85 0 125.5 -40.5t40.5 -106.5v-5q0 -67 -40.5 -106.5t-125.5 -39.5zM872 1077q-85 0 -125 40t-40 106v5
q0 66 41 106.5t124 40.5q84 0 124.5 -40.5t40.5 -106.5v-5q0 -67 -40.5 -106.5t-124.5 -39.5z" />
    <glyph glyph-name="idotless" unicode="&#x131;" horiz-adv-x="604" 
d="M473 0h-342v961h342v-961z" />
    <glyph glyph-name="OE" unicode="&#x152;" horiz-adv-x="2534" 
d="M861 -41q-377 0 -573.5 176t-196.5 497v15q0 320 196.5 496t573.5 176q376 0 572.5 -177t196.5 -495v-15q0 -319 -196.5 -496t-572.5 -177zM861 243q199 0 302 103t103 285v17q0 181 -103 284t-302 103q-201 0 -303.5 -103t-102.5 -284v-17q0 -182 102.5 -285t303.5 -103
zM2425 0h-1290v271h1290v-271zM2387 518h-938v258h938v-258zM2409 1007h-1270v271h1270v-271z" />
    <glyph glyph-name="oe" unicode="&#x153;" horiz-adv-x="2253" 
d="M658 -36q-275 0 -427.5 131.5t-152.5 375.5v23q0 244 151.5 376t422.5 132q186 0 299.5 -56.5t179.5 -156.5h12q63 102 179 157.5t298 55.5q180 0 304 -58.5t188 -164t64 -248.5v-12q0 -34 -4 -71t-9 -63h-314q6 38 8.5 82.5t2.5 75.5q0 69 -30 118t-91.5 75t-155.5 26
q-138 0 -208.5 -63t-70.5 -159v-37l-2 -22l4 -50q5 -94 99 -154.5t299 -60.5q119 0 232.5 22.5t220.5 63.5l-33 -243q-87 -45 -201.5 -70.5t-249.5 -25.5q-199 0 -330.5 56.5t-199.5 162.5h-12q-68 -102 -182 -160t-291 -58zM2098 385h-979v198h979v-198zM705 228
q137 0 213 63t76 181v21q0 118 -75.5 181.5t-213.5 63.5q-135 0 -210.5 -63t-75.5 -181v-23q0 -118 75.5 -180.5t210.5 -62.5z" />
    <glyph glyph-name="circumflex" unicode="&#x2c6;" horiz-adv-x="1026" 
d="M100 1087l240 299h346l240 -299v-8h-265l-143 144h-10l-144 -144h-264v8z" />
    <glyph glyph-name="ring" unicode="&#x2da;" horiz-adv-x="705" 
d="M100 1248v7q0 85 60.5 137.5t192.5 52.5q131 0 191.5 -52.5t60.5 -137.5v-7q0 -85 -60.5 -137.5t-192.5 -52.5q-131 0 -191.5 52.5t-60.5 137.5zM265 1254v-4q0 -31 22 -48.5t66 -17.5q43 0 65 17.5t22 48.5v4q0 31 -21.5 48t-65.5 17t-66 -17t-22 -48z" />
    <glyph glyph-name="tilde" unicode="&#x2dc;" horiz-adv-x="992" 
d="M655 1086q-45 0 -86 9.5t-78 22t-70 22t-62 9.5q-34 0 -48 -18t-14 -55v-3h-197v36q0 113 51.5 184t184.5 71q47 0 88 -9.5t77.5 -22t69 -22t60.5 -9.5q35 0 48.5 18.5t14.5 54.5v4h198v-36q0 -115 -52 -185.5t-185 -70.5z" />
    <glyph glyph-name="gravecomb" unicode="&#x300;" horiz-adv-x="802" 
d="M107 1386h374l235 -301v-6h-302l-307 300v7z" />
    <glyph glyph-name="acutecomb" unicode="&#x301;" horiz-adv-x="802" 
d="M86 1085l235 301h374v-7l-307 -300h-302v6z" />
    <glyph glyph-name="circumflexcomb" unicode="&#x302;" horiz-adv-x="1026" 
d="M100 1087l240 299h346l240 -299v-8h-265l-143 144h-10l-144 -144h-264v8z" />
    <glyph glyph-name="tildecomb" unicode="&#x303;" horiz-adv-x="992" 
d="M655 1086q-45 0 -86 9.5t-78 22t-70 22t-62 9.5q-34 0 -48 -18t-14 -55v-3h-197v36q0 113 51.5 184t184.5 71q47 0 88 -9.5t77.5 -22t69 -22t60.5 -9.5q35 0 48.5 18.5t14.5 54.5v4h198v-36q0 -115 -52 -185.5t-185 -70.5z" />
    <glyph glyph-name="macroncomb" unicode="&#x304;" horiz-adv-x="965" 
d="M867 1112h-769v202h769v-202z" />
    <glyph glyph-name="dotaccentcomb" unicode="&#x307;" horiz-adv-x="560" 
d="M279 1081q-91 0 -135 40.5t-44 108.5v7q0 69 44 110.5t136 41.5t136 -41.5t44 -110.5v-7q0 -68 -44 -108.5t-137 -40.5z" />
    <glyph glyph-name="dieresiscomb" unicode="&#x308;" horiz-adv-x="939" 
d="M263 1077q-84 0 -124 40t-40 106v5q0 66 40 106.5t124 40.5q85 0 125.5 -40.5t40.5 -106.5v-5q0 -67 -40.5 -106.5t-125.5 -39.5zM675 1077q-85 0 -125 40t-40 106v5q0 66 41 106.5t124 40.5q84 0 124.5 -40.5t40.5 -106.5v-5q0 -67 -40.5 -106.5t-124.5 -39.5z" />
    <glyph glyph-name="ringcomb" unicode="&#x30a;" horiz-adv-x="705" 
d="M100 1248v7q0 85 60.5 137.5t192.5 52.5q131 0 191.5 -52.5t60.5 -137.5v-7q0 -85 -60.5 -137.5t-192.5 -52.5q-131 0 -191.5 52.5t-60.5 137.5zM265 1254v-4q0 -31 22 -48.5t66 -17.5q43 0 65 17.5t22 48.5v4q0 31 -21.5 48t-65.5 17t-66 -17t-22 -48z" />
    <glyph glyph-name="cedillacomb" unicode="&#x327;" horiz-adv-x="742" 
d="M264 32h229l-38 -186l-125 72h51h52q140 -1 197 -45t57 -121v-5q0 -99 -75.5 -146t-230.5 -47q-53 0 -106.5 7.5t-94.5 17.5l-36 172q42 -10 87 -15t88 -5q62 0 93 7.5t31 30.5v2q0 24 -40 34.5t-160 12.5h-10.5h-6.5z" />
    <glyph glyph-name="uni0900" unicode="&#x900;" horiz-adv-x="0" 
d="M-350 1642q-77 0 -111.5 -39t-34.5 -99v-6q0 -60 34.5 -99t111.5 -39q78 0 112 39t34 99v6q0 60 -34 99t-112 39zM-834 1530l246 -1v23q0 82 58 128t183 46q120 0 179 -44.5t59 -129.5v-22h247q3 21 3.5 33t0.5 19q0 170 -123.5 261t-366.5 91q-248 0 -368.5 -91
t-120.5 -262q0 -8 0.5 -19.5t2.5 -31.5z" />
    <glyph glyph-name="Chandrabindu.dv" unicode="&#x901;" horiz-adv-x="0" 
d="M-336 1676q77 0 111.5 39t34.5 99v7q0 60 -34.5 99t-111.5 39t-111.5 -39t-34.5 -99v-7q0 -60 34.5 -99t111.5 -39zM148 1789h-246v-22q0 -83 -58 -129t-183 -46q-121 0 -179.5 44.5t-58.5 129.5v23h-247q-3 -22 -3.5 -33.5t-0.5 -18.5q0 -171 123 -261.5t367 -90.5
q248 0 368.5 90.5t120.5 261.5q0 8 -0.5 19.5t-2.5 32.5z" />
    <glyph glyph-name="Bindu.dv" unicode="&#x902;" horiz-adv-x="0" 
d="M-334 1414q111 0 160.5 47t49.5 123v7q0 78 -52 124t-157 46q-107 0 -159 -48t-52 -122v-7q0 -76 50.5 -123t159.5 -47z" />
    <glyph glyph-name="Visarga.dv" unicode="&#x903;" horiz-adv-x="570" 
d="M-35 1028h660l-19 233h-661zM279 566q-111 0 -161 44t-50 119v5q0 76 51.5 120.5t159.5 44.5q106 0 159 -43.5t53 -121.5v-5q0 -75 -51 -119t-161 -44zM279 88q-111 0 -161 44.5t-50 118.5v7q0 74 51.5 118.5t159.5 44.5q106 0 159 -44t53 -119v-7q0 -74 -51 -118.5
t-161 -44.5z" />
    <glyph glyph-name="vowelShortA.dv" unicode="&#x904;" horiz-adv-x="2042" 
d="M956 1822v12.5v13.5h-280q-9 -27 -14 -55.5t-5 -58.5q0 -150 118.5 -233t361.5 -83h252q102 0 137.5 -36t35.5 -114v-53h293v70q0 184 -98.5 281.5t-340.5 97.5h-235q-130 0 -177 35.5t-48 122.5zM2097 1028l-19 233h-759l19 -233h759zM1538 0h332v1107h-332v-1107z
M69 360l21 -267q102 -45 230.5 -68.5t292.5 -23.5q303 0 443 80.5t140 210.5v7q0 65 -31 116.5t-111 91.5t-226 71l-8 109q133 5 213 39.5t115 90.5t35 124v11q0 93 -58.5 166.5t-183.5 116.5t-326 43q-141 0 -259.5 -21t-215.5 -58l-23 -263q108 44 223.5 67t237.5 23
q154 0 214 -34.5t60 -91.5v-4q0 -42 -28 -69.5t-100.5 -42t-206.5 -18.5l-215 -4v-234l233 -7q126 -3 198 -17.5t102.5 -42t30.5 -70.5v-5q0 -42 -29.5 -71.5t-96 -45t-177.5 -15.5q-134 0 -259.5 28.5t-234.5 77.5zM808 708v-141l190 -52l8 19q49 -14 98.5 -26t106.5 -18.5
t129 -6.5h326v243h-353q-68 0 -120.5 -2t-98 -6t-94.5 -9l-1 13z" />
    <glyph glyph-name="vowelA.dv" unicode="&#x905;" horiz-adv-x="2042" 
d="M2097 1028l-19 233h-759l19 -233h759zM1538 0h332v1107h-332v-1107zM69 360l21 -267q102 -45 230.5 -68.5t292.5 -23.5q303 0 443 80.5t140 210.5v7q0 65 -31 116.5t-111 91.5t-226 71l-8 109q133 5 213 39.5t115 90.5t35 124v11q0 93 -58.5 166.5t-183.5 116.5t-326 43
q-141 0 -259.5 -21t-215.5 -58l-23 -263q108 44 223.5 67t237.5 23q154 0 214 -34.5t60 -91.5v-4q0 -42 -28 -69.5t-100.5 -42t-206.5 -18.5l-215 -4v-234l233 -7q126 -3 198 -17.5t102.5 -42t30.5 -70.5v-5q0 -42 -29.5 -71.5t-96 -45t-177.5 -15.5q-134 0 -259.5 28.5
t-234.5 77.5zM808 708v-141l190 -52l8 19q49 -14 98.5 -26t106.5 -18.5t129 -6.5h326v243h-353q-68 0 -120.5 -2t-98 -6t-94.5 -9l-1 13z" />
    <glyph glyph-name="vowelAa.dv" unicode="&#x906;" horiz-adv-x="2719" 
d="M2546 0v1101h-331v-1101h331zM2774 1028l-19 233h-767l19 -233h767zM2097 1028l-19 233h-759l19 -233h759zM1538 0h332v1107h-332v-1107zM69 360l21 -267q102 -45 230.5 -68.5t292.5 -23.5q303 0 443 80.5t140 210.5v7q0 65 -31 116.5t-111 91.5t-226 71l-8 109
q133 5 213 39.5t115 90.5t35 124v11q0 93 -58.5 166.5t-183.5 116.5t-326 43q-141 0 -259.5 -21t-215.5 -58l-23 -263q108 44 223.5 67t237.5 23q154 0 214 -34.5t60 -91.5v-4q0 -42 -28 -69.5t-100.5 -42t-206.5 -18.5l-215 -4v-234l233 -7q126 -3 198 -17.5t102.5 -42
t30.5 -70.5v-5q0 -42 -29.5 -71.5t-96 -45t-177.5 -15.5q-134 0 -259.5 28.5t-234.5 77.5zM808 708v-141l190 -52l8 19q49 -14 98.5 -26t106.5 -18.5t129 -6.5h326v243h-353q-68 0 -120.5 -2t-98 -6t-94.5 -9l-1 13z" />
    <glyph glyph-name="vowelI.dv" unicode="&#x907;" horiz-adv-x="1463" 
d="M853 1028h645l-19 233h-645zM1278 1101h-320v-201h320v201zM1508 1028l-18 233h-1539l19 -233h1538zM957 1091v-371l321 -40v411h-321zM1086 -400v20l-147 131q-48 43 -91 75t-94.5 60t-125.5 58v66l-503 38l200 -65l362 -383h399zM100 307l25 -259l306 -52
q75 -23 162.5 -38.5t168.5 -15.5q238 0 370.5 40.5t186 113t53.5 170.5v8q0 90 -47 159t-154 108t-285 39q-117 0 -207 -12t-178 -31q-24 9 -39 25.5t-15 43.5v3q0 32 27.5 54t100.5 34t212 12q131 0 251 -7t240 -22v196q-158 23 -296.5 32.5t-287.5 9.5q-218 0 -344 -37
t-179.5 -105.5t-53.5 -164.5v-7q0 -111 77.5 -186.5t231.5 -110.5q84 22 179 37t221 15q129 0 172.5 -23t43.5 -65v-2q0 -30 -24 -51t-95 -32.5t-212 -11.5q-108 0 -212.5 16t-204.5 46t-194 71z" />
    <glyph glyph-name="vowelIi.dv" unicode="&#x908;" horiz-adv-x="1463" 
d="M853 1028h645l-19 233h-645zM1278 1101h-320v-201h320v201zM1508 1028l-18 233h-1539l19 -233h1538zM957 1091v-371l321 -40v411h-321zM1086 -400v20l-147 131q-48 43 -91 75t-94.5 60t-125.5 58v66l-503 38l200 -65l362 -383h399zM100 307l25 -259l306 -52
q75 -23 162.5 -38.5t168.5 -15.5q238 0 370.5 40.5t186 113t53.5 170.5v8q0 90 -47 159t-154 108t-285 39q-117 0 -207 -12t-178 -31q-24 9 -39 25.5t-15 43.5v3q0 32 27.5 54t100.5 34t212 12q131 0 251 -7t240 -22v196q-158 23 -296.5 32.5t-287.5 9.5q-218 0 -344 -37
t-179.5 -105.5t-53.5 -164.5v-7q0 -111 77.5 -186.5t231.5 -110.5q84 22 179 37t221 15q129 0 172.5 -23t43.5 -65v-2q0 -30 -24 -51t-95 -32.5t-212 -11.5q-108 0 -212.5 16t-204.5 46t-194 71zM1221 1238v19q-98 37 -144 79.5t-46 98.5v5q0 57 46.5 87.5t142.5 30.5
q44 0 88 -4.5t94 -14.5l-34 241q-61 14 -120 20t-128 6q-207 0 -311 -76.5t-104 -202.5v-5q0 -98 60 -158.5t183 -93.5v-32h273z" />
    <glyph glyph-name="vowelU.dv" unicode="&#x909;" horiz-adv-x="1397" 
d="M-37 1028h1493l-19 233h-1493zM1155 1074h-350q53 -33 75 -71.5t22 -80.5v-4q0 -37 -16.5 -65.5t-55 -47.5t-105.5 -30t-168 -13l-265 -6v-244l279 -9q153 -4 233.5 -21.5t109.5 -46.5t29 -71v-3q0 -62 -68.5 -98.5t-245.5 -36.5q-154 0 -288 31.5t-250 85.5l24 -273
q99 -46 237.5 -73.5t318.5 -27.5q318 0 466.5 95.5t148.5 257.5v5q0 119 -82.5 201.5t-273.5 105.5v9q180 21 246 90t66 163v6q0 51 -20.5 94t-66.5 78z" />
    <glyph glyph-name="vowelUu.dv" unicode="&#x90a;" horiz-adv-x="2108" 
d="M1301 1028h861l-19 233h-861zM1493 -7h377q72 66 109.5 149t37.5 182v7q0 109 -50 198.5t-151.5 142t-256.5 52.5q-116 0 -203.5 -30.5t-148 -84.5t-96.5 -125l163 -207q26 86 84.5 137.5t145.5 51.5q85 0 128 -44t43 -122v-7q0 -77 -48 -152.5t-134 -147.5zM-37 1028
h1493l-19 233h-1493zM1155 1074h-350q53 -33 75 -71.5t22 -80.5v-4q0 -37 -16.5 -65.5t-55 -47.5t-105.5 -30t-168 -13l-265 -6v-244l279 -9q153 -4 233.5 -21.5t109.5 -46.5t29 -71v-3q0 -62 -68.5 -98.5t-245.5 -36.5q-154 0 -288 31.5t-250 85.5l24 -273
q99 -46 237.5 -73.5t318.5 -27.5q318 0 466.5 95.5t148.5 257.5v5q0 119 -82.5 201.5t-273.5 105.5v9q180 21 246 90t66 163v6q0 51 -20.5 94t-66.5 78z" />
    <glyph glyph-name="vowelRu.dv" unicode="&#x90b;" horiz-adv-x="2248" 
d="M2301 1028l-19 233h-2336l19 -233h2336zM1815 728l-537 -144v-246l619 168zM1944 892h-330v-399l300 19l125 132q-12 66 -35 128.5t-60 119.5zM1548 0q48 -15 104 -23.5t125 -8.5q198 0 301 75.5t103 224.5v3q0 106 -59.5 182t-177.5 129l-236 -99q81 -28 119 -67t38 -90
v-4q0 -52 -43.5 -82t-114.5 -30q-50 0 -92.5 7t-86.5 21zM1325 -2v1111h-331v-1111h331zM1039 273v259l-213 -59q-54 -15 -121 -39t-126 -49l-9 17l-452 -118v-274zM668 382l-11 46q54 25 89.5 55.5t54.5 68.5t19 86v4q0 116 -99.5 187.5t-298.5 71.5q-79 0 -154 -12
t-134 -33l-20 -266q54 23 111.5 37t114.5 14q88 0 125.5 -35t37.5 -92v-2q0 -37 -14 -67.5t-44.5 -57t-81.5 -49.5z" />
    <glyph glyph-name="vowelLru.dv" unicode="&#x90c;" horiz-adv-x="1882" 
d="M1782 478v2l-340 -19v-8q0 -40 -15 -71t-47 -64t-85 -77q-93 -77 -129.5 -141.5t-36.5 -149.5q0 -92 51.5 -158t142.5 -101t208 -35q85 0 149.5 13.5t109.5 37.5l20 252q-45 -25 -102.5 -42.5t-122.5 -17.5q-64 0 -97.5 20.5t-33.5 60.5q0 27 15 49.5t50.5 52.5t95.5 79
q59 47 96 92.5t54 99.5t17 125zM1101 1028h645l-19 233h-644zM1526 1101h-320v-201h320v201zM-36 1028h1973l-20 233h-1972zM1526 1074h-321v-263h321v263zM104 420q0 -78 25 -153.5t74 -143t120 -123.5h390v6q-87 67 -146.5 131t-89.5 130.5t-30 141.5v7q0 85 48.5 135
t131.5 50q81 0 118 -42.5t42 -135.5l10 -169h315l9 169q6 93 47.5 135.5t118.5 42.5q79 0 117 -41t38 -104v-7l340 22v11q0 105 -50.5 191t-151 136.5t-249.5 50.5q-163 0 -253.5 -57.5t-120.5 -149.5h-9q-30 92 -116 149.5t-252 57.5q-225 0 -350.5 -117t-125.5 -314v-9z
" />
    <glyph glyph-name="vowelChandraE.dv" unicode="&#x90d;" horiz-adv-x="1470" 
d="M1216 1792h-273v-13.5v-12.5q0 -81 -48.5 -123t-150.5 -42q-101 0 -149.5 41.5t-48.5 123.5v12.5v13.5h-274q-2 -18 -2.5 -29.5t-0.5 -19.5q0 -177 119 -267.5t356 -90.5q238 0 356 90.5t118 267.5v20t-2 29zM-36 1028h1561l-19 233h-1561zM485 659v448h-332v-449
q0 -236 88.5 -388t260.5 -225.5t422 -73.5q88 0 171.5 10t155.5 30l30 263q-74 -21 -162.5 -33.5t-173.5 -12.5q-154 0 -256.5 43t-153 138t-50.5 250zM1328 865v232h-332v-226q0 -108 -48 -152.5t-158 -44.5h-16.5h-15.5v-241q27 -5 61 -8t65 -3q230 0 337 107.5t107 335.5
z" />
    <glyph glyph-name="vowelShortE.dv" unicode="&#x90e;" horiz-adv-x="1470" 
d="M472 1822v12.5v13.5h-281q-9 -27 -13.5 -55.5t-4.5 -58.5q0 -150 118 -233t362 -83h183q102 0 138 -36t36 -114v-53h293v70q0 184 -99.5 281.5t-340.5 97.5h-166q-131 0 -178 35t-47 123zM-36 1028h1561l-19 233h-1561zM485 659v448h-332v-449q0 -236 88.5 -388
t260.5 -225.5t422 -73.5q88 0 171.5 10t155.5 30l30 263q-74 -21 -162.5 -33.5t-173.5 -12.5q-154 0 -256.5 43t-153 138t-50.5 250zM1328 865v232h-332v-226q0 -108 -48 -152.5t-158 -44.5h-16.5h-15.5v-241q27 -5 61 -8t65 -3q230 0 337 107.5t107 335.5z" />
    <glyph glyph-name="vowelE.dv" unicode="&#x90f;" horiz-adv-x="1470" 
d="M-36 1028h1561l-19 233h-1561zM485 659v448h-332v-449q0 -236 88.5 -388t260.5 -225.5t422 -73.5q88 0 171.5 10t155.5 30l30 263q-74 -21 -162.5 -33.5t-173.5 -12.5q-154 0 -256.5 43t-153 138t-50.5 250zM1328 865v232h-332v-226q0 -108 -48 -152.5t-158 -44.5h-16.5
h-15.5v-241q27 -5 61 -8t65 -3q230 0 337 107.5t107 335.5z" />
    <glyph glyph-name="vowelAi.dv" unicode="&#x910;" horiz-adv-x="1470" 
d="M-36 1028h1561l-19 233h-1561zM485 659v448h-332v-449q0 -236 88.5 -388t260.5 -225.5t422 -73.5q88 0 171.5 10t155.5 30l30 263q-74 -21 -162.5 -33.5t-173.5 -12.5q-154 0 -256.5 43t-153 138t-50.5 250zM1328 865v232h-332v-226q0 -108 -48 -152.5t-158 -44.5h-16.5
h-15.5v-241q27 -5 61 -8t65 -3q230 0 337 107.5t107 335.5zM177 1798v-36l242 -188q76 -59 137.5 -104t122 -80t130 -63.5t160.5 -56.5v-55h317v38q-38 31 -105 85t-147.5 119.5t-162 131.5t-149.5 121.5t-107 87.5h-438z" />
    <glyph glyph-name="vowelChandraO.dv" unicode="&#x911;" horiz-adv-x="2719" 
d="M2546 0v1101h-331v-1101h331zM2774 1028l-19 233h-767l19 -233h767zM2097 1028l-19 233h-759l19 -233h759zM1538 0h332v1107h-332v-1107zM69 360l21 -267q102 -45 230.5 -68.5t292.5 -23.5q303 0 443 80.5t140 210.5v7q0 65 -31 116.5t-111 91.5t-226 71l-8 109
q133 5 213 39.5t115 90.5t35 124v11q0 93 -58.5 166.5t-183.5 116.5t-326 43q-141 0 -259.5 -21t-215.5 -58l-23 -263q108 44 223.5 67t237.5 23q154 0 214 -34.5t60 -91.5v-4q0 -42 -28 -69.5t-100.5 -42t-206.5 -18.5l-215 -4v-234l233 -7q126 -3 198 -17.5t102.5 -42
t30.5 -70.5v-5q0 -42 -29.5 -71.5t-96 -45t-177.5 -15.5q-134 0 -259.5 28.5t-234.5 77.5zM808 708v-141l190 -52l8 19q49 -14 98.5 -26t106.5 -18.5t129 -6.5h326v243h-353q-68 0 -120.5 -2t-98 -6t-94.5 -9l-1 13zM2524 1792h-273v-13.5v-12.5q0 -81 -48.5 -123
t-150.5 -42q-101 0 -149.5 41.5t-48.5 123.5v12.5v13.5h-274q-2 -18 -2.5 -29.5t-0.5 -19.5q0 -177 119 -267.5t356 -90.5q238 0 356 90.5t118 267.5v20t-2 29z" />
    <glyph glyph-name="vowelShortO.dv" unicode="&#x912;" horiz-adv-x="2719" 
d="M1625 1822q0 2 -0.5 12.5t-0.5 13.5h-280q-9 -27 -13.5 -55.5t-4.5 -58.5q0 -150 118 -233t361 -83h252q102 0 138 -36t36 -114v-53h293v70q0 184 -99 281.5t-341 97.5h-234q-131 0 -178 35.5t-47 122.5zM2097 1028l-19 233h-759l19 -233h759zM1538 0h332v1107h-332
v-1107zM69 360l21 -267q102 -45 230.5 -68.5t292.5 -23.5q303 0 443 80.5t140 210.5v7q0 65 -31 116.5t-111 91.5t-226 71l-8 109q133 5 213 39.5t115 90.5t35 124v11q0 93 -58.5 166.5t-183.5 116.5t-326 43q-141 0 -259.5 -21t-215.5 -58l-23 -263q108 44 223.5 67
t237.5 23q154 0 214 -34.5t60 -91.5v-4q0 -42 -28 -69.5t-100.5 -42t-206.5 -18.5l-215 -4v-234l233 -7q126 -3 198 -17.5t102.5 -42t30.5 -70.5v-5q0 -42 -29.5 -71.5t-96 -45t-177.5 -15.5q-134 0 -259.5 28.5t-234.5 77.5zM808 708v-141l190 -52l8 19q49 -14 98.5 -26
t106.5 -18.5t129 -6.5h326v243h-353q-68 0 -120.5 -2t-98 -6t-94.5 -9l-1 13zM2546 0v1101h-331v-1101h331zM2774 1028l-19 233h-768l19 -233h768z" />
    <glyph glyph-name="vowelO.dv" unicode="&#x913;" horiz-adv-x="2719" 
d="M1407 1798v-37l242 -187q76 -59 137.5 -104t122 -80t130 -64t160.5 -56v-55h316v37q-37 31 -104 85.5t-147.5 120t-162 131.5t-149.5 121t-108 88h-437zM2547 0v1101h-332v-1101h332zM2774 1028l-19 233h-767l19 -233h767zM2097 1028l-19 233h-759l19 -233h759zM1538 0
h332v1107h-332v-1107zM69 360l21 -267q102 -45 230.5 -68.5t292.5 -23.5q303 0 443 80.5t140 210.5v7q0 65 -31 116.5t-111 91.5t-226 71l-8 109q133 5 213 39.5t115 90.5t35 124v11q0 93 -58.5 166.5t-183.5 116.5t-326 43q-141 0 -259.5 -21t-215.5 -58l-23 -263
q108 44 223.5 67t237.5 23q154 0 214 -34.5t60 -91.5v-4q0 -42 -28 -69.5t-100.5 -42t-206.5 -18.5l-215 -4v-234l233 -7q126 -3 198 -17.5t102.5 -42t30.5 -70.5v-5q0 -42 -29.5 -71.5t-96 -45t-177.5 -15.5q-134 0 -259.5 28.5t-234.5 77.5zM808 708v-141l190 -52l8 19
q49 -14 98.5 -26t106.5 -18.5t129 -6.5h326v243h-353q-68 0 -120.5 -2t-98 -6t-94.5 -9l-1 13z" />
    <glyph glyph-name="vowelAu.dv" unicode="&#x914;" horiz-adv-x="2719" 
d="M1717 1669h-443v-41l292 -159q71 -39 136.5 -68.5t138 -52t160.5 -41t202 -35.5v-57h316v33l-350 678h-369v-28l123 -171q44 -62 88 -112t97.5 -98.5t126.5 -107.5l-5 -9zM2546 0v1101h-331v-1101h331zM2774 1028l-19 233h-767l19 -233h767zM2097 1028l-19 233h-759
l19 -233h759zM1538 0h332v1107h-332v-1107zM69 360l21 -267q102 -45 230.5 -68.5t292.5 -23.5q303 0 443 80.5t140 210.5v7q0 65 -31 116.5t-111 91.5t-226 71l-8 109q133 5 213 39.5t115 90.5t35 124v11q0 93 -58.5 166.5t-183.5 116.5t-326 43q-141 0 -259.5 -21
t-215.5 -58l-23 -263q108 44 223.5 67t237.5 23q154 0 214 -34.5t60 -91.5v-4q0 -42 -28 -69.5t-100.5 -42t-206.5 -18.5l-215 -4v-234l233 -7q126 -3 198 -17.5t102.5 -42t30.5 -70.5v-5q0 -42 -29.5 -71.5t-96 -45t-177.5 -15.5q-134 0 -259.5 28.5t-234.5 77.5zM808 708
v-141l190 -52l8 19q49 -14 98.5 -26t106.5 -18.5t129 -6.5h326v243h-353q-68 0 -120.5 -2t-98 -6t-94.5 -9l-1 13z" />
    <glyph glyph-name="Ka.dv" unicode="&#x915;" horiz-adv-x="2145" 
d="M-36 1028h2234l-19 233h-2234zM98 501q0 -184 119.5 -289t328.5 -105q102 0 174 25.5t116.5 71t62.5 107.5h32l-13 201q-20 -69 -84 -109t-177 -40q-116 0 -169.5 34.5t-53.5 105.5v7q0 69 53.5 105t167.5 36q40 0 72 -3.5t64 -10.5l-18 237q-46 13 -97.5 19.5
t-113.5 6.5q-224 0 -344 -103t-120 -290v-6zM2052 503q0 174 -109.5 285.5t-315.5 111.5q-104 0 -179.5 -26.5t-122.5 -75.5t-68 -115h-31l12 -201q19 74 86 118t184 44q111 0 159.5 -35.5t48.5 -105.5v-7q0 -69 -51 -104.5t-163 -35.5q-37 0 -69 4t-66 11l19 -240
q41 -11 91.5 -17.5t116.5 -6.5q228 0 343 103.5t115 285.5v7zM1243 1101h-331v-1101h331v1101z" />
    <glyph glyph-name="Kha.dv" unicode="&#x916;" horiz-adv-x="2134" 
d="M1961 1101h-331v-1101h331v1101zM1541 1028h647l-18 233h-647zM-28 1028h2186l-19 233h-2186zM858 813q0 83 -32.5 147.5t-94.5 113.5h-354q73 -39 110 -88.5t37 -117.5v-6q0 -92 -82 -141.5t-271 -49.5h-88l117 -223l106 1q190 3 312 46.5t181 123t59 186.5v8zM1493 23
l157 247v45q-88 -45 -210 -69.5t-255 -24.5q-163 0 -287.5 28.5t-215 80t-151.5 121.5l-39 46l-409 174v-251l148 -17l28 -45q77 -124 195 -210.5t284.5 -132t388.5 -45.5q97 0 195 13.5t171 39.5zM1337 330q108 0 179.5 27t105.5 78h26l-8 186q-25 -35 -75.5 -54
t-134.5 -19q-88 0 -128.5 22.5t-40.5 66.5v3q0 44 38.5 64.5t123.5 20.5q33 0 61.5 -2t59.5 -6l-19 203q-46 9 -88 13t-96 4q-189 0 -289 -77t-100 -222v-4q0 -143 100.5 -223.5t284.5 -80.5z" />
    <glyph glyph-name="Ga.dv" unicode="&#x917;" horiz-adv-x="1589" 
d="M1416 1101h-331v-1101h331v1101zM997 1028h647l-19 233h-647zM-36 1028h1646l-19 233h-1646zM632 1057h-367q91 -54 133 -128t42 -159v-7q0 -70 -26 -116.5t-82.5 -70.5t-147.5 -24q-36 0 -67.5 2.5t-58.5 7.5l24 -271q42 -9 90 -14.5t108 -5.5q162 0 273.5 51.5
t168.5 149.5t57 235v10q0 103 -37 192t-110 148z" />
    <glyph glyph-name="Gha.dv" unicode="&#x918;" horiz-adv-x="1707" 
d="M1534 1101h-331v-1101h331v1101zM1114 1028h648l-19 233h-647zM-40 1028h1771l-19 233h-1771zM468 697v-9q-127 -9 -203 -44t-109.5 -92.5t-33.5 -131.5v-7q0 -159 146 -246t423 -87q154 0 255.5 30t160.5 83.5t85 124.5h29l-12 193q-31 -75 -131.5 -121.5t-283.5 -46.5
q-177 0 -252.5 27.5t-75.5 85.5v4q0 36 27 58.5t92 34t179 14.5l176 4v237l-169 7q-125 5 -190 22t-88 44t-23 63v4q0 40 26.5 71t84.5 48h-361q-49 -24 -71 -60.5t-22 -81.5v-5q0 -58 32.5 -104t107.5 -76.5t201 -42.5z" />
    <glyph glyph-name="Nga.dv" unicode="&#x919;" horiz-adv-x="1867" 
d="M1645 377q106 0 161 46t55 128v9q0 81 -55 127.5t-161 46.5q-108 0 -162.5 -46.5t-54.5 -127.5v-9q0 -82 54.5 -128t162.5 -46zM1919 1028l-19 233h-537l20 -233h536zM853 1028h645l-19 233h-645zM1278 1101h-320v-201h320v201zM1508 1028l-19 233h-1538l19 -233h1538z
M957 1108v-388q22 -2 66 -7.5t95 -12t95 -12t65 -8.5v428h-321zM100 307l25 -257q109 -47 272.5 -77t364.5 -30q238 0 370.5 40t186 113t53.5 171v7q0 92 -47 160.5t-154 107.5t-285 39q-117 0 -207 -12t-178 -32q-26 11 -40 27.5t-14 41.5v3q0 31 27.5 53.5t100.5 34.5
t212 12q131 0 251 -7t240 -22v196q-158 23 -296.5 32.5t-287.5 9.5q-216 0 -342 -36t-180.5 -104t-54.5 -163v-7q0 -115 80.5 -190.5t229.5 -110.5q84 23 178 38t221 15q86 0 132.5 -10.5t65 -29t18.5 -45.5v-3q0 -32 -25.5 -53.5t-96.5 -32.5t-210 -11q-163 0 -316.5 35
t-293.5 97z" />
    <glyph glyph-name="Ca.dv" unicode="&#x91a;" horiz-adv-x="1767" 
d="M1594 1101h-331v-1101h331v1101zM1175 1028h647l-19 233h-647zM-36 1028h1827l-18 233h-1828zM1074 865h-1006v-246h262l151 5h593v241zM782 83q150 0 246 31.5t149 85.5t74 121h29l-9 203q-24 -82 -115 -130t-261 -48q-163 0 -232 35.5t-69 102.5v4q0 44 26.5 71
t82.5 41.5t143 16.5l228 7v53l-639 1v-63q-95 -22 -139.5 -75.5t-44.5 -133.5v-7q0 -145 140.5 -230.5t390.5 -85.5z" />
    <glyph glyph-name="Cha.dv" unicode="&#x91b;" horiz-adv-x="1884" 
d="M1133 1028h644l-18 233h-645zM1558 1101h-321v-201h321v201zM1910 1261h-1981l19 -233h1981zM1234 856h324v251h-324v-251zM902 -53q301 0 497 74t292 203t96 295v11q0 173 -105 281.5t-342 108.5q-202 0 -307.5 -76t-105.5 -219v-5q0 -130 84 -200.5t230 -70.5
q94 0 154 31t86 83h27l-3 125q-23 -23 -65 -35t-95 -12q-68 0 -101.5 21t-33.5 64v3q0 41 33 63.5t100 22.5q78 0 114.5 -35.5t36.5 -101.5v-21l6 -29v-14q0 -90 -61.5 -160.5t-187.5 -111t-322 -40.5q-238 0 -351.5 42t-113.5 123v3q0 41 24 69t80 44t151 21l86 4v245
l-83 5q-94 6 -150 25t-80.5 52t-24.5 78v6q0 44 24 82t77 57h-361q-41 -26 -61.5 -67.5t-20.5 -91.5v-5q0 -97 76 -167t264 -91v-10q-191 -17 -267.5 -91.5t-76.5 -191.5v-7q0 -186 195 -287.5t586 -101.5z" />
    <glyph glyph-name="Ja.dv" unicode="&#x91c;" horiz-adv-x="1834" 
d="M1662 1101h-331v-1101h331v1101zM1242 1028h647l-19 233h-647zM1789 1028l-19 233h-1825l19 -233h1825zM1395 834h-1131v-237l435 -1l372 -9h324v247zM890 656h-626v-59l221 -7q104 -3 160.5 -22.5t79 -52.5t22.5 -79v-6q0 -68 -55 -106.5t-182 -38.5q-116 0 -223.5 36
t-208.5 97l16 -274q88 -54 206.5 -85.5t272.5 -31.5q257 0 385 84.5t128 225.5v6q0 85 -47 145t-149 94v74z" />
    <glyph glyph-name="Jha.dv" unicode="&#x91d;" horiz-adv-x="2118" 
d="M1945 1101h-331v-1101h331v1101zM1525 1028h648l-19 233h-647zM2142 1028l-19 233h-2172l19 -233h2172zM930 1104v-383l320 -39l1 422h-321zM1673 527h-561l95 -160q65 -41 136 -61t164 -20h166v241zM1078 -400v20l-143 129q-47 42 -90.5 74t-96 61t-126.5 59v67l-497 38
l194 -64l361 -384h398zM100 307l25 -259l301 -52q88 -28 161.5 -41t157.5 -13q175 0 289 23t179.5 66t92.5 103t27 133v7q0 89 -47 158.5t-152 110t-279 40.5q-109 0 -191.5 -12t-166.5 -32q-23 10 -36.5 26t-13.5 42v4q0 31 26.5 53t99.5 34t211 12q121 0 234 -7.5
t232 -20.5v199q-159 22 -286.5 30.5t-270.5 8.5q-213 0 -339.5 -37t-181.5 -104.5t-55 -162.5v-7q0 -113 74.5 -187.5t223.5 -111.5q82 24 173.5 37.5t214.5 13.5q124 0 165.5 -22.5t41.5 -63.5v-2q0 -32 -23 -54t-89.5 -33.5t-199.5 -11.5q-105 0 -207 16t-200.5 46
t-190.5 71z" />
    <glyph glyph-name="Nya.dv" unicode="&#x91e;" horiz-adv-x="1837" 
d="M-36 1028h1898l-19 233h-1898zM165 864l-26 -255q76 18 153 27.5t150 9.5q116 0 181 -17t92 -51t27 -83v-2q0 -76 -65.5 -115t-233.5 -39q-91 0 -179.5 16.5t-157.5 41.5l19 -255q70 -28 167 -44.5t225 -16.5q284 0 418.5 101.5t134.5 310.5v4q0 200 -136.5 302.5
t-417.5 102.5q-97 0 -184 -9.5t-167 -28.5zM1011 625v-251h377v251h-377zM1664 1101h-331v-1101h331v1101zM1245 1028h647l-19 233h-647z" />
    <glyph glyph-name="Tta.dv" unicode="&#x91f;" horiz-adv-x="1424" 
d="M828 1028h644l-19 233h-644zM1252 1101h-320v-201h320v201zM-27 1028h1516l-19 233h-1516zM931 695l321 -118v530h-321v-412zM1284 39l24 272q-101 -46 -230 -72t-272 -26q-191 0 -276.5 49.5t-85.5 146.5v5q0 96 85 143t284 47q73 0 138.5 -2.5t137 -8.5t163.5 -16v238
q-154 20 -276.5 26.5t-235.5 6.5q-323 0 -481 -105t-158 -324v-11q0 -221 169.5 -337.5t513.5 -116.5q160 0 281 21.5t219 63.5z" />
    <glyph glyph-name="Ttha.dv" unicode="&#x920;" horiz-adv-x="1606" 
d="M771 1028h644l-19 233h-644zM1195 1101h-320v-201h320v201zM-46 1261l19 -233h1685l-19 233h-1685zM874 1107v-446l321 -29v475h-321zM1141 816l-195 -210q110 -17 165.5 -64t55.5 -127v-5q0 -99 -91 -148t-268 -49q-185 0 -274.5 48.5t-89.5 146.5v6q0 97 88 144t275 47
q81 0 143.5 -6t121 -18.5t123.5 -31.5v262q-135 23 -237.5 31t-205.5 8q-327 0 -489 -110.5t-162 -326.5v-10q0 -217 182 -333t521 -116q360 0 532 116t172 329v11q0 96 -41.5 174t-123 137t-202.5 95z" />
    <glyph glyph-name="Dda.dv" unicode="&#x921;" horiz-adv-x="1463" 
d="M853 1028h645l-19 233h-645zM1278 1101h-320v-201h320v201zM1508 1028l-19 233h-1538l19 -233h1538zM957 1108v-388q22 -2 66 -7.5t95 -12t95 -12t65 -8.5v428h-321zM100 307l25 -257q109 -47 272.5 -77t364.5 -30q238 0 370.5 40t186 113t53.5 171v7q0 92 -47 160.5
t-154 107.5t-285 39q-117 0 -207 -12t-178 -32q-26 11 -40 27.5t-14 41.5v3q0 31 27.5 53.5t100.5 34.5t212 12q131 0 251 -7t240 -22v196q-158 23 -296.5 32.5t-287.5 9.5q-216 0 -342 -36t-180.5 -104t-54.5 -163v-7q0 -115 80.5 -190.5t229.5 -110.5q84 23 178 38t221 15
q86 0 132.5 -10.5t65 -29t18.5 -45.5v-3q0 -32 -25.5 -53.5t-96.5 -32.5t-210 -11q-163 0 -316.5 35t-293.5 97z" />
    <glyph glyph-name="Ddha.dv" unicode="&#x922;" horiz-adv-x="1572" 
d="M942 1028h644l-19 233h-644zM1367 1101h-321v-201h321v201zM-28 1028h1657l-19 233h-1656zM1046 1108v-357l321 -110v467h-321zM101 436v-11q0 -234 200.5 -359.5t556.5 -125.5q316 0 470.5 86t154.5 231v9q0 127 -107 198.5t-322 71.5q-208 0 -306.5 -53.5t-98.5 -144.5
v-4q0 -63 39 -98.5t127 -59.5v-20l192 3q-45 14 -68.5 36t-23.5 50v4q0 35 35 54.5t103 19.5q70 0 100.5 -18.5t30.5 -50.5v-2q0 -43 -64.5 -66t-234.5 -23q-245 0 -350.5 67.5t-105.5 181.5v12q0 120 111.5 182t362.5 62q84 0 155.5 -2t145.5 -8t163 -17v222
q-144 19 -277 27.5t-261 8.5q-372 0 -550 -115t-178 -348z" />
    <glyph glyph-name="Nna.dv" unicode="&#x923;" horiz-adv-x="2082" 
d="M1909 1101h-331v-1101h331v1101zM1490 1028h647l-19 233h-647zM-34 1028h2140l-18 233h-2140zM710 223q277 0 414 118t137 367v392h-326v-395q0 -117 -55.5 -172t-169.5 -55q-116 0 -171 55t-55 172v395h-325v-392q0 -249 137 -367t414 -118z" />
    <glyph glyph-name="Ta.dv" unicode="&#x924;" horiz-adv-x="1568" 
d="M1395 1101h-331v-1101h331v1101zM976 1028h647l-19 233h-647zM-35 1028h1640l-19 233h-1640zM309 0h370q-110 111 -169.5 204t-59.5 185q0 88 56.5 133t175.5 45h540v252h-591q-270 0 -397.5 -109t-127.5 -290q0 -119 52 -223t151 -197z" />
    <glyph glyph-name="Tha.dv" unicode="&#x925;" horiz-adv-x="1801" 
d="M1629 1101h-331v-1101h331v1101zM1209 1028h647l-19 233h-647zM1162 1261l20 -233h644l-19 233h-645zM164 876h299v42q0 66 37.5 99.5t119.5 33.5q74 0 111.5 -33.5t37.5 -89.5v-7q0 -56 -35.5 -96.5t-122 -62t-239.5 -21.5h-247l129 -219h248q304 0 448 100t144 286v9
q0 176 -122 276.5t-358 100.5q-235 0 -355 -80.5t-120 -223.5q0 -33 6.5 -61t18.5 -53zM111 596v-7q0 -240 166 -367.5t482 -127.5q160 0 267.5 32.5t170 91.5t88.5 136h30l-12 209q-35 -100 -151.5 -153.5t-307.5 -53.5q-215 0 -312 44t-97 141v140l-310 60
q-8 -41 -11 -76.5t-3 -68.5z" />
    <glyph glyph-name="Da.dv" unicode="&#x926;" horiz-adv-x="1503" 
d="M899 1028h645l-19 233h-645zM1324 1101h-320v-201h320v201zM-35 1028h1593l-19 233h-1593zM993 732l331 -104v479h-331v-375zM1345 486h-336v-269l31 -25l48 -338h327l-70 378v254zM737 285q-136 0 -214.5 45.5t-78.5 129.5v6q0 92 84.5 137t284.5 45q130 0 250.5 -5
t260.5 -15v213q-169 22 -308 34t-274 12q-325 0 -483 -107t-158 -313v-10q0 -132 70.5 -228.5t200 -148.5t304.5 -52q137 0 231 24t156 70l-38 225q-52 -30 -122.5 -46t-165.5 -16z" />
    <glyph glyph-name="Dha.dv" unicode="&#x927;" horiz-adv-x="1792" 
d="M1619 1101h-331v-1101h331v1101zM1200 1028h647l-19 233h-647zM1155 1028h661l-18 233h-662zM106 405v-6q0 -153 149 -237.5t465 -84.5q168 0 280.5 28t179 81t96.5 126h30l-12 207q-33 -85 -146 -132.5t-330 -47.5q-149 0 -229 12.5t-110 35t-30 54.5v3q0 22 11.5 38
t42 27.5t84.5 18t139 7.5l245 4v236l-223 6q-134 3 -209 18t-106 46t-31 81v6q0 55 43 87t127 32t123 -30t39 -92v-27h303q7 19 11.5 42.5t4.5 48.5q0 136 -113.5 218.5t-366.5 82.5q-264 0 -385 -89.5t-121 -232.5v-7q0 -88 41 -150t128.5 -98t226.5 -48v-10
q-139 -6 -216.5 -39.5t-109 -88.5t-31.5 -126z" />
    <glyph glyph-name="Na.dv" unicode="&#x928;" horiz-adv-x="1537" 
d="M1365 1101h-332v-1101h332v1101zM945 1028h647l-19 233h-647zM1562 1028l-19 233h-1606l19 -233h1606zM1172 762h-793v-254h793v254zM250 198h299v564h-294l-168 -102q7 -92 29.5 -173.5t56 -153t77.5 -135.5z" />
    <glyph glyph-name="NaNukta.dv" unicode="&#x929;" horiz-adv-x="1537" 
d="M1365 1101h-332v-1101h332v1101zM945 1028h647l-19 233h-647zM1562 1028l-19 233h-1606l19 -233h1606zM1172 762h-793v-254h793v254zM250 198h299v564h-294l-168 -102q7 -92 29.5 -173.5t56 -153t77.5 -135.5zM387 -235q91 0 138.5 44.5t47.5 118.5v3.5v2.5
q0 75 -47.5 120t-138.5 45t-139.5 -44.5t-48.5 -120.5v-3v-3q0 -74 48.5 -118.5t139.5 -44.5z" />
    <glyph glyph-name="Pa.dv" unicode="&#x92a;" horiz-adv-x="1558" 
d="M1386 1101h-332v-1101h332v1101zM966 1028h647l-19 233h-647zM-36 1028h1619l-19 233h-1619zM644 242q177 0 271 66.5t127 172.5h29l-13 198q-20 -74 -94.5 -124.5t-203.5 -50.5q-139 0 -208.5 62.5t-69.5 220.5v312h-331v-366q0 -250 132 -370.5t361 -120.5z" />
    <glyph glyph-name="Pha.dv" unicode="&#x92b;" horiz-adv-x="2193" 
d="M-36 1028h2283l-19 233h-2283zM592 241q98 0 167 26t111.5 72t61.5 105h28l-11 187q-22 -56 -79.5 -91t-153.5 -35q-116 0 -175 51t-59 182v361h-331v-397q0 -243 118.5 -352t322.5 -109zM1552 643q112 0 162.5 -39.5t50.5 -108.5v-4q0 -74 -50.5 -111.5t-155.5 -37.5
q-38 0 -72 5t-64 14l20 -246q41 -11 91.5 -17.5t110.5 -6.5q221 0 338.5 102t117.5 293v9q0 179 -113.5 291t-320.5 112q-103 0 -179.5 -26.5t-126.5 -74t-75 -109.5h-29l7 -199q33 70 108 112t180 42zM1276 1101h-332v-1101h332v1101z" />
    <glyph glyph-name="Ba.dv" unicode="&#x92c;" horiz-adv-x="1671" 
d="M1498 1101h-331v-1101h331v1101zM1079 1028h647l-19 233h-647zM-34 1028h1661l-19 233h-1661zM400 672l614 -444l108 125l-577 421zM98 492q0 -199 155.5 -308t427.5 -109q147 0 243 29.5t151.5 80t81.5 113.5h29l-10 224q-32 -95 -136.5 -151.5t-285.5 -56.5
q-168 0 -252.5 44.5t-84.5 131.5v7q0 88 81.5 133t244.5 45q78 0 149.5 -7t139.5 -22l-25 226q-82 17 -160 25t-177 8q-280 0 -426 -104.5t-146 -299.5v-9z" />
    <glyph glyph-name="Bha.dv" unicode="&#x92d;" horiz-adv-x="1596" 
d="M1423 1101h-331v-1101h331v1101zM1004 1028h647l-19 233h-647zM924 1028h627l-19 233h-628zM375 414h834v248h-834v-248zM254 162h332v490h-329l-161 -86q8 -82 30 -153t55 -133t73 -118zM257 532h329v348q0 135 -39.5 218.5t-129 123t-242.5 39.5h-229l19 -233h148
q84 0 114 -33.5t30 -121.5v-341z" />
    <glyph glyph-name="Ma.dv" unicode="&#x92e;" horiz-adv-x="1622" 
d="M1449 1101h-331v-1101h331v1101zM1030 1028h647l-19 233h-647zM1646 1028l-19 233h-1682l19 -233h1682zM1238 662h-858v-248h858v248zM586 1107h-328v-582h328v582zM256 152h330v498h-327l-159 -87q8 -83 30 -155.5t54.5 -136t71.5 -119.5z" />
    <glyph glyph-name="Ya.dv" unicode="&#x92f;" horiz-adv-x="1665" 
d="M1492 1101h-331v-1101h331v1101zM1073 1028h647l-19 233h-647zM-55 1261l18 -233h1726l-19 233h-1725zM723 1082h-348q73 -39 100 -84t27 -95v-4q0 -51 -29.5 -86.5t-99.5 -54t-193 -18.5h-71l99 -205l166 6q245 8 357 84.5t112 211.5v7q0 72 -30 130.5t-90 107.5z
M98 599v-8q0 -228 154.5 -351.5t436.5 -123.5q210 0 319 68t142 165h28l-11 200q-25 -77 -120 -123.5t-277 -46.5q-123 0 -201.5 22t-115.5 64t-37 98v112l-307 65q-6 -41 -8.5 -74t-2.5 -67z" />
    <glyph glyph-name="Ra.dv" unicode="&#x930;" horiz-adv-x="1121" 
d="M1185 1028l-18 233h-1222l19 -233h1221zM1011 0v18l-215 203q-56 53 -103.5 89.5t-96.5 65.5t-112 59v104l-409 133v-259l143 -16l359 -397h434zM856 1090h-343q81 -54 116 -109t35 -119v-6q0 -93 -94 -138.5t-323 -45.5h-172l200 -244l132 2q314 6 455 106t141 259v9
q0 86 -35.5 156.5t-111.5 129.5z" />
    <glyph glyph-name="RaNukta.dv" unicode="&#x931;" horiz-adv-x="1121" 
d="M1185 1028l-18 233h-1222l19 -233h1221zM1011 0v18l-215 203q-56 53 -103.5 89.5t-96.5 65.5t-112 59v104l-409 133v-259l143 -16l359 -397h434zM856 1090h-343q81 -54 116 -109t35 -119v-6q0 -93 -94 -138.5t-323 -45.5h-172l200 -244l132 2q314 6 455 106t141 259v9
q0 86 -35.5 156.5t-111.5 129.5zM219 -275q91 0 138.5 44.5t47.5 118.5v3v3q0 75 -47.5 120t-138.5 45t-139.5 -44.5t-48.5 -120.5v-3v-3q0 -74 48.5 -118.5t139.5 -44.5z" />
    <glyph glyph-name="La.dv" unicode="&#x932;" horiz-adv-x="1913" 
d="M1740 1101h-331v-1101h331v1101zM1321 1028h647l-19 233h-647zM-35 1028h1971l-19 233h-1971zM581 860q-224 0 -349.5 -113t-125.5 -307q0 -132 58.5 -240.5t165.5 -199.5h383v6q-126 111 -194.5 206.5t-68.5 207.5q0 86 45.5 134t129.5 48q81 0 118.5 -43t42.5 -129
l11 -197h312l11 199q5 86 43 127t113 41q55 0 91.5 -25.5t52.5 -73.5l3 305q-29 24 -72 37.5t-104 13.5q-114 0 -192.5 -52.5t-105.5 -149.5h-9q-30 97 -117 151t-242 54z" />
    <glyph glyph-name="Lla.dv" unicode="&#x933;" horiz-adv-x="2002" 
d="M1159 1028h644l-19 233h-644zM1583 1101h-320v-201h320v201zM2055 1028l-19 233h-2089l19 -233h2089zM1584 810v292h-322v-292h322zM1903 407v10q0 197 -128 320.5t-390 123.5q-202 0 -319.5 -76.5t-155.5 -218.5l-42 -32l-38 -133q-25 -87 -68.5 -131t-131.5 -44
q-90 0 -141 49t-51 139v7q0 88 50 138.5t152 50.5q87 0 137 -37.5t77 -104.5h36l57 174h-20q-30 96 -117 157t-247 61q-214 0 -336.5 -113.5t-122.5 -316.5v-12q0 -210 139 -327t380 -117q209 0 319 76t154 211l30 8l47 159q26 88 74 135t137 47t137 -48t48 -140v-7
q0 -87 -48.5 -137t-146.5 -50q-88 0 -144 42.5t-77 108.5h-65l-28 -173h26q22 -66 70 -118.5t124 -82t181 -29.5q220 0 331 118t111 313z" />
    <glyph glyph-name="LlaNukta.dv" unicode="&#x934;" horiz-adv-x="2002" 
d="M1159 1028h644l-19 233h-644zM1583 1101h-320v-201h320v201zM2055 1028l-19 233h-2089l19 -233h2089zM1584 810v292h-322v-292h322zM1903 407v10q0 197 -128 320.5t-390 123.5q-202 0 -319.5 -76.5t-155.5 -218.5l-42 -32l-38 -133q-25 -87 -68.5 -131t-131.5 -44
q-90 0 -141 49t-51 139v7q0 88 50 138.5t152 50.5q87 0 137 -37.5t77 -104.5h36l57 174h-20q-30 96 -117 157t-247 61q-214 0 -336.5 -113.5t-122.5 -316.5v-12q0 -210 139 -327t380 -117q209 0 319 76t154 211l30 8l47 159q26 88 74 135t137 47t137 -48t48 -140v-7
q0 -87 -48.5 -137t-146.5 -50q-88 0 -144 42.5t-77 108.5h-65l-28 -173h26q22 -66 70 -118.5t124 -82t181 -29.5q220 0 331 118t111 313zM1000 -418q91 0 139 44.5t48 118.5v3v3q0 74 -48 119t-139 45q-90 0 -139 -44.5t-49 -119.5v-3v-3q0 -74 49 -118.5t139 -44.5z" />
    <glyph glyph-name="Va.dv" unicode="&#x935;" horiz-adv-x="1614" 
d="M1442 1101h-331v-1101h331v1101zM1022 1028h647l-19 233h-647zM-34 1028h1673l-20 233h-1672zM98 490q0 -189 144 -296t405 -107q133 0 225 26.5t147.5 76.5t78.5 119h30l-10 200q-24 -73 -119 -116.5t-262 -43.5q-157 0 -226.5 37.5t-69.5 107.5v6q0 73 70.5 109
t226.5 36q63 0 122.5 -5t111.5 -15l-22 242q-69 18 -141 25.5t-160 7.5q-266 0 -408.5 -101.5t-142.5 -299.5v-9z" />
    <glyph glyph-name="Sha.dv" unicode="&#x936;" horiz-adv-x="1979" 
d="M1806 1101h-331v-1101h331v1101zM1386 1028h647l-18 233h-648zM1303 1261l19 -233h681l-19 233h-681zM1169 0v22l-210 164q-52 42 -105 74.5t-111.5 59.5t-129.5 50v122l-505 127v-255l193 -19l395 -345h473zM1224 840q0 205 -142.5 329.5t-411.5 124.5q-245 0 -379 -97
t-134 -262v-4q0 -49 14.5 -94.5t41.5 -87.5h318q-21 32 -32 63.5t-11 66.5v3q0 72 50.5 114.5t143.5 42.5q98 0 148.5 -48t50.5 -133v-6q0 -78 -45 -133.5t-146 -84t-271 -28.5q-86 0 -154.5 3t-156.5 10l172 -244q52 -1 130.5 -1.5t146.5 -0.5q324 1 495.5 119t171.5 339v9
z" />
    <glyph glyph-name="Ssa.dv" unicode="&#x937;" horiz-adv-x="1576" 
d="M1404 1101h-332v-1101h332v1101zM984 1028h647l-19 233h-647zM-36 1028h1637l-19 233h-1637zM659 241q116 0 197.5 29.5t131.5 81t72 117.5h28l-11 186q-31 -77 -104.5 -120.5t-208.5 -43.5q-142 0 -219.5 62t-77.5 210v336h-315v-368q0 -248 131 -369t376 -121zM360 946
q60 -59 122 -98t160 -91l439 -236l68 132q-45 33 -85 59t-84.5 51.5t-103.5 57.5l-443 244z" />
    <glyph glyph-name="Sa.dv" unicode="&#x938;" horiz-adv-x="1846" 
d="M1674 1101h-332v-1101h332v1101zM1254 1028h647l-19 233h-647zM1871 1028l-19 233h-1907l19 -233h1907zM774 669l65 -249h564v249h-629zM972 0v16l-175 191q-51 57 -98 99.5t-97 76t-111 63.5v185l-416 41v-259l143 -15l323 -398h431zM775 1090h-368q96 -50 133.5 -106.5
t37.5 -124.5v-6q0 -94 -90.5 -137.5t-316.5 -43.5h-96l188 -239l114 5q281 11 411.5 103t130.5 254v10q0 83 -35 154t-109 131z" />
    <glyph glyph-name="Ha.dv" unicode="&#x939;" horiz-adv-x="1459" 
d="M859 1028h645l-19 233h-644zM1284 1101h-320v-201h320v201zM1513 1028l-18 233h-1545l19 -233h1544zM963 1092v-388l321 -47v435h-321zM292 388l199 101q-21 15 -33 34.5t-12 43.5v4q0 56 74 86.5t273 30.5q124 0 245 -8t246 -23v216q-148 22 -293.5 32t-283.5 10
q-318 0 -455 -77.5t-137 -219.5v-5q0 -77 48.5 -134t128.5 -91zM1179 -232l31 244q-84 -13 -176 -20.5t-182 -7.5q-195 0 -290 41t-95 120v7q0 70 73 106.5t220 36.5q150 0 211.5 -34.5t61.5 -105.5v-40h314q8 21 13.5 52t5.5 52q0 93 -59.5 164.5t-185 111.5t-325.5 40
q-134 0 -234.5 -19t-168.5 -48l-45 -21q-112 -50 -165 -125t-53 -174v-11q0 -132 86.5 -221.5t239.5 -135t354 -45.5q111 0 199.5 8t169.5 25z" />
    <glyph glyph-name="uni093A" unicode="&#x93a;" horiz-adv-x="0" 
d="M-487 1711v-483h294v483h-294z" />
    <glyph glyph-name="uni093B" unicode="&#x93b;" 
d="M504 0v1101h-331v-1101h331zM731 1028l-19 233h-767l19 -233h767zM188 1711v-483h295v483h-295z" />
    <glyph glyph-name="Nukta.dv" unicode="&#x93c;" horiz-adv-x="0" 
d="M-498 -333q90 0 138 44.5t48 118.5v2.5v3.5q0 75 -48 119.5t-138 44.5q-92 0 -140.5 -44.5t-48.5 -119.5v-3.5v-2.5q0 -74 48.5 -118.5t140.5 -44.5z" />
    <glyph glyph-name="Avagraha.dv" unicode="&#x93d;" horiz-adv-x="1386" 
d="M99 393l23 -288q117 -61 260.5 -95.5t323.5 -34.5q299 0 439 103t140 276v9q0 103 -45.5 182t-155.5 136.5t-305 96.5q-131 27 -200.5 48t-95.5 45.5t-26 57.5v4q0 42 39 64.5t129 22.5h578l-32 241h-567q-260 0 -373.5 -89.5t-113.5 -235.5v-7q0 -103 49.5 -174.5
t164 -122.5t311.5 -93q126 -27 191 -52t88.5 -53.5t23.5 -66.5v-4q0 -60 -66.5 -93.5t-196.5 -33.5q-159 0 -305.5 43t-277.5 114z" />
    <glyph glyph-name="matraA.dv" unicode="&#x93e;" 
d="M504 0v1101h-331v-1101h331zM731 1028l-19 233h-767l19 -233h767z" />
    <glyph glyph-name="matraI.dv" unicode="&#x93f;" 
d="M504 0v1101h-331v-1101h331zM731 1028l-19 233h-767l19 -233h767zM911 1787q-374 0 -556 -130.5t-182 -383.5v-56h327v46q0 131 105.5 199.5t340.5 68.5q231 0 474 -52.5t490 -161.5l6 2l-42 271q-137 62 -290.5 106t-322.5 67.5t-350 23.5z" />
    <glyph glyph-name="matraIi.dv" unicode="&#x940;" 
d="M504 0v1101h-331v-1101h331zM731 1028l-19 233h-767l19 -233h767zM-10 1803q-246 0 -367.5 -93.5t-121.5 -244.5q0 -25 3.5 -51t11.5 -56l301 -29v57q0 85 43.5 125.5t132.5 40.5q90 0 135 -44t45 -153v-124h321v120q0 228 -128.5 340t-375.5 112z" />
    <glyph glyph-name="matraU.dv" unicode="&#x941;" horiz-adv-x="0" 
d="M-882 -197h-342q126 -233 319 -352t483 -119q248 0 369.5 93.5t121.5 252.5v10q0 149 -108.5 247t-321.5 98q-83 0 -149.5 -12t-127.5 -34l-32 -241q64 24 127.5 39t129.5 15q96 0 136 -30.5t40 -80.5v-6q0 -53 -49 -83.5t-150 -30.5q-158 0 -262 57t-184 177z" />
    <glyph glyph-name="matraUu.dv" unicode="&#x942;" horiz-adv-x="0" 
d="M-237 -629l32 235q-48 -17 -97.5 -26t-105.5 -9q-90 0 -134 28t-44 84v5q0 55 47.5 85t143.5 30q114 0 193.5 -52t138 -154.5t106.5 -254.5h333q-67 206 -166 362.5t-249.5 244t-374.5 87.5q-230 0 -355.5 -94.5t-125.5 -253.5v-11q0 -106 56 -182t154.5 -116.5
t227.5 -40.5q67 0 122 7.5t98 25.5z" />
    <glyph glyph-name="matraRu.dv" unicode="&#x943;" horiz-adv-x="0" 
d="M-412 -647q111 0 201 17.5t162 53.5l23 247q-78 -37 -168.5 -57.5t-186.5 -20.5q-122 0 -174 29t-52 81v4q0 51 45.5 77t158.5 26h231v222h-286q-227 0 -344 -83t-117 -234v-13q0 -166 136 -257.5t371 -91.5z" />
    <glyph glyph-name="matraRuu.dv" unicode="&#x944;" horiz-adv-x="0" 
d="M-172 33h-298q-228 0 -335.5 -71.5t-107.5 -203.5v-7q0 -141 130.5 -215t359.5 -74q92 0 176 12.5t158 40.5l18 217q-79 -30 -164.5 -43.5t-181.5 -13.5q-115 0 -161 19t-46 55v3q0 38 42 55.5t150 17.5h260v208zM-485 -532l-250 80v-45q-83 -12 -125 -51t-42 -102v-7
q0 -108 118 -175.5t356 -67.5q108 0 193 15t154 45l17 219q-84 -31 -165 -46.5t-177 -15.5q-113 0 -160 21.5t-47 55.5v5q0 31 29.5 48.5t98.5 20.5z" />
    <glyph glyph-name="Chandra.dv" unicode="&#x945;" horiz-adv-x="0" 
d="M134 1792h-273v-13.5v-12.5q0 -81 -48.5 -123t-150.5 -42q-101 0 -149.5 41.5t-48.5 123.5v12v14h-274q-2 -18 -2.5 -29.5t-0.5 -19.5q0 -177 119 -267.5t356 -90.5q238 0 356 90.5t118 267.5q0 8 -0.5 20t-1.5 29z" />
    <glyph glyph-name="matraShortE.dv" unicode="&#x946;" horiz-adv-x="0" 
d="M-1091 1822v12.5v13.5h-280q-9 -27 -14 -55.5t-5 -58.5q0 -150 118 -233t362 -83h251q102 0 138 -36t36 -114v-53h293v70q0 184 -99 281.5t-340 97.5h-235q-130 0 -177.5 35.5t-47.5 122.5z" />
    <glyph glyph-name="matraE.dv" unicode="&#x947;" horiz-adv-x="0" 
d="M-1315 1798v-36l242 -188q76 -59 138 -104t122 -80t129.5 -63.5t160.5 -56.5v-55h317v38q-38 31 -105 85t-147.5 119.5t-161.5 131.5t-149 121.5t-108 87.5h-438z" />
    <glyph glyph-name="matraAi.dv" unicode="&#x948;" horiz-adv-x="0" 
d="M-1001 1669h-443v-41l292 -159q71 -39 136.5 -68.5t138 -52t160.5 -41t202 -35.5v-57h316v33l-350 678h-369v-28l123 -171q44 -62 88 -112t97.5 -98.5t126.5 -107.5l-5 -9z" />
    <glyph glyph-name="matraAChandra.dv" unicode="&#x949;" 
d="M504 0v1101h-331v-1101h331zM731 1028l-19 233h-767l19 -233h767zM479 1792h-273v-13.5v-12.5q0 -81 -48.5 -123t-150.5 -42q-101 0 -149.5 41.5t-48.5 123.5v12.5v13.5h-274q-2 -18 -2.5 -29.5t-0.5 -19.5q0 -177 119 -267.5t356 -90.5q238 0 356 90.5t118 267.5v20
t-2 29z" />
    <glyph glyph-name="matraShortO.dv" unicode="&#x94a;" 
d="M-416 1822q-1 2 -1 12.5v13.5h-280q-9 -27 -13.5 -55.5t-4.5 -58.5q0 -150 118 -233t361 -83h252q102 0 138 -36t36 -114v-53h293v70q0 184 -99 281.5t-341 97.5h-234q-131 0 -178 35.5t-47 122.5zM504 0v1101h-331v-1101h331zM731 1028l-19 233h-767l19 -233h767z" />
    <glyph glyph-name="matraO.dv" unicode="&#x94b;" 
d="M504 0v1101h-331v-1101h331zM731 1028l-19 233h-767l19 -233h767zM-637 1798v-36l242 -188q76 -59 138 -104t122 -80t129.5 -63.5t160.5 -56.5v-55h317v38q-38 31 -105 85t-147.5 119.5t-161.5 131.5t-149 121.5t-108 87.5h-438z" />
    <glyph glyph-name="matraAu.dv" unicode="&#x94c;" 
d="M504 0v1101h-331v-1101h331zM731 1028l-19 233h-767l19 -233h767zM-319 1669h-443v-41l292 -159q70 -39 136 -68.5t138.5 -52t160.5 -41t202 -35.5v-57h316v33l-350 678h-369v-28l122 -171q45 -62 89 -112t97 -98.5t127 -107.5l-6 -9z" />
    <glyph glyph-name="Halant.dv" unicode="&#x94d;" horiz-adv-x="0" 
d="M-545 -146v-31l467 -440h326v13l-420 458h-373z" />
    <glyph glyph-name="uni094E" unicode="&#x94e;" 
d="M504 1101h-331v-1101h331v1101zM173 1028h558l-19 233h-539v-233z" />
    <glyph glyph-name="uni094F" unicode="&#x94f;" 
d="M-684 1623q0 -126 102 -188.5t330 -76.5l200 -12q98 -6 147.5 -20t66.5 -34.5t17 -49.5v-14h308v94q0 123 -22 212t-83.5 151.5t-180.5 108.5l-122 47q-91 35 -119 72t-28 99v21h-268q-9 -18 -14.5 -42.5t-5.5 -52.5q0 -92 55.5 -153.5t195.5 -110.5l154 -53
q83 -29 128 -58.5t66 -65.5t30 -85l-7 -3q-25 38 -64 66t-99 46.5t-150 27.5l-162 14q-115 11 -159 40.5t-44 97.5v21h-252q-9 -21 -14.5 -46t-5.5 -53zM504 0v1101h-331v-1101h331zM731 1028l-19 233h-767l19 -233h767z" />
    <glyph glyph-name="Om.dv" unicode="&#x950;" horiz-adv-x="2357" 
d="M1613 1424q78 0 112 39t34 99v6q0 60 -34 99t-112 39q-77 0 -111.5 -39t-34.5 -99v-6q0 -60 34.5 -99t111.5 -39zM2098 1536h-246v-22q0 -82 -58 -128t-183 -46q-120 0 -179.5 44.5t-59.5 129.5v22h-247q-2 -21 -2.5 -33t-0.5 -19q0 -170 123 -261t366 -91q249 0 369 91
t120 262q0 8 -0.5 19.5t-1.5 31.5zM1491 373l27 -255q46 -19 106.5 -29t139.5 -10q233 0 364 120t131 338v15q0 210 -124.5 340t-365.5 130q-175 0 -280 -63.5t-175 -189.5l-24 -42q-28 -50 -55 -77t-66 -37.5t-103 -10.5q-45 0 -90.5 7.5t-97.5 19.5l103 -145
q55 -40 117 -67t147 -27q107 0 172.5 37t124.5 146l26 47q43 79 84.5 112t110.5 33q79 0 121 -52t42 -149v-6q0 -75 -28.5 -124t-80.5 -73t-122 -24q-62 0 -112 9t-92 27zM70 360l20 -266q105 -47 235 -70t287 -23q213 0 339.5 44.5t182.5 119.5t56 165v4v3q0 72 -36 136.5
t-114.5 108.5t-203.5 55v8q121 7 196.5 44.5t110.5 97.5t35 134v5.5v4.5q0 95 -59 173.5t-183 126t-322 47.5q-139 0 -259 -21.5t-215 -57.5l-23 -263q108 44 222.5 67t236.5 23q151 0 211 -33.5t60 -89.5v-2.5v-2.5q0 -41 -28.5 -70t-101.5 -45t-207 -19l-214 -5v-229
l231 -6q126 -3 199 -18.5t104 -44t31 -70.5v-3v-3q0 -62 -69 -96.5t-240 -34.5q-128 0 -253 28.5t-229 77.5z" />
    <glyph glyph-name="Udatta.dv" unicode="&#x951;" horiz-adv-x="0" 
d="M-481 1438h279v535h-279v-535z" />
    <glyph glyph-name="Anudatta.dv" unicode="&#x952;" horiz-adv-x="0" 
d="M-1282 -496h1128l-20 244h-1127z" />
    <glyph glyph-name="uni0953" unicode="&#x953;" horiz-adv-x="0" 
d="M-537 1381h320v13l-326 402h-388v-18z" />
    <glyph glyph-name="uni0954" unicode="&#x954;" horiz-adv-x="0" 
d="M-160 1381l392 397v19h-388l-327 -403v-13h323z" />
    <glyph glyph-name="uni0955" unicode="&#x955;" horiz-adv-x="0" 
d="M-150 1994v-21q0 -75 -49.5 -106.5t-145.5 -31.5t-144.5 31.5t-48.5 106.5v21h-230q-3 -20 -3 -31.5v-19.5q0 -148 103 -223.5t324 -75.5t323.5 75.5t102.5 224.5v19.5t-2 30.5h-230zM-776 1363h849v198h-849v-198z" />
    <glyph glyph-name="uni0956" unicode="&#x956;" horiz-adv-x="0" 
d="M-337 -499q165 0 296.5 27.5t223.5 71.5l12 264q-112 -53 -246 -82t-286 -29t-286 29t-246 82l13 -264q92 -45 223 -72t296 -27z" />
    <glyph glyph-name="uni0957" unicode="&#x957;" horiz-adv-x="0" 
d="M-337 -457q165 0 296.5 27t223.5 71l12 243q-112 -53 -246 -82t-286 -29t-286 29t-246 82l13 -243q92 -45 223 -71.5t296 -26.5zM-337 -827q165 0 296.5 27t223.5 72l12 242q-112 -53 -246 -82t-286 -29t-286 29t-246 82l13 -242q92 -46 223 -72.5t296 -26.5z" />
    <glyph glyph-name="KaNukta.dv" unicode="&#x958;" horiz-adv-x="2145" 
d="M-36 1028h2234l-19 233h-2234zM98 501q0 -184 119.5 -289t328.5 -105q102 0 174 25.5t116.5 71t62.5 107.5h32l-13 201q-20 -69 -84 -109t-177 -40q-116 0 -169.5 34.5t-53.5 105.5v7q0 69 53.5 105t167.5 36q40 0 72 -3.5t64 -10.5l-18 237q-46 13 -97.5 19.5
t-113.5 6.5q-224 0 -344 -103t-120 -290v-6zM2052 503q0 174 -109.5 285.5t-315.5 111.5q-104 0 -179.5 -26.5t-122.5 -75.5t-68 -115h-31l12 -201q19 74 86 118t184 44q111 0 159.5 -35.5t48.5 -105.5v-7q0 -69 -51 -104.5t-163 -35.5q-37 0 -69 4t-66 11l19 -240
q41 -11 91.5 -17.5t116.5 -6.5q228 0 343 103.5t115 285.5v7zM1243 1101h-331v-1101h331v1101zM465 -319q91 0 139 44.5t48 118.5v2.5v3.5q0 74 -48 119t-139 45t-139.5 -44.5t-48.5 -119.5v-3.5v-2.5q0 -74 48.5 -118.5t139.5 -44.5z" />
    <glyph glyph-name="KhaNukta.dv" unicode="&#x959;" horiz-adv-x="2134" 
d="M1961 1101h-331v-1101h331v1101zM1541 1028h647l-18 233h-647zM-28 1028h2186l-19 233h-2186zM858 813q0 83 -32.5 147.5t-94.5 113.5h-354q73 -39 110 -88.5t37 -117.5v-6q0 -92 -82 -141.5t-271 -49.5h-88l117 -223l106 1q190 3 312 46.5t181 123t59 186.5v8zM1493 23
l157 247v45q-88 -45 -210 -69.5t-255 -24.5q-163 0 -287.5 28.5t-215 80t-151.5 121.5l-39 46l-409 174v-251l148 -17l28 -45q77 -124 195 -210.5t284.5 -132t388.5 -45.5q97 0 195 13.5t171 39.5zM1337 330q108 0 179.5 27t105.5 78h26l-8 186q-25 -35 -75.5 -54
t-134.5 -19q-88 0 -128.5 22.5t-40.5 66.5v3q0 44 38.5 64.5t123.5 20.5q33 0 61.5 -2t59.5 -6l-19 203q-46 9 -88 13t-96 4q-189 0 -289 -77t-100 -222v-4q0 -143 100.5 -223.5t284.5 -80.5zM258 -246q90 0 137.5 44t47.5 118v3.5v2.5q0 74 -47.5 119t-137.5 45
t-138.5 -44.5t-48.5 -119.5v-2.5v-3.5q0 -73 48.5 -117.5t138.5 -44.5z" />
    <glyph glyph-name="GaNukta.dv" unicode="&#x95a;" horiz-adv-x="1589" 
d="M1542 1028l-19 233h-1578l19 -233h1578zM265 1057q90 -50 132.5 -115.5t42.5 -144.5v-9q0 -63 -28 -105t-87 -63t-151 -21q-29 0 -59 3t-57 8l24 -269q39 -11 86.5 -16.5t100.5 -5.5q166 0 279.5 49.5t172 142t58.5 222.5v10q0 94 -37 176t-110 138h-367zM1416 1101h-331
v-1101h331v1101zM997 1028h647l-19 233h-647zM381 -119q90 0 138 44t48 118v3.5v3.5q0 74 -48 119t-138 45q-91 0 -139.5 -44.5t-48.5 -119.5v-3.5v-3.5q0 -73 48.5 -117.5t139.5 -44.5z" />
    <glyph glyph-name="JaNukta.dv" unicode="&#x95b;" horiz-adv-x="1834" 
d="M1662 1101h-331v-1101h331v1101zM1242 1028h647l-19 233h-647zM1789 1028l-19 233h-1825l19 -233h1825zM1395 834h-1131v-237l435 -1l372 -9h324v247zM890 656h-626v-59l221 -7q104 -3 160.5 -22.5t79 -52.5t22.5 -79v-6q0 -68 -55 -106.5t-182 -38.5q-116 0 -223.5 36
t-208.5 97l16 -274q88 -54 206.5 -85.5t272.5 -31.5q257 0 385 84.5t128 225.5v6q0 85 -47 145t-149 94v74zM558 -396q90 0 138 44t48 119v2.5v3.5q0 74 -47.5 119t-138.5 45t-139.5 -44.5t-48.5 -119.5v-3.5v-2.5q0 -74 48.5 -118.5t139.5 -44.5z" />
    <glyph glyph-name="DdaNukta.dv" unicode="&#x95c;" horiz-adv-x="1463" 
d="M853 1028h645l-19 233h-645zM1278 1101h-320v-201h320v201zM1508 1028l-19 233h-1538l19 -233h1538zM957 1108v-388q22 -2 66 -7.5t95 -12t95 -12t65 -8.5v428h-321zM100 307l25 -257q109 -47 272.5 -77t364.5 -30q238 0 370.5 40t186 113t53.5 171v7q0 92 -47 160.5
t-154 107.5t-285 39q-117 0 -207 -12t-178 -32q-26 11 -40 27.5t-14 41.5v3q0 31 27.5 53.5t100.5 34.5t212 12q131 0 251 -7t240 -22v196q-158 23 -296.5 32.5t-287.5 9.5q-216 0 -342 -36t-180.5 -104t-54.5 -163v-7q0 -115 80.5 -190.5t229.5 -110.5q84 23 178 38t221 15
q86 0 132.5 -10.5t65 -29t18.5 -45.5v-3q0 -32 -25.5 -53.5t-96.5 -32.5t-210 -11q-163 0 -316.5 35t-293.5 97zM735 -477q91 0 139 44.5t48 117.5v3.5v3.5q0 74 -48 119t-139 45q-90 0 -139 -44.5t-49 -119.5v-3.5v-3.5q0 -73 49 -117.5t139 -44.5z" />
    <glyph glyph-name="DdhaNukta.dv" unicode="&#x95d;" horiz-adv-x="1572" 
d="M942 1028h644l-19 233h-644zM1367 1101h-321v-201h321v201zM-28 1028h1657l-19 233h-1656zM1046 1108v-357l321 -110v467h-321zM101 436v-11q0 -234 200.5 -359.5t556.5 -125.5q316 0 470.5 86t154.5 231v9q0 127 -107 198.5t-322 71.5q-208 0 -306.5 -53.5t-98.5 -144.5
v-4q0 -63 39 -98.5t127 -59.5v-20l192 3q-45 14 -68.5 36t-23.5 50v4q0 35 35 54.5t103 19.5q70 0 100.5 -18.5t30.5 -50.5v-2q0 -43 -64.5 -66t-234.5 -23q-245 0 -350.5 67.5t-105.5 181.5v12q0 120 111.5 182t362.5 62q84 0 155.5 -2t145.5 -8t163 -17v222
q-144 19 -277 27.5t-261 8.5q-372 0 -550 -115t-178 -348zM848 -477q91 0 138.5 44.5t47.5 117.5v3.5v3.5q0 74 -47.5 119t-138.5 45t-139.5 -44.5t-48.5 -119.5v-3.5v-3.5q0 -73 48.5 -117.5t139.5 -44.5z" />
    <glyph glyph-name="PhaNukta.dv" unicode="&#x95e;" horiz-adv-x="2193" 
d="M-36 1028h2283l-19 233h-2283zM592 241q98 0 167 26t111.5 72t61.5 105h28l-11 187q-22 -56 -79.5 -91t-153.5 -35q-116 0 -175 51t-59 182v361h-331v-397q0 -243 118.5 -352t322.5 -109zM1552 643q112 0 162.5 -39.5t50.5 -108.5v-4q0 -74 -50.5 -111.5t-155.5 -37.5
q-38 0 -72 5t-64 14l20 -246q41 -11 91.5 -17.5t110.5 -6.5q221 0 338.5 102t117.5 293v9q0 179 -113.5 291t-320.5 112q-103 0 -179.5 -26.5t-126.5 -74t-75 -109.5h-29l7 -199q33 70 108 112t180 42zM1276 1101h-332v-1101h332v1101zM370 -176q90 0 138 44t48 119v2.5v3.5
q0 74 -48 119t-138 45q-91 0 -140 -44.5t-49 -119.5v-3.5v-2.5q0 -74 49 -118.5t140 -44.5z" />
    <glyph glyph-name="YaNukta.dv" unicode="&#x95f;" horiz-adv-x="1665" 
d="M1492 1101h-331v-1101h331v1101zM1073 1028h647l-19 233h-647zM-55 1261l18 -233h1726l-19 233h-1725zM723 1082h-348q73 -39 100 -84t27 -95v-4q0 -51 -29.5 -86.5t-99.5 -54t-193 -18.5h-71l99 -205l166 6q245 8 357 84.5t112 211.5v7q0 72 -30 130.5t-90 107.5z
M98 599v-8q0 -228 154.5 -351.5t436.5 -123.5q210 0 319 68t142 165h28l-11 200q-25 -77 -120 -123.5t-277 -46.5q-123 0 -201.5 22t-115.5 64t-37 98v112l-307 65q-6 -41 -8.5 -74t-2.5 -67zM348 -269q91 0 139 44.5t48 118.5v3v3q0 74 -48 119t-139 45t-139.5 -44.5
t-48.5 -119.5v-3v-3q0 -74 48.5 -118.5t139.5 -44.5z" />
    <glyph glyph-name="vowelRuu.dv" unicode="&#x960;" horiz-adv-x="2242" 
d="M1313 -2v1111h-331v-1111h331zM1027 273v259l-213 -59q-54 -15 -120.5 -39t-125.5 -49l-9 17l-453 -118v-274zM656 382l-10 46q53 25 89 55.5t54.5 68.5t18.5 86v4q0 116 -99 187.5t-299 71.5q-78 0 -153 -12t-135 -33l-20 -266q54 23 111.5 37t114.5 14q88 0 125.5 -35
t37.5 -92v-2q0 -37 -14 -67.5t-44.5 -57t-81.5 -49.5zM2296 1028l-19 233h-2331l19 -233h2331zM1808 728l-544 -144v-251l626 173zM1934 891h-330v-399l300 39l124 111q-11 67 -34.5 130t-59.5 119zM1940 -177q76 0 139 10.5t111 30.5l17 232q-51 -19 -103 -28.5t-113 -9.5
q-83 0 -122.5 18t-39.5 55v3q0 29 26 47t95 26.5t197 8.5v201q-82 37 -150.5 88.5t-112.5 117.5l-252 -103q44 -55 98 -97t107 -67v-8q-155 -16 -233 -74.5t-78 -171.5v-6q0 -128 110 -200.5t304 -72.5z" />
    <glyph glyph-name="vowelLruu.dv" unicode="&#x961;" horiz-adv-x="1882" 
d="M1782 484l-340 -20v-15q0 -35 -14 -64t-44 -58t-80 -65q-101 -73 -138 -130.5t-37 -135.5q0 -122 110.5 -199.5t296.5 -77.5q74 0 142.5 13.5t119.5 38.5l17 234q-50 -29 -108 -45.5t-126 -16.5q-65 0 -95 17t-30 45q0 24 15 43.5t50 46.5t98 73q57 42 93.5 86t53 96.5
t16.5 120.5v13zM1503 -273l-220 63l-1 -28q-74 -18 -112.5 -60t-38.5 -106q0 -113 108 -175.5t290 -62.5q85 0 158 15t119 39l13 227q-62 -30 -125 -45t-132 -15q-79 0 -111.5 21t-32.5 55q0 28 22 46t63 26zM1101 1028h645l-19 233h-644zM1526 1101h-320v-201h320v201z
M-36 1028h1973l-20 233h-1972zM1526 1074h-321v-263h321v263zM104 420q0 -78 25 -153.5t74 -143t120 -123.5h390v6q-87 67 -146.5 131t-89.5 130.5t-30 141.5v7q0 85 48.5 135t131.5 50q81 0 118 -42.5t42 -135.5l10 -169h315l9 169q6 93 47.5 135.5t118.5 42.5
q79 0 117 -41t38 -104v-7l340 22v11q0 105 -50.5 191t-151 136.5t-249.5 50.5q-163 0 -253.5 -57.5t-120.5 -149.5h-9q-30 92 -116 149.5t-252 57.5q-225 0 -350.5 -117t-125.5 -314v-9z" />
    <glyph glyph-name="matraLru.dv" unicode="&#x962;" horiz-adv-x="0" 
d="M-10 -253l-286 -20v-2q0 -34 -21.5 -60t-75.5 -71q-62 -52 -88.5 -98.5t-26.5 -111.5q0 -104 82 -164t219 -60q59 0 103 8.5t81 25.5l14 201q-32 -18 -69 -29.5t-81 -11.5q-43 0 -66 11.5t-23 34.5q0 26 24.5 47t89.5 72q62 48 93 99.5t31 123.5v5zM-756 -407h250l5 115
q2 63 29.5 89t76.5 26q48 0 73.5 -26t25.5 -68v-9l286 19v11q0 116 -82.5 197t-249.5 81q-123 0 -192 -43t-92 -118h-7q-24 76 -88 118.5t-188 42.5q-154 0 -245 -83t-91 -220v-5q0 -92 39.5 -166t112.5 -136h311q-96 77 -141.5 148t-45.5 136v5q0 58 29.5 87.5t79.5 29.5
q48 0 71.5 -27t26.5 -87z" />
    <glyph glyph-name="matraLruu.dv" unicode="&#x963;" horiz-adv-x="0" 
d="M-10 -252l-286 -21v-4q0 -32 -22 -59.5t-75 -69.5q-64 -51 -94.5 -97t-30.5 -107q0 -104 84.5 -160.5t220.5 -56.5q59 0 108 8.5t83 26.5l14 198q-32 -18 -71 -29.5t-85 -11.5q-43 -1 -64 9.5t-21 32.5q0 24 27.5 46t94.5 73q60 46 88.5 96.5t28.5 119.5v6zM-205 -822
l-195 48l1 -22q-58 -14 -85.5 -49.5t-27.5 -87.5q0 -90 81.5 -140.5t216.5 -50.5q64 0 113 11t83 28l11 191q-41 -21 -80 -30t-82 -9q-52 0 -76.5 15t-24.5 40q0 22 16 36.5t49 19.5zM-756 -407h250l5 115q2 63 29.5 89t76.5 26q48 0 73.5 -26t25.5 -68v-9l286 19v11
q0 116 -82.5 197t-249.5 81q-123 0 -192 -43t-92 -118h-7q-24 76 -88 118.5t-188 42.5q-154 0 -245 -83t-91 -220v-5q0 -92 39.5 -166t112.5 -136h311q-96 77 -141.5 148t-45.5 136v5q0 58 29.5 87.5t79.5 29.5q48 0 71.5 -27t26.5 -87z" />
    <glyph glyph-name="Danda.dv" unicode="&#x964;" horiz-adv-x="944" 
d="M632 1277l-321 47v-1327h321v1280z" />
    <glyph glyph-name="Doubledanda.dv" unicode="&#x965;" horiz-adv-x="1587" 
d="M1275 1277l-321 47v-1327h321v1280zM632 1277l-321 47v-1327h321v1280z" />
    <glyph glyph-name="Shunya.dv" unicode="&#x966;" horiz-adv-x="1456" 
d="M730 439q-143 0 -218.5 52.5t-75.5 156.5v7q0 103 75.5 155.5t218.5 52.5q141 0 215.5 -53t74.5 -156v-7q0 -104 -74.5 -156t-215.5 -52zM730 183q308 0 470.5 119t162.5 344v10q0 225 -162.5 344t-470.5 119q-310 0 -472.5 -118.5t-162.5 -344.5v-10q0 -226 162 -344.5
t473 -118.5z" />
    <glyph glyph-name="Ek.dv" unicode="&#x967;" horiz-adv-x="1373" 
d="M1228 750q0 264 -139 395t-441 131q-277 0 -416 -120t-139 -320v-11q0 -131 57 -224.5t158.5 -143.5t235.5 -50q106 0 176.5 25.5t111.5 71t57 104.5h29l-9 191q-21 -62 -85.5 -98.5t-161.5 -36.5q-114 0 -173 45t-59 131v3q0 83 60.5 130t168.5 47q125 0 183.5 -54.5
t58.5 -160.5v-805h327v750z" />
    <glyph glyph-name="Don.dv" unicode="&#x968;" horiz-adv-x="1293" 
d="M102 403l177 -32l352 -371h462v19l-200 176q-52 45 -100.5 78.5t-103.5 60.5t-123 51l-6 135l-458 128v-245zM102 648l263 -260q44 -2 76.5 -2.5t77.5 -0.5q349 0 511.5 117t162.5 317v10q0 206 -150 326.5t-437 120.5q-135 0 -244.5 -18.5t-198.5 -52.5l-23 -269
q116 43 214 62.5t217 19.5q152 0 217.5 -52.5t65.5 -134.5v-4q0 -104 -102.5 -155t-323.5 -51q-65 0 -121.5 3.5t-106.5 9.5t-98 14z" />
    <glyph glyph-name="Teen.dv" unicode="&#x969;" horiz-adv-x="1341" 
d="M73 366l21 -277l234 -61q67 -13 143 -22t164 -9q222 0 353 43.5t187.5 117.5t56.5 166v13q1 115 -82.5 198.5t-273.5 100.5v8q186 16 261.5 92t75.5 184v9q0 155 -139.5 251t-426.5 96q-145 0 -273 -21.5t-227 -59.5l-23 -262q121 45 238.5 67.5t249.5 22.5
q142 0 199.5 -34t57.5 -87v-6q0 -41 -31 -68t-109.5 -41.5t-221.5 -18.5l-209 -5v-241l233 -7q141 -4 218 -18.5t108.5 -42.5t31.5 -72v-2q0 -59 -64.5 -91.5t-230.5 -32.5q-97 0 -187 13.5t-173 38.5t-161 58zM950 -338v12l-104 107q-52 54 -94 91t-88.5 65t-110.5 56v77
l-454 47l-5 -28l155 -54l301 -373h400z" />
    <glyph glyph-name="Chaar.dv" unicode="&#x96a;" horiz-adv-x="1503" 
d="M155 341v-8q0 -177 151 -267.5t447 -90.5q297 0 447 90t150 260v8q0 93 -42 165t-135 120t-247 65l-146 74q-128 19 -200.5 58.5t-103 96t-30.5 126.5v7q0 53 13 99t38 97h-339q-27 -56 -38.5 -110t-11.5 -103v-8q0 -90 38 -165t124 -127t232 -76l158 -94
q139 -13 214 -37t104.5 -58.5t29.5 -83.5v-4q0 -69 -65 -107.5t-190 -38.5q-127 0 -191.5 38.5t-64.5 107.5v2q0 48 30 84t104.5 60.5t208.5 36.5l188 89q131 18 212.5 72t119.5 131t38 165v14q0 58 -13 111.5t-39 100.5h-337q23 -46 36.5 -93.5t13.5 -102.5v-6
q0 -73 -30.5 -129.5t-104.5 -95t-201 -57.5l-142 -70q-158 -14 -251.5 -59t-134 -117.5t-40.5 -169.5z" />
    <glyph glyph-name="Paach.dv" unicode="&#x96b;" horiz-adv-x="1425" 
d="M220 1244q-59 -71 -89.5 -158t-30.5 -183v-17q0 -146 62.5 -244.5t172 -148.5t250.5 -50q105 0 179.5 26t120.5 72t64 106h27l-10 219q-19 -78 -85.5 -121t-174.5 -43q-131 0 -197 56t-66 164v7q0 87 32 163.5t93 151.5h-348zM961 530q0 -156 -68.5 -226t-225.5 -70
q-104 0 -200 22.5t-192 63.5l21 -272q82 -34 187 -53.5t228 -19.5q211 0 339 60t185 182t57 306v574h-331v-567z" />
    <glyph glyph-name="Saha.dv" unicode="&#x96c;" horiz-adv-x="1389" 
d="M661 -37q133 0 227.5 25.5t155.5 74.5l-73 203q-41 -22 -104.5 -33.5t-144.5 -11.5q-139 0 -209 39t-70 112v5q0 49 29.5 81t104 49.5t207.5 20.5l321 5v241l-305 7q-131 3 -202 15.5t-98 37t-27 62.5v6q0 56 62.5 89.5t216.5 33.5q122 0 239.5 -19t248.5 -58l-24 254
q-104 36 -230 55.5t-275 19.5q-212 0 -340 -41.5t-185 -115.5t-57 -173v-7q0 -73 32.5 -131t110 -96t211.5 -51v-9q-207 -15 -295 -100.5t-88 -211.5v-12q0 -172 148 -269t413 -97zM1281 385h-331v-234l20 -11l59 -390h328l-76 398v237z" />
    <glyph glyph-name="Saat.dv" unicode="&#x96d;" horiz-adv-x="1783" 
d="M259 1243q-45 -87 -72.5 -175.5t-40 -177t-12.5 -178.5v-19q0 -240 95.5 -402t275.5 -243.5t433 -81.5q250 0 411 78t239 220t78 335v14q0 239 -126.5 376.5t-373.5 137.5q-231 0 -351.5 -104t-120.5 -284v-13q0 -166 99 -253.5t259 -87.5q133 0 201 51t91 130h26
l-11 171q-15 -60 -64 -91t-133 -31q-81 0 -120 32t-39 92v3q0 62 42 97t123 35q96 0 137 -49.5t41 -143.5v-21l11 -51v-13q0 -109 -37.5 -191t-125 -128t-238.5 -46q-153 0 -261 49.5t-165 153.5t-57 267v14q0 140 31 265t104 263h-349z" />
    <glyph glyph-name="Aath.dv" unicode="&#x96e;" horiz-adv-x="1258" 
d="M1174 110l18 298q-109 -80 -225 -123.5t-247 -43.5q-136 0 -209 55t-73 153q0 60 24.5 110.5t81.5 112t155 154.5l437 418h-411l-292 -259q-124 -110 -197.5 -198t-106 -172.5t-32.5 -183.5q0 -209 155 -332.5t439 -123.5q161 0 277.5 34t205.5 101z" />
    <glyph glyph-name="Nau.dv" unicode="&#x96f;" horiz-adv-x="1335" 
d="M93 868v-7q0 -84 33.5 -164.5t100.5 -167.5t171 -191l337 -338h433l-591 560l-6 50q-58 56 -89 97t-42.5 75.5t-11.5 71.5v4q0 81 61.5 126t174.5 45q116 0 175.5 -47.5t59.5 -126.5v-5q0 -81 -57 -124.5t-170 -43.5q-68 0 -119.5 11.5t-97.5 35.5l113 -230l45 46
q47 -32 108 -52t140 -20q185 0 280 98.5t95 262.5v9q0 127 -63.5 226.5t-192 157t-322.5 57.5q-264 0 -414.5 -108.5t-150.5 -307.5z" />
    <glyph glyph-name="uni0970" unicode="&#x970;" horiz-adv-x="1250" 
d="M627 426q-103 0 -155 36t-52 107v8q0 70 52 105t155 35q102 0 152.5 -35.5t50.5 -105.5v-8q0 -70 -50.5 -106t-152.5 -36zM627 180q253 0 388.5 99t135.5 289v8q0 190 -135.5 288.5t-388.5 98.5q-254 0 -391 -98.5t-137 -288.5v-8q0 -190 137 -289t391 -99z" />
    <glyph glyph-name="uni0971" unicode="&#x971;" horiz-adv-x="755" 
d="M376 960q110 0 163.5 47.5t53.5 125.5v6q0 81 -53.5 128t-163.5 47q-111 0 -163 -49t-52 -126v-6q0 -79 52 -126t163 -47z" />
    <glyph glyph-name="vowelChandraA.dv" unicode="&#x972;" horiz-adv-x="2042" 
d="M2179 1792h-274v-13.5v-12.5q0 -81 -48 -123t-150 -42q-101 0 -149.5 41.5t-48.5 123.5v12.5v13.5h-274q-2 -18 -2.5 -29.5t-0.5 -19.5q0 -177 119 -267.5t356 -90.5q238 0 356 90.5t118 267.5q0 8 -0.5 20t-1.5 29zM2097 1028l-19 233h-759l19 -233h759zM1538 0h332
v1107h-332v-1107zM69 360l21 -267q102 -45 230.5 -68.5t292.5 -23.5q303 0 443 80.5t140 210.5v7q0 65 -31 116.5t-111 91.5t-226 71l-8 109q133 5 213 39.5t115 90.5t35 124v11q0 93 -58.5 166.5t-183.5 116.5t-326 43q-141 0 -259.5 -21t-215.5 -58l-23 -263
q108 44 223.5 67t237.5 23q154 0 214 -34.5t60 -91.5v-4q0 -42 -28 -69.5t-100.5 -42t-206.5 -18.5l-215 -4v-234l233 -7q126 -3 198 -17.5t102.5 -42t30.5 -70.5v-5q0 -42 -29.5 -71.5t-96 -45t-177.5 -15.5q-134 0 -259.5 28.5t-234.5 77.5zM808 708v-141l190 -52l8 19
q49 -14 98.5 -26t106.5 -18.5t129 -6.5h326v243h-353q-68 0 -120.5 -2t-98 -6t-94.5 -9l-1 13z" />
    <glyph glyph-name="uni0973" unicode="&#x973;" horiz-adv-x="2042" 
d="M2097 1028l-19 233h-759l19 -233h759zM1538 0h332v1107h-332v-1107zM69 360l21 -267q102 -45 230.5 -68.5t292.5 -23.5q303 0 443 80.5t140 210.5v7q0 65 -31 116.5t-111 91.5t-226 71l-8 109q133 5 213 39.5t115 90.5t35 124v11q0 93 -58.5 166.5t-183.5 116.5t-326 43
q-141 0 -259.5 -21t-215.5 -58l-23 -263q108 44 223.5 67t237.5 23q154 0 214 -34.5t60 -91.5v-4q0 -42 -28 -69.5t-100.5 -42t-206.5 -18.5l-215 -4v-234l233 -7q126 -3 198 -17.5t102.5 -42t30.5 -70.5v-5q0 -42 -29.5 -71.5t-96 -45t-177.5 -15.5q-134 0 -259.5 28.5
t-234.5 77.5zM808 708v-141l190 -52l8 19q49 -14 98.5 -26t106.5 -18.5t129 -6.5h326v243h-353q-68 0 -120.5 -2t-98 -6t-94.5 -9l-1 13zM1555 1711v-483h295v483h-295z" />
    <glyph glyph-name="uni0974" unicode="&#x974;" horiz-adv-x="2718" 
d="M2545 0v1101h-331v-1101h331zM2773 1028l-19 233h-767l19 -233h767zM2230 1711v-483h294v483h-294zM2097 1028l-19 233h-759l19 -233h759zM1538 0h332v1107h-332v-1107zM69 360l21 -267q102 -45 230.5 -68.5t292.5 -23.5q303 0 443 80.5t140 210.5v7q0 65 -31 116.5
t-111 91.5t-226 71l-8 109q133 5 213 39.5t115 90.5t35 124v11q0 93 -58.5 166.5t-183.5 116.5t-326 43q-141 0 -259.5 -21t-215.5 -58l-23 -263q108 44 223.5 67t237.5 23q154 0 214 -34.5t60 -91.5v-4q0 -42 -28 -69.5t-100.5 -42t-206.5 -18.5l-215 -4v-234l233 -7
q126 -3 198 -17.5t102.5 -42t30.5 -70.5v-5q0 -42 -29.5 -71.5t-96 -45t-177.5 -15.5q-134 0 -259.5 28.5t-234.5 77.5zM808 708v-141l190 -52l8 19q49 -14 98.5 -26t106.5 -18.5t129 -6.5h326v243h-353q-68 0 -120.5 -2t-98 -6t-94.5 -9l-1 13z" />
    <glyph glyph-name="uni0975" unicode="&#x975;" horiz-adv-x="2718" 
d="M1358 1623q0 -126 101.5 -188.5t330.5 -76.5l199 -12q99 -6 148 -20t66 -34.5t17 -49.5v-14h308v94q0 123 -22 212t-83.5 151.5t-179.5 108.5l-123 47q-91 35 -119 72t-28 99v21h-268q-9 -18 -14 -42.5t-5 -52.5q0 -92 55 -153.5t196 -110.5l154 -53q82 -29 127.5 -58.5
t66 -65.5t29.5 -85l-7 -3q-24 38 -63 66t-99.5 46.5t-150.5 27.5l-162 14q-114 11 -158.5 40.5t-44.5 97.5v21h-252q-9 -21 -14 -46t-5 -53zM2545 0v1101h-331v-1101h331zM2773 1028l-19 233h-767l19 -233h767zM2097 1028l-19 233h-759l19 -233h759zM1538 0h332v1107h-332
v-1107zM69 360l21 -267q102 -45 230.5 -68.5t292.5 -23.5q303 0 443 80.5t140 210.5v7q0 65 -31 116.5t-111 91.5t-226 71l-8 109q133 5 213 39.5t115 90.5t35 124v11q0 93 -58.5 166.5t-183.5 116.5t-326 43q-141 0 -259.5 -21t-215.5 -58l-23 -263q108 44 223.5 67
t237.5 23q154 0 214 -34.5t60 -91.5v-4q0 -42 -28 -69.5t-100.5 -42t-206.5 -18.5l-215 -4v-234l233 -7q126 -3 198 -17.5t102.5 -42t30.5 -70.5v-5q0 -42 -29.5 -71.5t-96 -45t-177.5 -15.5q-134 0 -259.5 28.5t-234.5 77.5zM808 708v-141l190 -52l8 19q49 -14 98.5 -26
t106.5 -18.5t129 -6.5h326v243h-353q-68 0 -120.5 -2t-98 -6t-94.5 -9l-1 13z" />
    <glyph glyph-name="uni0976" unicode="&#x976;" horiz-adv-x="2042" 
d="M2097 1028l-19 233h-759l19 -233h759zM1538 0h332v1107h-332v-1107zM69 360l21 -267q102 -45 230.5 -68.5t292.5 -23.5q303 0 443 80.5t140 210.5v7q0 65 -31 116.5t-111 91.5t-226 71l-8 109q133 5 213 39.5t115 90.5t35 124v11q0 93 -58.5 166.5t-183.5 116.5t-326 43
q-141 0 -259.5 -21t-215.5 -58l-23 -263q108 44 223.5 67t237.5 23q154 0 214 -34.5t60 -91.5v-4q0 -42 -28 -69.5t-100.5 -42t-206.5 -18.5l-215 -4v-234l233 -7q126 -3 198 -17.5t102.5 -42t30.5 -70.5v-5q0 -42 -29.5 -71.5t-96 -45t-177.5 -15.5q-134 0 -259.5 28.5
t-234.5 77.5zM808 708v-141l190 -52l8 19q49 -14 98.5 -26t106.5 -18.5t129 -6.5h326v243h-353q-68 0 -120.5 -2t-98 -6t-94.5 -9l-1 13zM1028 -499q165 0 296 27.5t224 71.5l12 264q-112 -53 -246 -82t-286 -29t-286 29t-246 82l12 -264q92 -45 223.5 -72t296.5 -27z" />
    <glyph glyph-name="uni0977" unicode="&#x977;" horiz-adv-x="2042" 
d="M2097 1028l-19 233h-759l19 -233h759zM1538 0h332v1107h-332v-1107zM69 360l21 -267q102 -45 230.5 -68.5t292.5 -23.5q303 0 443 80.5t140 210.5v7q0 65 -31 116.5t-111 91.5t-226 71l-8 109q133 5 213 39.5t115 90.5t35 124v11q0 93 -58.5 166.5t-183.5 116.5t-326 43
q-141 0 -259.5 -21t-215.5 -58l-23 -263q108 44 223.5 67t237.5 23q154 0 214 -34.5t60 -91.5v-4q0 -42 -28 -69.5t-100.5 -42t-206.5 -18.5l-215 -4v-234l233 -7q126 -3 198 -17.5t102.5 -42t30.5 -70.5v-5q0 -42 -29.5 -71.5t-96 -45t-177.5 -15.5q-134 0 -259.5 28.5
t-234.5 77.5zM808 708v-141l190 -52l8 19q49 -14 98.5 -26t106.5 -18.5t129 -6.5h326v243h-353q-68 0 -120.5 -2t-98 -6t-94.5 -9l-1 13zM1031 -457q165 0 296 27t223 71l13 243q-112 -53 -246 -82t-286 -29t-286 29t-246 82l12 -243q92 -45 223.5 -71.5t296.5 -26.5z
M1031 -827q165 0 296 27t223 72l13 242q-112 -53 -246 -82t-286 -29t-286 29t-246 82l12 -242q92 -46 223.5 -72.5t296.5 -26.5z" />
    <glyph glyph-name="uni0978" unicode="&#x978;" horiz-adv-x="1544" 
d="M1598 1028l-18 233h-1635l19 -233h1634zM584 1107h-329v-523h329v523zM254 208h330v483h-327l-159 -74q8 -82 30 -154.5t54.5 -135.5t71.5 -119zM502 728l40 -254q73 18 142 26.5t146 8.5q145 0 204.5 -46.5t59.5 -129.5q0 -80 -52 -159.5t-149 -167.5v-6h380
q77 74 120 164.5t43 195.5q0 123 -60 215t-186 143t-327 51q-100 0 -188 -10.5t-173 -30.5z" />
    <glyph glyph-name="uni0979" unicode="&#x979;" horiz-adv-x="1834" 
d="M343 -312q81 0 120 38.5t39 99.5v7q0 61 -39 100.5t-120 39.5q-79 0 -119.5 -39.5t-40.5 -100.5v-7q0 -61 40.5 -99.5t119.5 -38.5zM798 -312q80 0 119.5 38.5t39.5 99.5v7q0 61 -39.5 100.5t-119.5 39.5t-120.5 -39.5t-40.5 -100.5v-7q0 -61 40.5 -99.5t120.5 -38.5z
M570 -629q80 0 119.5 38.5t39.5 99.5v7q0 61 -39.5 100.5t-119.5 39.5t-120.5 -39.5t-40.5 -100.5v-7q0 -61 40.5 -99.5t120.5 -38.5zM1662 1101h-331v-1101h331v1101zM1242 1028h647l-19 233h-647zM1789 1028l-19 233h-1825l19 -233h1825zM1395 834h-1131v-237l435 -1
l372 -9h324v247zM890 656h-626v-59l221 -7q104 -3 160.5 -22.5t79 -52.5t22.5 -79v-6q0 -68 -55 -106.5t-182 -38.5q-116 0 -223.5 36t-208.5 97l16 -274q88 -54 206.5 -85.5t272.5 -31.5q257 0 385 84.5t128 225.5v6q0 85 -47 145t-149 94v74z" />
    <glyph glyph-name="uni097A" unicode="&#x97a;" horiz-adv-x="1665" 
d="M639 735q43 -24 78.5 -43t80.5 -41l383 -191l65 178q-53 28 -93 48.5t-95 47.5l-340 167zM1492 1101h-331v-1101h331v1101zM1073 1028h647l-19 233h-647zM-55 1261l18 -233h1726l-19 233h-1725zM723 1082h-348q73 -39 100 -84t27 -95v-4q0 -51 -29.5 -86.5t-99.5 -54
t-193 -18.5h-71l99 -205l166 6q245 8 357 84.5t112 211.5v7q0 72 -30 130.5t-90 107.5zM98 599v-8q0 -228 154.5 -351.5t436.5 -123.5q210 0 319 68t142 165h28l-11 200q-25 -77 -120 -123.5t-277 -46.5q-123 0 -201.5 22t-115.5 64t-37 98v112l-307 65q-6 -41 -8.5 -74
t-2.5 -67z" />
    <glyph glyph-name="uni097B" unicode="&#x97b;" horiz-adv-x="1589" 
d="M1085 5h-974v-224h1305v369h-331v-145zM1416 1101h-331v-1101h331v1101zM997 1028h647l-19 233h-647zM-36 1028h1646l-19 233h-1646zM632 1057h-367q91 -54 133 -128t42 -159v-7q0 -70 -26 -116.5t-82.5 -70.5t-147.5 -24q-36 0 -67.5 2.5t-58.5 7.5l24 -271
q42 -9 90 -14.5t108 -5.5q162 0 273.5 51.5t168.5 149.5t57 235v10q0 103 -37 192t-110 148z" />
    <glyph glyph-name="uni097C" unicode="&#x97c;" horiz-adv-x="1834" 
d="M1331 -113h-1216v-224h1547v391h-331v-167zM1662 1101h-331v-1101h331v1101zM1242 1028h647l-19 233h-647zM1789 1028l-19 233h-1825l19 -233h1825zM1395 834h-1131v-237l435 -1l372 -9h324v247zM890 656h-626v-59l221 -7q104 -3 160.5 -22.5t79 -52.5t22.5 -79v-6
q0 -68 -55 -106.5t-182 -38.5q-116 0 -223.5 36t-208.5 97l16 -274q88 -54 206.5 -85.5t272.5 -31.5q257 0 385 84.5t128 225.5v6q0 85 -47 145t-149 94v74z" />
    <glyph glyph-name="uni097D" unicode="&#x97d;" horiz-adv-x="1364" 
d="M292 595l17 -236h286q243 0 394.5 49.5t222 149t70.5 248.5v10q0 134 -66 240t-203 167.5t-352 61.5q-156 0 -282.5 -25.5t-235.5 -68.5l-23 -272q115 48 235 78.5t262 30.5q178 0 249.5 -57.5t71.5 -152.5v-7q0 -107 -90.5 -161.5t-321.5 -54.5h-234zM623 521l-331 74
v-595h331v521z" />
    <glyph glyph-name="uni097E" unicode="&#x97e;" horiz-adv-x="1463" 
d="M148 -410h1155v224h-1155v-224zM1508 1028l-19 233h-1538l19 -233h1538zM957 1108v-388q3 0 34 -4t75 -9.5t89 -11t79 -10t44 -5.5v428h-321zM100 307l25 -257q109 -47 272.5 -77t364.5 -30q238 0 370.5 40t186 113t53.5 171v7q0 92 -47 160.5t-154 107.5t-285 39
q-117 0 -207 -12t-178 -32q-26 11 -40 27.5t-14 41.5v3q0 31 27.5 53.5t100.5 34.5t212 12q131 0 251 -7t240 -22v196q-158 23 -296.5 32.5t-287.5 9.5q-216 0 -342 -36t-180.5 -104t-54.5 -163v-7q0 -115 80.5 -190.5t229.5 -110.5q84 23 178 38t221 15q86 0 132.5 -10.5
t65 -29t18.5 -45.5v-3q0 -32 -25.5 -53.5t-96.5 -32.5t-210 -11q-163 0 -316.5 35t-293.5 97zM853 1028h644l-19 233h-644zM1278 1101h-321v-201h321v201z" />
    <glyph glyph-name="uni097F" unicode="&#x97f;" horiz-adv-x="1671" 
d="M1166 -74h-1021v-224h1353v352h-332v-128zM1498 1101h-331v-1101h331v1101zM1079 1028h647l-19 233h-647zM-34 1028h1661l-19 233h-1661zM400 672l614 -444l108 125l-577 421zM98 492q0 -199 155.5 -308t427.5 -109q147 0 243 29.5t151.5 80t81.5 113.5h29l-10 224
q-32 -95 -136.5 -151.5t-285.5 -56.5q-168 0 -252.5 44.5t-84.5 131.5v7q0 88 81.5 133t244.5 45q78 0 149.5 -7t139.5 -22l-25 226q-82 17 -160 25t-177 8q-280 0 -426 -104.5t-146 -299.5v-9z" />
    <glyph glyph-name="Germandbls" unicode="&#x1e9e;" horiz-adv-x="1746" 
d="M480 664v-664h-343v674q0 299 164.5 451.5t494.5 152.5h788v-247l-513 -387l-148 55q69 24 146.5 34t137.5 10q217 0 334.5 -84.5t117.5 -267.5v-11q0 -207 -148 -310.5t-442 -103.5q-120 0 -219 19.5t-163 38.5l-37 295q71 -25 170 -45t209 -20q149 0 209.5 36.5
t60.5 104.5v4q0 70 -61.5 103t-212.5 33q-71 0 -131 -4.5t-131 -11.5v201l477 345l19 -58h-411q-188 0 -278 -82t-90 -261z" />
    <glyph glyph-name="figurespace" unicode="&#x2007;" horiz-adv-x="1576" 
 />
    <glyph glyph-name="punctuationspace" unicode="&#x2008;" horiz-adv-x="582" 
 />
    <glyph glyph-name="thinspace" unicode="&#x2009;" horiz-adv-x="400" 
 />
    <glyph glyph-name="hairspace" unicode="&#x200a;" horiz-adv-x="286" 
 />
    <glyph glyph-name="zerowidthspace" unicode="&#x200b;" horiz-adv-x="0" 
 />
    <glyph glyph-name="ZWNJ" unicode="&#x200c;" horiz-adv-x="0" 
 />
    <glyph glyph-name="ZWJ" unicode="&#x200d;" horiz-adv-x="0" 
 />
    <glyph glyph-name="endash" unicode="&#x2013;" horiz-adv-x="1275" 
d="M1167 389h-1059v262h1059v-262z" />
    <glyph glyph-name="emdash" unicode="&#x2014;" horiz-adv-x="2340" 
d="M2231 389h-2122v262h2122v-262z" />
    <glyph glyph-name="quoteleft" unicode="&#x2018;" horiz-adv-x="533" 
d="M411 780h-317q-4 21 -6.5 51.5t-2.5 60.5q0 130 39.5 240t128.5 208l241 -50q-45 -85 -67 -179t-22 -208q0 -32 1.5 -62t4.5 -61z" />
    <glyph glyph-name="quoteright" unicode="&#x2019;" horiz-adv-x="533" 
d="M122 1316h317q4 -22 6.5 -52t2.5 -61q0 -129 -39 -239t-129 -209l-240 51q45 86 67 179.5t22 207.5q0 32 -1.5 61.5t-5.5 61.5z" />
    <glyph glyph-name="quotesinglbase" unicode="&#x201a;" horiz-adv-x="528" 
d="M117 327h317q4 -24 7 -55.5t3 -63.5q0 -137 -41 -253t-137 -222l-242 51q51 92 75 192t24 220q0 35 -1.5 66t-4.5 65z" />
    <glyph glyph-name="quotedblleft" unicode="&#x201c;" horiz-adv-x="1002" 
d="M411 780h-317q-4 21 -6.5 51.5t-2.5 60.5q0 130 39.5 240t128.5 208l241 -50q-45 -85 -67 -179t-22 -208q0 -32 1.5 -62t4.5 -61zM880 780h-317q-4 21 -6.5 51.5t-2.5 60.5q0 130 39 240t128 208l241 -50q-45 -85 -67 -179t-22 -208q0 -32 1.5 -62t5.5 -61z" />
    <glyph glyph-name="quotedblright" unicode="&#x201d;" horiz-adv-x="1002" 
d="M591 1316h317q4 -22 6.5 -52t2.5 -61q0 -129 -39.5 -239t-128.5 -209l-241 51q45 86 67 179.5t22 207.5q0 32 -1.5 61.5t-4.5 61.5zM122 1316h317q4 -22 6.5 -52t2.5 -61q0 -129 -39 -239t-129 -209l-240 51q45 86 67 179.5t22 207.5q0 32 -1.5 61.5t-5.5 61.5z" />
    <glyph glyph-name="quotedblbase" unicode="&#x201e;" horiz-adv-x="1000" 
d="M577 327h317q5 -24 8 -55.5t3 -63.5q0 -137 -41 -253t-138 -222l-242 51q51 92 75.5 192t24.5 220q0 35 -1.5 66t-5.5 65zM117 327h317q4 -24 7 -55.5t3 -63.5q0 -137 -41 -253t-137 -222l-242 51q51 92 75 192t24 220q0 35 -1.5 66t-4.5 65z" />
    <glyph glyph-name="bullet" unicode="&#x2022;" horiz-adv-x="777" 
d="M388 346q-145 0 -213 66.5t-68 181.5v7q0 116 68 183t213 67q144 0 212.5 -67t68.5 -183v-7q0 -115 -68.5 -181.5t-212.5 -66.5z" />
    <glyph glyph-name="ellipsis" unicode="&#x2026;" horiz-adv-x="1697" 
d="M1405 -31q-99 0 -146 45.5t-47 125.5v4q0 80 47 126.5t146 46.5q100 0 147 -46.5t47 -125.5v-5q0 -80 -47.5 -125.5t-146.5 -45.5zM848 -31q-99 0 -146 45.5t-47 125.5v4q0 80 47 126.5t146 46.5t146.5 -46.5t47.5 -125.5v-5q0 -80 -47.5 -125.5t-146.5 -45.5zM291 -31
q-99 0 -146 45.5t-47 125.5v4q0 80 47 126.5t146 46.5t146.5 -46.5t47.5 -125.5v-5q0 -80 -47.5 -125.5t-146.5 -45.5z" />
    <glyph glyph-name="guilsinglleft" unicode="&#x2039;" horiz-adv-x="751" 
d="M739 888l-369 -413l369 -411h-336l-355 400v44l355 380h336z" />
    <glyph glyph-name="guilsinglright" unicode="&#x203a;" horiz-adv-x="751" 
d="M12 64l369 411l-369 413h336l355 -380v-44l-355 -400h-336z" />
    <glyph glyph-name="fraction" unicode="&#x2044;" horiz-adv-x="542" 
d="M-188 0h-299l1243 1278h293z" />
    <glyph glyph-name="zerosuperior" unicode="&#x2070;" horiz-adv-x="958" 
d="M479 725q-208 0 -317.5 93t-109.5 266v7q0 171 109 264.5t318 93.5t318 -93.5t109 -264.5v-7q0 -173 -109 -266t-318 -93zM479 918q92 0 136.5 44t44.5 121v8q0 77 -44.5 121t-136.5 44t-136.5 -44t-44.5 -121v-8q0 -77 45 -121t136 -44z" />
    <glyph glyph-name="foursuperior" unicode="&#x2074;" horiz-adv-x="905" 
d="M771 751h-224v387l2 137h-13l-250 -238v-82l-103 75h700v-178h-849v200l386 373h351v-674z" />
    <glyph glyph-name="fivesuperior" unicode="&#x2075;" horiz-adv-x="878" 
d="M420 727q-104 0 -195.5 15.5t-137.5 29.5l-22 187q59 -16 149.5 -32.5t193.5 -16.5q110 0 143.5 18t33.5 46v3q0 28 -24.5 43t-92.5 15q-58 0 -107 -12.5t-91 -31.5l-202 37v397h727v-179h-507v-81l-1 -70h4q46 40 110.5 62.5t165.5 22.5q142 0 205 -53t63 -152v-10
q0 -73 -40 -126t-131 -82.5t-244 -29.5z" />
    <glyph glyph-name="sixsuperior" unicode="&#x2076;" horiz-adv-x="922" 
d="M488 725q-208 0 -324 90t-116 253v11q0 174 119 271.5t341 97.5q83 0 156.5 -12t132.5 -31l27 -179q-55 17 -118.5 29t-147.5 12q-92 0 -151.5 -21t-88.5 -62.5t-29 -100.5v-9q0 -87 51.5 -124.5t152.5 -37.5q75 0 111 17.5t36 47.5v4q0 26 -26 42.5t-108 16.5
q-73 0 -124.5 -20t-81.5 -48l-34 84h29q18 37 55 65.5t94 45t131 16.5q147 0 224.5 -51t77.5 -157v-10q0 -115 -100 -177.5t-289 -62.5z" />
    <glyph glyph-name="sevensuperior" unicode="&#x2077;" horiz-adv-x="791" 
d="M409 751h-278l360 487h-457v187h720v-192z" />
    <glyph glyph-name="eightsuperior" unicode="&#x2078;" horiz-adv-x="935" 
d="M466 720q-162 0 -254 26.5t-130 72.5t-38 105v8q0 48 22 82.5t64.5 56.5t104.5 29v8q-57 5 -96.5 23.5t-60 48.5t-20.5 72v9q0 84 98 133.5t310 49.5q214 0 312.5 -49.5t98.5 -133.5v-9q0 -63 -46 -100t-131 -44v-8q94 -12 142.5 -54.5t48.5 -113.5v-8q0 -54 -34.5 -100
t-126 -75t-264.5 -29zM471 891q93 0 130 17.5t37 45.5v3q0 28 -41 45t-139 23q-90 -6 -125.5 -24t-35.5 -45v-3q0 -28 38.5 -45t135.5 -17zM474 1161q78 4 115.5 20.5t37.5 40.5v3q0 27 -37 41.5t-124 14.5q-84 0 -121 -14t-37 -40v-4q0 -24 36.5 -41t129.5 -21z" />
    <glyph glyph-name="ninesuperior" unicode="&#x2079;" horiz-adv-x="920" 
d="M436 1448q209 0 322.5 -91.5t113.5 -259.5v-9q0 -112 -57 -192.5t-165.5 -123.5t-264.5 -43q-76 0 -143 11t-124 28l-27 186q56 -18 120 -30t145 -12q144 0 212.5 48t68.5 136v8q0 90 -51.5 127.5t-148.5 37.5q-77 0 -114 -17.5t-37 -46.5v-3q0 -26 25 -44t108 -18
q74 0 126 17.5t82 43.5l34 -87h-30q-22 -38 -60.5 -65t-94.5 -42t-129 -15q-150 0 -226 51t-76 158v10q0 111 100 174t291 63z" />
    <glyph glyph-name="zeroinferior" unicode="&#x2080;" horiz-adv-x="958" 
d="M479 -222q-208 0 -317.5 93t-109.5 265v8q0 171 109 264t318 93t318 -93t109 -264v-8q0 -172 -109 -265t-318 -93zM479 -29q92 0 136.5 44t44.5 120v9q0 77 -44.5 120.5t-136.5 43.5t-136.5 -43.5t-44.5 -120.5v-9q0 -76 45 -120t136 -44z" />
    <glyph glyph-name="oneinferior" unicode="&#x2081;" horiz-adv-x="543" 
d="M466 -196h-232v461h-9l-199 -73l8 202l223 84h209v-674z" />
    <glyph glyph-name="twoinferior" unicode="&#x2082;" horiz-adv-x="802" 
d="M759 -196h-721v189l257 104q69 28 115 50.5t69 45.5t23 50v2q0 36 -33 52.5t-114 16.5t-164.5 -20t-151.5 -45l23 187q57 26 147 45.5t180 19.5q174 0 265.5 -58t91.5 -166v-8q0 -56 -23.5 -100t-73 -77.5t-127.5 -60.5l-89 -33v-46l-129 40h455v-188z" />
    <glyph glyph-name="threeinferior" unicode="&#x2083;" horiz-adv-x="836" 
d="M398 -222q-110 0 -197 14t-141 27l-20 184q62 -17 145 -31t170 -14q108 0 143.5 15t35.5 42v2q0 11 -4.5 19.5t-16 15t-32.5 9.5t-53 3l-257 6v146l257 6q57 1 80 13.5t23 35.5v2q0 26 -34 37.5t-124 11.5q-100 0 -186 -15t-142 -30l19 174q63 21 150 35t191 14
q191 0 286 -46t95 -141v-6q0 -61 -39 -100.5t-128 -46.5v-24l-16 18q103 -10 146 -50t43 -110v-8q0 -65 -43 -111.5t-130 -71.5t-221 -25z" />
    <glyph glyph-name="fourinferior" unicode="&#x2084;" horiz-adv-x="905" 
d="M771 -196h-224v387l2 137h-13l-250 -238v-83l-103 76h700v-179h-849v200l386 373h351v-673z" />
    <glyph glyph-name="fiveinferior" unicode="&#x2085;" horiz-adv-x="878" 
d="M420 -220q-104 0 -195.5 15t-137.5 30l-22 186q59 -16 149.5 -32.5t193.5 -16.5q110 0 143.5 18.5t33.5 46.5v2q0 29 -24.5 44t-92.5 15q-58 0 -107 -12.5t-91 -31.5l-202 37v396h727v-178h-507v-82l-1 -69h4q46 40 110.5 62.5t165.5 22.5q142 0 205 -53.5t63 -152.5v-10
q0 -72 -40 -125.5t-131 -82.5t-244 -29z" />
    <glyph glyph-name="sixinferior" unicode="&#x2086;" horiz-adv-x="922" 
d="M488 -222q-208 0 -324 89.5t-116 253.5v10q0 175 119 272t341 97q83 0 156.5 -12t132.5 -30l27 -179q-55 17 -118.5 28.5t-147.5 11.5q-92 0 -151.5 -21t-88.5 -62t-29 -101v-8q0 -87 51.5 -125t152.5 -38q75 0 111 17.5t36 48.5v3q0 27 -26 43.5t-108 16.5
q-73 0 -124.5 -20t-81.5 -48l-34 83h29q18 37 55 65.5t94 45t131 16.5q147 0 224.5 -51t77.5 -157v-9q0 -116 -100 -178t-289 -62z" />
    <glyph glyph-name="seveninferior" unicode="&#x2087;" horiz-adv-x="791" 
d="M409 -196h-278l360 487h-457v186h720v-191z" />
    <glyph glyph-name="eightinferior" unicode="&#x2088;" horiz-adv-x="935" 
d="M466 -227q-162 0 -254 26t-130 72.5t-38 104.5v8q0 48 22 83t64.5 57t104.5 29v7q-57 6 -96.5 24t-60 48.5t-20.5 72.5v8q0 85 98 134.5t310 49.5q214 0 312.5 -49.5t98.5 -134.5v-8q0 -63 -46 -100t-131 -45v-7q94 -12 142.5 -55t48.5 -114v-8q0 -53 -34.5 -99.5
t-126 -75t-264.5 -28.5zM471 -56q93 0 130 17.5t37 45.5v3q0 28 -41 45t-139 22q-90 -5 -125.5 -23.5t-35.5 -44.5v-3q0 -28 38.5 -45t135.5 -17zM474 214q78 3 115.5 20t37.5 41v3q0 26 -37 41t-124 15q-84 0 -121 -14.5t-37 -39.5v-5q0 -23 36.5 -40.5t129.5 -20.5z" />
    <glyph glyph-name="nineinferior" unicode="&#x2089;" horiz-adv-x="920" 
d="M436 500q209 0 322.5 -91t113.5 -259v-9q0 -112 -57 -193t-165.5 -124t-264.5 -43q-76 0 -143 11t-124 29l-27 186q56 -18 120 -30.5t145 -12.5q144 0 212.5 48t68.5 137v8q0 90 -51.5 127t-148.5 37q-77 0 -114 -17t-37 -47v-3q0 -25 25 -43.5t108 -18.5q74 0 126 18
t82 43l34 -87h-30q-22 -38 -60.5 -65t-94.5 -42t-129 -15q-150 0 -226 51t-76 158v10q0 111 100 174t291 63z" />
    <glyph glyph-name="euro" unicode="&#x20ac;" horiz-adv-x="1469" 
d="M958 -41q-397 0 -586.5 178t-189.5 497v17q0 313 188 490.5t586 177.5q120 0 221.5 -22t166.5 -50l29 -287q-72 31 -169.5 50.5t-216.5 19.5q-229 0 -333 -100.5t-104 -276.5v-17q0 -179 106 -281t352 -102q116 0 212.5 21.5t157.5 50.5l-30 -298q-52 -22 -154.5 -45
t-235.5 -23zM1186 402h-1164l19 182h1163zM1186 705h-1164l19 182h1163z" />
    <glyph glyph-name="rupeeIndian" unicode="&#x20b9;" horiz-adv-x="1389" 
d="M1335 1076l-21 202h-1235l19 -202h1237zM1138 0v18l-242 193q-55 45 -102 80.5t-96.5 66t-113.5 61.5l3 100l-489 113v-248l165 -16l425 -368h450zM973 1107h-347q82 -49 118.5 -108t36.5 -132v-23q0 -103 -81 -157.5t-281 -54.5h-321l291 -236l138 4q307 10 448 118.5
t141 285.5v10q0 88 -35.5 160.5t-107.5 132.5zM1335 757l-21 202h-1235l19 -202h1237z" />
    <glyph glyph-name="minus" unicode="&#x2212;" horiz-adv-x="1310" 
d="M1187 470h-1064v262h1064v-262z" />
    <glyph glyph-name="divisionslash" unicode="&#x2215;" horiz-adv-x="1243" 
d="M299 -258h-327l974 1602h326z" />
    <glyph glyph-name="bulletoperator" unicode="&#x2219;" horiz-adv-x="582" 
d="M291 331q-99 0 -146 46t-47 125v4q0 80 47 126.5t146 46.5t146.5 -46.5t47.5 -125.5v-5q0 -79 -47.5 -125t-146.5 -46z" />
    <glyph glyph-name="uni25CC" unicode="&#x25cc;" horiz-adv-x="1128" 
d="M620 926q0 -25 -16 -41.5t-41 -16.5q-56 0 -56 58q0 24 15.5 41t40.5 17t41 -17t16 -41zM340 787q0 -25 -16 -41t-41 -16q-56 0 -56 57q0 25 15.5 41.5t40.5 16.5t41 -16.5t16 -41.5zM899 785q0 -25 -15.5 -40.5t-40.5 -15.5q-56 0 -56 56q0 25 15.5 41.5t40.5 16.5
t40.5 -16.5t15.5 -41.5zM218 500q0 -25 -15.5 -40.5t-40.5 -15.5t-40.5 15.5t-15.5 40.5t15.5 41.5t40.5 16.5t40.5 -16.5t15.5 -41.5zM1023 500q0 -25 -17 -40.5t-42 -15.5q-24 0 -40 15.5t-16 40.5t16 41.5t40 16.5q25 0 42 -16.5t17 -41.5zM340 216q0 -25 -16 -40.5
t-41 -15.5q-56 0 -56 56q0 25 15.5 42t40.5 17t41 -17t16 -42zM899 216q0 -25 -15.5 -40.5t-40.5 -15.5q-56 0 -56 56q0 25 15.5 42t40.5 17t40.5 -17t15.5 -42zM620 77q0 -26 -16 -42t-41 -16q-56 0 -56 58q0 24 15.5 40.5t40.5 16.5t41 -16.5t16 -40.5z" />
    <glyph glyph-name="uniA8FB" unicode="&#xa8fb;" horiz-adv-x="1131" 
d="M1185 1030l-18 231h-1222l19 -231h1221z" />
    <glyph glyph-name="KaSsa.dv" horiz-adv-x="2095" 
d="M1923 1101h-331v-1101h331v1101zM1503 1028h647l-19 233h-647zM2119 1028l-19 233h-694l19 -233h694zM1012 -166h326l-60 334v255h-334v-251l20 -24zM700 793l-144 -42q-154 -19 -256 -65.5t-152 -122t-50 -182.5v-8q0 -120 65 -206.5t186 -133.5t287 -47
q130 0 222.5 25.5t146.5 76.5l-27 218q-47 -29 -116 -45.5t-160 -16.5q-82 0 -141 17.5t-90 50.5t-31 79v5q0 50 33.5 84t110.5 60.5t209 51.5l277 157q109 37 156.5 94.5t47.5 138.5v5q0 145 -135.5 227.5t-399.5 82.5q-265 0 -402.5 -84.5t-137.5 -237.5v-5
q0 -106 73.5 -171.5t222.5 -95.5l259 -111q74 -23 151.5 -36t169.5 -17.5t208 -4.5h357v240h-265q-74 0 -131 -1.5t-116 -6t-138 -13.5l-217 39q-124 25 -180.5 58.5t-56.5 83.5v3q0 55 50 84t150 29q102 0 152 -29t50 -84v-3q0 -54 -65.5 -86.5t-172.5 -54.5z" />
    <glyph glyph-name="JaNya.dv" horiz-adv-x="1835" 
d="M1662 1101h-331v-1101h331v1101zM1243 1028h647l-19 233h-647zM1790 1028l-19 233h-1826l19 -233h1826zM1396 816h-1193v-238h461l391 -9h341v247zM908 -325v16l-117 120q-42 44 -78.5 74t-79 56t-104.5 55v57l-436 60l149 -64l285 -374h381zM884 633h-681v-55l252 -9
q114 -3 177 -24.5t88.5 -56t25.5 -78.5v-5q0 -71 -57 -109t-180 -38q-112 0 -219 35t-211 95l14 -275l252 -63q47 -19 115 -34t138 -15q237 0 362 82t125 221v6q0 92 -48 153.5t-153 100.5v69z" />
    <glyph glyph-name="Sha.MAR.dv" horiz-adv-x="1983" 
d="M1810 1101h-331v-1101h331v1101zM1391 1028h647l-19 233h-647zM-45 1261l18 -233h1965l-19 233h-1964zM524 860l318 -4v266h-318v-262zM1115 -125v26l-162 113q-53 38 -101.5 65.5t-103 49t-127.5 41.5v129l-517 138v-245l184 -26l342 -291h485zM677 925
q-162 0 -286 -19.5t-236 -56.5l-23 -271q126 47 246.5 71t255.5 24q140 0 197 -34t57 -89v-4q0 -67 -88.5 -99.5t-307.5 -32.5q-70 0 -132 2t-124 7.5t-132 13.5l145 -243q88 -11 164.5 -15t167.5 -4q345 0 498 93t153 270v7q0 108 -61 194t-184 136t-310 50z" />
    <glyph glyph-name="La.MAR.dv" horiz-adv-x="1901" 
d="M1094 1028h645l-19 233h-644zM1519 1101h-320v-201h320v201zM-36 1028h1992l-19 233h-1992zM1519 1074h-321v-259l321 -1v260zM580 860q-150 0 -256.5 -53t-163 -150t-56.5 -228v-9q0 -78 25 -153.5t74 -143t121 -123.5h390v7q-87 66 -146.5 130t-89.5 130.5t-30 140.5v7
q0 85 48 135.5t131 50.5t120 -42.5t42 -135.5l9 -183h316l9 183q5 93 47 135.5t118 42.5q84 0 127.5 -50.5t43.5 -132.5v-7q0 -74 -30.5 -142t-89.5 -133t-144 -129v-7h391q70 56 118 122.5t73 142t25 156.5v11q0 123 -53 220t-156.5 152.5t-258.5 55.5q-163 0 -253.5 -56
t-121.5 -147h-9q-31 91 -116.5 147t-253.5 56z" />
    <glyph glyph-name="Paanch.dv" horiz-adv-x="1425" 
d="M1112 -367v19l-103 105q-54 56 -99 94t-95.5 68t-122.5 61v59l-439 53l-6 -25l159 -57l302 -377h404zM961 536q0 -153 -78.5 -223t-243.5 -70q-108 0 -209 24.5t-203 67.5l20 -268l201 -48q52 -14 118 -22.5t140 -8.5q304 0 445 137.5t141 404.5v567h-331v-561zM220 1244
q-59 -71 -89.5 -158t-30.5 -183v-17q0 -146 62.5 -244.5t172 -148.5t250.5 -50q106 0 180.5 26.5t120 72.5t63.5 106h27l-10 218q-19 -78 -85.5 -121t-174.5 -43q-131 0 -197 56t-66 164v7q0 87 32 163.5t93 151.5h-348z" />
    <glyph glyph-name="Aanth.dv" horiz-adv-x="1403" 
d="M1289 1090h-1226v-257h194l195 7h836zM1287 114v277q-56 33 -119.5 45.5t-184.5 12.5h-156q-119 0 -190.5 21t-103 63.5t-31.5 105.5v4q0 58 28.5 100.5t87.5 67.5t150 31v50l-397 -3v-62q-113 -35 -163.5 -105t-50.5 -166v-5q0 -112 60.5 -193t197.5 -124.5t369 -42.5
l184 1q112 1 180 -16.5t139 -61.5z" />
    <glyph glyph-name="vowelIiBindu.dv" horiz-adv-x="1463" 
d="M853 1028h645l-19 233h-645zM1278 1101h-320v-201h320v201zM1508 1028l-18 233h-1539l19 -233h1538zM957 1091v-371l321 -40v411h-321zM1086 -400v20l-147 131q-48 43 -91 75t-94.5 60t-125.5 58v66l-503 38l200 -65l362 -383h399zM100 307l25 -259l306 -52
q75 -23 162.5 -38.5t168.5 -15.5q238 0 370.5 40.5t186 113t53.5 170.5v8q0 90 -47 159t-154 108t-285 39q-117 0 -207 -12t-178 -31q-24 9 -39 25.5t-15 43.5v3q0 32 27.5 54t100.5 34t212 12q131 0 251 -7t240 -22v196q-158 23 -296.5 32.5t-287.5 9.5q-218 0 -344 -37
t-179.5 -105.5t-53.5 -164.5v-7q0 -111 77.5 -186.5t231.5 -110.5q84 22 179 37t221 15q129 0 172.5 -23t43.5 -65v-2q0 -30 -24 -51t-95 -32.5t-212 -11.5q-108 0 -212.5 16t-204.5 46t-194 71zM948 1238h237v19q-82 34 -126 78.5t-44 112.5v8q0 75 55.5 115.5t168.5 40.5
q43 0 83.5 -3.5t82.5 -9.5l-34 224q-55 11 -114 16t-121 5q-220 0 -324 -82t-104 -214v-9q0 -99 57.5 -164t182.5 -106v-31zM1261 1335q61 0 87 26.5t26 69.5v1.5v1.5q0 44 -27.5 71.5t-85.5 27.5q-57 0 -84 -28.5t-27 -70.5v-1.5v-1.5q0 -43 26.5 -69.5t84.5 -26.5z" />
    <glyph glyph-name="KamatraLru.dv" horiz-adv-x="1987" 
d="M843 -476h285l6 141q3 85 42 122t111 37q71 0 104 -32.5t33 -82.5v-8l306 14v16q0 93 -44.5 167.5t-128 118t-202.5 43.5q-144 0 -221 -54.5t-108 -145.5h-74q-18 61 -52 106t-94 70t-158 25q-189 0 -303 -97t-114 -267v-11q0 -118 51.5 -211.5t148.5 -174.5h349
q-118 105 -178.5 191t-60.5 177v6q0 70 40.5 109t108.5 39q72 0 107.5 -36.5t39.5 -120.5zM1730 -273l-306 -15v-5q0 -29 -10.5 -54t-37.5 -53t-78 -68q-81 -65 -118.5 -126t-37.5 -137q0 -125 95 -198.5t255 -73.5q71 0 126.5 11.5t98.5 32.5l16 231q-41 -25 -90.5 -41.5
t-106.5 -16.5q-60 0 -89.5 16t-29.5 46q0 38 37.5 68.5t107.5 83.5q60 47 97 90t54 92t17 110v7zM-16 1028h2046l-17 233h-2048zM926 -170h149q33 90 49.5 160.5t22 136t5.5 140.5v817h-311v-820q0 -73 7.5 -138.5t25.5 -136.5t52 -159zM90 539v-5q0 -177 111 -273t307 -96
q97 0 162.5 22.5t104 61t55.5 85.5h27l-12 212q-20 -58 -77 -94.5t-158 -36.5q-99 0 -146.5 30.5t-47.5 90.5v5q0 56 46.5 86.5t140.5 30.5q39 0 73.5 -3.5t70.5 -10.5l-19 233q-46 12 -94.5 19t-107.5 7q-211 0 -323.5 -94t-112.5 -270zM1897 526v5q0 165 -101 268.5
t-294 103.5q-97 0 -165.5 -24.5t-111.5 -66t-61 -93.5h-46l26 -216q22 71 85.5 111t165.5 40q90 -1 133 -33t43 -89v-3q0 -55 -41 -87.5t-134 -32.5q-35 0 -68 4.5t-70 12.5l19 -237q43 -13 92 -18.5t107 -5.5q207 0 314 92.5t107 268.5z" />
    <glyph glyph-name="KamatraLruu.dv" horiz-adv-x="1987" 
d="M1730 -266l-305 -16v-8q0 -27 -9.5 -48t-34.5 -42.5t-72 -52.5q-93 -59 -134.5 -116.5t-41.5 -133.5q0 -119 94 -186.5t240 -67.5q80 0 140 12t101 33l17 210q-43 -25 -95.5 -38.5t-108.5 -13.5q-60 0 -87 12t-27 40q0 33 39.5 59.5t115.5 73.5q91 58 129.5 121t38.5 155
v7zM1468 -932l-192 51v-26q-65 -17 -98 -53.5t-33 -93.5q0 -96 86.5 -153.5t239.5 -57.5q76 0 135.5 13t105.5 36l17 208q-53 -28 -103 -40t-108 -12q-63 0 -92.5 16.5t-29.5 45.5q0 25 18.5 41t53.5 25zM843 -470h285l6 139q3 81 42 118t110 37q70 0 104.5 -31t34.5 -78v-3
l305 16v3q0 93 -45 167.5t-130.5 117.5t-206.5 43q-134 0 -213.5 -54t-107.5 -145h-75q-18 61 -52 106t-94.5 70t-159.5 25q-187 0 -301 -97t-114 -267v-11q0 -119 52 -212t149 -174h348q-119 105 -179 191t-60 177v6q0 70 40.5 109t108.5 39q72 0 107.5 -36t38.5 -117z
M-16 1028h2046l-17 233h-2048zM926 -170h149q33 90 49.5 160.5t22 136t5.5 140.5v817h-311v-820q0 -73 7.5 -138.5t25.5 -136.5t52 -159zM90 539v-5q0 -177 111 -273t307 -96q97 0 162.5 22.5t104 61t55.5 85.5h27l-12 212q-20 -58 -77 -94.5t-158 -36.5q-99 0 -146.5 30.5
t-47.5 90.5v5q0 56 46.5 86.5t140.5 30.5q39 0 73.5 -3.5t70.5 -10.5l-19 233q-46 12 -94.5 19t-107.5 7q-211 0 -323.5 -94t-112.5 -270zM1897 526v5q0 165 -101 268.5t-294 103.5q-97 0 -165.5 -24.5t-111.5 -66t-61 -93.5h-46l26 -216q22 71 85.5 111t165.5 40
q90 -1 133 -33t43 -89v-3q0 -55 -41 -87.5t-134 -32.5q-35 0 -68 4.5t-70 12.5l19 -237q43 -13 92 -18.5t107 -5.5q207 0 314 92.5t107 268.5z" />
    <glyph glyph-name="PamatraLru.dv" horiz-adv-x="1517" 
d="M1487 -123l-306 -14v-6q0 -29 -10.5 -53.5t-37.5 -53t-78 -68.5q-81 -65 -119 -126.5t-38 -136.5q0 -125 95 -198.5t256 -73.5q71 0 126.5 11.5t97.5 33.5l16 230q-41 -25 -90.5 -41.5t-104.5 -16.5q-61 0 -91 16t-30 46q0 37 37.5 68t108.5 84q61 47 97.5 89.5t53.5 91
t17 111.5v7zM626 -323h284l7 137q3 86 38 122.5t100 36.5q63 0 94.5 -31.5t31.5 -80.5v-9l306 14v13q0 93 -45 168t-129.5 118.5t-206.5 43.5q-137 0 -221 -52.5t-109 -137.5h-7q-26 86 -101.5 139t-220.5 53q-184 0 -294.5 -97t-110.5 -266v-11q0 -118 50.5 -212
t147.5 -175h351q-79 70 -132.5 131t-80 119t-26.5 119v6q0 70 37.5 108.5t100.5 38.5q65 0 95.5 -37t34.5 -121zM1324 1106h-321v-977h321v977zM-54 1028h1626l-19 233h-1626zM623 356q161 0 249.5 62.5t118.5 157.5h27l-10 193q-20 -70 -88 -117.5t-189 -47.5
q-132 0 -198.5 58t-66.5 204v240h-322v-291q0 -233 123.5 -346t355.5 -113z" />
    <glyph glyph-name="PamatraLruu.dv" horiz-adv-x="1517" 
d="M1487 -114l-306 -16v-9q0 -44 -23 -70.5t-93 -73.5q-93 -59 -134 -116.5t-41 -133.5q0 -119 93.5 -186.5t240.5 -67.5q80 0 140 12t101 33l16 210q-42 -25 -95 -39t-109 -14q-60 0 -86.5 12.5t-26.5 40.5q0 33 39.5 59.5t115.5 74.5q91 58 129.5 121t38.5 156v7z
M1225 -782l-192 51v-26q-66 -17 -99 -53t-33 -93q0 -96 89 -153t238 -57q79 0 137 13.5t104 35.5l16 208q-53 -28 -102 -40t-107 -12q-64 0 -93.5 16t-29.5 44q0 26 18.5 41.5t53.5 24.5zM626 -310h284l7 127q3 83 37.5 119.5t99.5 36.5q64 0 95.5 -30t31.5 -76v-4l306 16v3
q0 92 -44.5 166.5t-129.5 117.5t-207 43q-137 0 -221 -52.5t-109 -137.5h-7q-26 86 -101.5 139t-220.5 53q-184 0 -294.5 -97t-110.5 -266v-11q0 -119 51 -212.5t148 -174.5h350q-119 105 -179 191.5t-60 177.5v6q0 70 37.5 108.5t100.5 38.5q65 0 95.5 -36t34.5 -119z
M1324 1106h-321v-977h321v977zM-54 1028h1626l-19 233h-1626zM623 356q161 0 249.5 62.5t118.5 157.5h27l-10 193q-20 -70 -88 -117.5t-189 -47.5q-132 0 -198.5 58t-66.5 204v240h-322v-291q0 -233 123.5 -346t355.5 -113z" />
    <glyph glyph-name="DamatraRu.dv" horiz-adv-x="1503" 
d="M-35 1028h1593l-19 233h-1593zM993 734l331 -103v476h-331v-373zM1345 489h-336v-272l34 -25l54 -473h310l-62 513v257zM737 285q-136 0 -214 45.5t-78 129.5v6q0 92 84 137t284 45q131 0 251 -5t260 -15v213q-169 22 -307.5 34t-274.5 12q-325 0 -483 -107.5
t-158 -312.5v-10q0 -131 70.5 -227.5t199.5 -149t303 -52.5q136 0 230.5 24t158.5 70l-38 225q-53 -29 -123 -45.5t-165 -16.5zM1126 -734q108 0 193.5 16t157.5 50l17 246q-73 -37 -156.5 -54.5t-177.5 -17.5q-120 0 -172.5 27.5t-52.5 77.5v5q0 51 47.5 76.5t161.5 25.5
h57h74h74h58l-58 215h-53.5h-72t-74.5 -0.5t-60 -0.5q-235 -1 -350 -83t-115 -230v-11q0 -165 134.5 -253.5t367.5 -88.5zM899 1028h645l-19 233h-645zM1324 1101h-320v-201h320v201z" />
    <glyph glyph-name="RamatraU.dv" horiz-adv-x="1778" 
d="M1034 387l23 -236q36 -10 84.5 -15t103.5 -5q216 0 330 96.5t114 274.5v7q0 164 -112 269t-316 105q-114 0 -197 -27t-141 -71l-101 -262q98 60 177 87t166 27q98 0 142 -33t44 -93v-4q0 -63 -43.5 -96t-150.5 -33q-35 0 -64.5 2.5t-58.5 6.5zM1080 1261l19 -233h732
l-19 233h-732zM1185 1028l-18 233h-1222l19 -233h1221zM1011 0v18l-215 203q-56 53 -103.5 89.5t-96.5 65.5t-112 59v104l-409 133v-259l143 -16l359 -397h434zM856 1090h-343q81 -54 116 -109t35 -119v-6q0 -93 -94 -138.5t-323 -45.5h-172l200 -244l132 2q314 6 455 106
t141 259v9q0 86 -35.5 156.5t-111.5 129.5z" />
    <glyph glyph-name="RamatraUu.dv" horiz-adv-x="2037" 
d="M1438 194l30 234q-28 -10 -56.5 -14t-58.5 -4q-44 0 -76 12t-50 37t-18 61v3q0 36 17 61.5t49.5 39t79.5 13.5q70 0 117 -31t81.5 -101.5t63.5 -186.5l48 -183h331l-53 186q-52 181 -122.5 306.5t-179.5 190.5t-279 65q-127 0 -228 -39t-160 -120.5t-59 -210.5v-7
q0 -101 49 -175t134.5 -115t197.5 -41q41 0 77.5 4.5t64.5 14.5zM1109 1261l19 -233h963l-18 233h-964zM712 772l16 -214h430v214h-446zM1185 1028l-18 233h-1222l19 -233h1221zM1011 0v18l-215 203q-56 53 -103.5 89.5t-96.5 65.5t-112 59v104l-409 133v-259l143 -16
l359 -397h434zM856 1090h-343q81 -54 116 -109t35 -119v-6q0 -93 -94 -138.5t-323 -45.5h-172l200 -244l132 2q314 6 455 106t141 259v9q0 86 -35.5 156.5t-111.5 129.5z" />
    <glyph glyph-name="ShamatraRu.dv" horiz-adv-x="2003" 
d="M1589 -646q112 0 202 17.5t162 52.5l23 247q-78 -37 -168.5 -57.5t-186.5 -20.5q-122 0 -174.5 29t-52.5 81v4q0 51 45.5 77t159.5 26h231v222h-285q-228 0 -344.5 -83t-116.5 -234v-12q0 -166 135.5 -257.5t369.5 -91.5zM1830 1101h-331v-1101h331v1101zM1410 1028h647
l-19 233h-647zM527 702l84 -110l962 -225v255l-652 125l-174 45q-69 18 -112.5 40.5t-63.5 50.5t-20 60v5q0 50 48.5 80t144.5 30q100 0 148 -31.5t48 -83.5v-5q0 -36 -26.5 -64t-78 -49t-128.5 -36l-68 -20l-595 -73v-275l823 148l131 99q91 33 153 74t93 95.5t31 128.5v7
q0 147 -131.5 240t-399.5 93q-263 0 -390.5 -86t-127.5 -226v-4q0 -62 29.5 -118t95.5 -99.5t176 -70.5zM1378 1261l20 -233h630l-20 233h-630z" />
    <glyph glyph-name="HamatraRu.dv" horiz-adv-x="1490" 
d="M1520 1028l-19 233h-1551l19 -233h1551zM962 1092v-384l321 -46v430h-321zM287 374l209 106q-23 15 -36.5 36.5t-13.5 48.5v4q0 57 74 88t275 31q124 0 246 -8t242 -23v220q-151 21 -293.5 29.5t-281.5 8.5q-319 0 -456 -78.5t-137 -220.5v-7q0 -81 46.5 -139.5
t125.5 -95.5zM1382 207q-10 98 -71.5 174t-180.5 119.5t-303 43.5q-137 0 -240.5 -22.5t-181.5 -64.5l-54 -29q-113 -53 -168.5 -148t-55.5 -219v-13q0 -166 96.5 -284.5t269 -181t400.5 -62.5q67 0 126 4.5t107 15.5l31 228q-49 -7 -100.5 -10t-105.5 -3q-156 0 -265.5 35
t-166 102.5t-56.5 163.5v15q0 124 99 188t256 64q71 0 119 -8.5t85 -26.5q-132 -9 -199 -60.5t-67 -139.5v-6q0 -111 103 -170t278 -59q159 0 257 38l28 209q-45 -18 -101 -28.5t-119 -10.5q-75 0 -112 14t-37 45v3q0 25 30.5 42.5t102.5 27.5t196 14zM858 1028h645l-19 233
h-644zM1283 1101h-320v-201h320v201z" />
    <glyph glyph-name="KaSsamatraU.dv" horiz-adv-x="2094" 
d="M2150 1028l-19 233h-725l19 -233h725zM1591 -19h331v1125h-331v-1125zM1006 -157h325l-53 325v255h-334v-251l20 -24zM1229 -245h-346q116 -215 309 -328.5t476 -113.5q250 0 370.5 93t120.5 252v11q0 150 -107.5 248t-322.5 98q-74 0 -136 -10t-118 -29l-31 -238
q58 20 115.5 31.5t116.5 11.5q96 0 136.5 -30t40.5 -80v-6q0 -53 -50 -84t-149 -31q-149 0 -248 50t-177 155zM700 793l-144 -42q-154 -19 -256 -65.5t-152 -122t-50 -182.5v-8q0 -120 65 -206.5t186 -133.5t287 -47q130 0 222.5 25.5t146.5 76.5l-27 218
q-47 -29 -116 -45.5t-160 -16.5q-82 0 -141 17.5t-90 50.5t-31 79v5q0 50 33.5 84t110.5 60.5t209 51.5l277 157q109 37 156.5 94.5t47.5 138.5v5q0 145 -135.5 227.5t-399.5 82.5q-265 0 -402.5 -84.5t-137.5 -237.5v-5q0 -106 73.5 -171.5t222.5 -95.5l259 -111
q74 -23 151.5 -36t169.5 -17.5t208 -4.5h357v240h-265q-74 0 -131 -1.5t-116 -6t-138 -13.5l-217 39q-124 25 -180.5 58.5t-56.5 83.5v3q0 55 50 84t150 29q102 0 152 -29t50 -84v-3q0 -54 -65.5 -86.5t-172.5 -54.5z" />
    <glyph glyph-name="JaNyamatraU.dv" horiz-adv-x="1835" 
d="M1890 1028l-19 233h-1926l19 -233h1926zM1331 -33h331v1140h-331v-1140zM1396 816h-1193v-238h461l391 -9h341v247zM487 -280h383v11l-70 75q-47 51 -85.5 84t-80 58t-101.5 48v57l-440 62l148 -65zM884 633h-681v-55l252 -9q113 -4 176.5 -25t89 -55.5t25.5 -78.5v-7
q0 -69 -57.5 -107t-179.5 -38q-112 0 -220.5 36t-209.5 96l14 -275l252 -65q47 -19 115 -34t138 -15q238 0 362.5 82t124.5 221v6q0 90 -48 152t-153 102v69zM1029 -338h-360q123 -178 298 -271t430 -93q248 0 370.5 93t122.5 252v10q0 151 -107.5 248.5t-321.5 97.5
q-82 0 -150 -11.5t-129 -33.5l-31 -241q63 24 127.5 38.5t128.5 14.5q95 0 135.5 -30.5t40.5 -79.5v-6q0 -54 -49.5 -84.5t-148.5 -30.5q-118 0 -202 31.5t-154 95.5z" />
    <glyph glyph-name="JhamatraU.dv" horiz-adv-x="2118" 
d="M2173 1028l-19 233h-2203l19 -233h2203zM930 1104v-383l320 -39l1 422h-321zM1614 0h331v1107h-331v-1107zM1673 527h-561l95 -160q65 -41 136 -61t164 -20h166v241zM963 -400v15l-114 125q-48 53 -89 89t-87 65t-110 59v48l-438 48l152 -54l309 -395h377zM1277 -197
h-342q83 -155 192.5 -260t253 -158t328.5 -53q242 0 359.5 93t117.5 252v11q0 150 -106.5 247.5t-318.5 97.5q-79 0 -144.5 -11t-126.5 -32l-30 -240q62 23 123 36.5t124 13.5q93 0 132.5 -30t39.5 -81v-5q0 -54 -46.5 -84.5t-140.5 -30.5q-144 0 -241 57.5t-174 176.5z
M100 307l25 -258l301 -53q88 -28 161.5 -41t157.5 -13q175 0 289 23t179.5 66t92.5 103t27 133v7q0 89 -47 158.5t-152 110t-279 40.5q-109 0 -191.5 -12t-166.5 -32q-23 10 -36.5 26t-13.5 42v4q0 31 26.5 53t99.5 34t211 12q121 0 234 -7.5t232 -20.5v199
q-159 22 -286.5 30.5t-270.5 8.5q-213 0 -339.5 -37t-181.5 -104.5t-55 -162.5v-7q0 -113 74.5 -187.5t223.5 -111.5q82 24 173.5 37.5t214.5 13.5q124 0 165.5 -22.5t41.5 -63.5v-2q0 -32 -23 -54t-90.5 -33.5t-201.5 -11.5q-104 0 -205.5 16t-199.5 46t-190 71z" />
    <glyph glyph-name="KaNuktamatraU.dv" horiz-adv-x="2145" 
d="M226 -239q124 -214 314 -321.5t467 -107.5q250 0 370.5 93t120.5 252v11q0 150 -107.5 247.5t-322.5 97.5q-83 0 -149.5 -11.5t-127.5 -33.5l-31 -242q63 24 126.5 39t129.5 15q95 0 135.5 -30t40.5 -81v-5q0 -54 -50 -84.5t-149 -30.5q-145 0 -243 47t-175 145h-349z
M-36 1028h2234l-19 233h-2234zM98 501q0 -184 119.5 -289t328.5 -105q102 0 174 25.5t116.5 71t62.5 107.5h32l-13 201q-20 -69 -84 -109t-177 -40q-116 0 -169.5 34.5t-53.5 105.5v7q0 69 53.5 105t167.5 36q40 0 72 -3.5t64 -10.5l-18 237q-46 13 -97.5 19.5t-113.5 6.5
q-224 0 -344 -103t-120 -290v-6zM2052 503q0 174 -109.5 285.5t-315.5 111.5q-104 0 -179.5 -26.5t-122.5 -75.5t-68 -115h-31l12 -201q19 74 86 118t184 44q111 0 159.5 -35.5t48.5 -105.5v-7q0 -69 -51 -104.5t-163 -35.5q-37 0 -69 4t-66 11l19 -240q41 -11 91.5 -17.5
t116.5 -6.5q228 0 343 103.5t115 285.5v7zM1243 1101h-331v-1101h331v1101zM226 -183q79 0 120.5 38.5t41.5 103.5v2.5v2.5q0 65 -41 104.5t-121 39.5q-79 0 -121.5 -39t-42.5 -105v-2v-3q0 -65 42.5 -103.5t121.5 -38.5z" />
    <glyph glyph-name="JaNuktamatraU.dv" horiz-adv-x="1834" 
d="M610 -197q126 -233 319.5 -352t481.5 -119q249 0 370.5 93t121.5 252v11q0 150 -108 247.5t-323 97.5q-82 0 -149 -11.5t-128 -33.5l-31 -242q63 24 127 39t129 15q96 0 136.5 -30t40.5 -81v-5q0 -54 -50 -84.5t-149 -30.5q-159 0 -261 57t-185 177h-342zM1662 1101h-331
v-1101h331v1101zM1242 1028h647l-19 233h-647zM1789 1028l-19 233h-1825l19 -233h1825zM1395 834h-1131v-237l435 -1l372 -9h324v247zM890 656h-626v-59l221 -7q104 -3 160.5 -22.5t79 -52.5t22.5 -79v-6q0 -68 -55 -106.5t-182 -38.5q-116 0 -223.5 36t-208.5 97l16 -274
q88 -54 206.5 -85.5t272.5 -31.5q257 0 385 84.5t128 225.5v6q0 85 -47 145t-149 94v74zM298 -367q87 0 133 42.5t46 113.5v3v3q0 72 -46 115t-133 43q-88 0 -134.5 -42.5t-46.5 -115.5v-3v-3q0 -71 46.5 -113.5t134.5 -42.5z" />
    <glyph glyph-name="PhaNuktamatraU.dv" horiz-adv-x="2193" 
d="M604 -241h-349q122 -212 313.5 -319.5t466.5 -107.5q248 0 369.5 94.5t121.5 251.5v10q0 150 -108 247.5t-322 97.5q-83 0 -149.5 -11.5t-127.5 -33.5l-31 -242q62 25 126.5 39.5t128.5 14.5q96 0 136.5 -30t40.5 -81v-5q0 -54 -50 -84.5t-149 -30.5q-145 0 -242.5 46.5
t-174.5 143.5zM-36 1028h2283l-19 233h-2283zM592 241q98 0 167 26t111.5 72t61.5 105h28l-11 187q-22 -56 -79.5 -91t-153.5 -35q-116 0 -175 51t-59 182v361h-331v-397q0 -243 118.5 -352t322.5 -109zM1552 643q112 0 162.5 -39.5t50.5 -108.5v-4q0 -74 -50.5 -111.5
t-155.5 -37.5q-38 0 -72 5t-64 14l20 -246q41 -11 91.5 -17.5t110.5 -6.5q221 0 338.5 102t117.5 293v9q0 179 -113.5 291t-320.5 112q-103 0 -179.5 -26.5t-126.5 -74t-75 -109.5h-29l7 -199q33 70 108 112t180 42zM1276 1101h-332v-1101h332v1101zM365 -125q80 0 123 39.5
t43 104.5v3v3q0 66 -42.5 106t-123.5 40t-124.5 -39.5t-43.5 -106.5v-3v-3q0 -65 43.5 -104.5t124.5 -39.5z" />
    <glyph glyph-name="YaNuktamatraU.dv" horiz-adv-x="1665" 
d="M473 -245h351q75 -95 170.5 -140.5t235.5 -45.5q99 0 148.5 30.5t49.5 84.5v5q0 51 -40.5 81t-135.5 30q-66 0 -129 -15t-127 -39l31 242q61 21 127 33t151 12q214 0 322 -97.5t108 -247.5v-11q0 -159 -122 -252t-370 -93q-270 0 -458.5 107.5t-311.5 315.5zM1492 1101
v-1101h-331v1101h331zM1073 1028l-19 233h647l19 -233h-647zM-55 1261h1725l19 -233h-1726zM723 1082q60 -49 90 -107.5t30 -130.5v-7q0 -135 -112 -211.5t-357 -84.5l-166 -6l-99 205h71q123 0 193 18.5t99.5 54t29.5 86.5v4q0 50 -27 95t-100 84h348zM98 599q0 34 2.5 67
t8.5 74l307 -65v-112q0 -56 37 -98t115.5 -64t201.5 -22q182 0 277 46.5t120 123.5l11 -200h-28q-33 -97 -142 -165t-319 -68q-282 0 -436.5 123.5t-154.5 351.5v8zM268 -240q-91 0 -139.5 44.5t-48.5 118.5v3v3q0 75 48.5 119.5t139.5 44.5t139 -44.5t48 -119.5v-3v-3
q0 -74 -48 -118.5t-139 -44.5z" />
    <glyph glyph-name="KaRa.dv" horiz-adv-x="2145" 
d="M1244 1101h-331v-1101h331v1101zM825 1028h647l-19 233h-647zM-36 1028h2234l-19 233h-2234zM2052 503q0 174 -109.5 285.5t-315.5 111.5q-104 0 -179.5 -26.5t-122.5 -75t-68 -114.5h-31l12 -202q19 74 86 118t184 44q111 0 159.5 -35.5t48.5 -105.5v-7
q0 -69 -51 -104.5t-163 -35.5q-37 0 -69 4t-66 11l19 -240q41 -11 92 -17.5t116 -6.5q228 0 343 103.5t115 285.5v7zM526 146q58 0 104.5 9.5t84.5 26.5l-86 74l-517 -293v-40h411l409 313v236q-4 -4 -17 -11.5t-26.5 -16.5t-20.5 -14q-48 -31 -100.5 -49.5t-124.5 -18.5
q-103 0 -156 36t-53 107v1v1.5v1.5v1q0 69 53 105t167 36q40 0 72.5 -3.5t64.5 -10.5q-1 15 -3.5 46.5t-5.5 68.5t-5 70.5t-4 51.5q-46 13 -97 19.5t-114 6.5q-224 0 -344 -102t-120 -281v-1.5v-2v-2v-1.5q0 -116 55 -197.5t151.5 -124t221.5 -42.5z" />
    <glyph glyph-name="KhaRa.dv" horiz-adv-x="2134" 
d="M1961 1101h-331v-1101h331v1101zM1541 1028h647l-18 233h-647zM-28 1028h2116l-18 233h-2117zM980 57l236 223q-29 -5 -58 -7t-63 -2q-123 0 -227.5 20t-188.5 62.5t-145 108.5l-39 42l-412 173v-249l148 -18l29 -41q70 -102 172.5 -173.5t239 -107t308.5 -31.5zM858 815
q0 82 -32.5 146.5t-94.5 112.5h-354q73 -38 110 -87.5t37 -116.5v-5q0 -91 -82 -139.5t-271 -48.5h-88l117 -222l106 1q190 3 312 46.5t181 121t59 183.5v8zM1326 355q55 0 101 13t83 32l-75 40l-855 -549v-41l467 1l649 533v255l-58 -34q-34 -21 -65.5 -34t-66.5 -19.5
t-77 -6.5q-87 0 -127.5 23t-40.5 68v2q0 45 38.5 66t123.5 21q33 0 61.5 -2t59.5 -6l-19 203q-46 9 -88 13t-96 4q-189 0 -289 -77.5t-100 -222.5v-4q0 -133 102.5 -205.5t271.5 -72.5z" />
    <glyph glyph-name="GaRa.dv" horiz-adv-x="1589" 
d="M1416 1101h-331v-1101h331v1101zM997 1028h647l-19 233h-647zM-36 1028h1577l-19 233h-1577zM244 -33h457l475 370v260l-932 -592v-38zM632 1057h-367q91 -46 133 -112t42 -140v-9q0 -91 -58.5 -137t-190.5 -46q-40 0 -73 2.5t-60 7.5l24 -269q41 -10 93.5 -16t109.5 -6
q160 0 270.5 48.5t167 138.5t56.5 216v9q0 94 -37 176.5t-110 136.5z" />
    <glyph glyph-name="GhaRa.dv" horiz-adv-x="1707" 
d="M-40 1028h1702l-19 233h-1702zM122 436q0 -96 67 -161t184.5 -97.5t269.5 -32.5q81 0 149.5 11t122.5 32l-61 69l-669 -308v-49h501l541 337v239l-65 -30q-95 -45 -186 -67t-221 -22q-148 0 -218.5 25.5t-70.5 81.5v3q0 35 27.5 55.5t93 31t177.5 13.5l176 4v237l-165 7
q-124 5 -190 22t-90.5 44.5t-24.5 62.5v4q0 40 26.5 71t84.5 48h-361q-49 -24 -71 -60.5t-22 -81.5v-5q0 -58 33 -104t107.5 -76.5t200.5 -42.5v-9q-127 -9 -203 -40.5t-109.5 -83t-33.5 -122.5v-6zM1534 1101h-331v-1101h331v1101zM1114 1028h648l-19 233h-647z" />
    <glyph glyph-name="CaRa.dv" horiz-adv-x="1767" 
d="M-36 1028h1758l-19 233h-1758zM1074 865h-1006v-246h262l151 5h593v241zM251 410q0 -86 58 -146.5t162 -92t244 -31.5q76 0 139.5 10.5t110.5 33.5l-36 71l-650 -302v-47h484l519 324v242l-69 -35q-76 -37 -157 -58t-193 -21q-135 0 -202 32.5t-67 96.5v4q0 43 26.5 70
t82.5 40.5t143 15.5l228 7v53l-639 1v-64q-95 -21 -139.5 -70.5t-44.5 -128.5v-5zM1594 1101h-331v-1101h331v1101zM1175 1028h647l-19 233h-647z" />
    <glyph glyph-name="JaRa.dv" horiz-adv-x="1866" 
d="M1920 1028l-18 233h-1957l19 -233h1956zM650 -137h414l376 312v232l-790 -507v-37zM1419 858h-1155v-237l408 -1l371 -9h376v247zM1373 -89h320v1196h-331v-827l11 -28v-341zM858 679h-594v-58l208 -8q95 -3 147.5 -20.5t73 -46.5t20.5 -69v-4q0 -57 -52 -90t-166 -33
q-115 0 -219 36.5t-198 96.5l16 -281q89 -52 203.5 -80.5t269.5 -28.5q228 0 356.5 78.5t128.5 206.5v5q0 79 -46 135t-148 88v73z" />
    <glyph glyph-name="JhaRa.dv" horiz-adv-x="2146" 
d="M2201 1028l-25 233h-2225l19 -233h2231zM898 1104v-383l321 -39v422h-321zM1661 -55h313v1162h-332v-822l19 -19v-321zM1227 -37h272l154 223h18l133 193h-157l-420 -390v-26zM1667 546h-608l82 -148q65 -38 144.5 -57t191.5 -19h190v224zM1041 -400v20l-134 129
q-45 44 -87 76t-93 60t-122 58v67l-480 38l178 -63l342 -385h396zM100 307l25 -259l287 -52q69 -23 147 -38.5t157 -15.5q217 0 340.5 40.5t174 113.5t50.5 171v7q0 89 -45 158.5t-145 110t-265 40.5q-102 0 -179 -11.5t-151 -30.5q-23 9 -36 25t-13 41v4q0 31 25.5 53
t94 34t198.5 12q117 0 225 -7.5t229 -20.5v199q-160 22 -283 30.5t-260 8.5q-206 0 -328.5 -37t-176.5 -104.5t-54 -162.5v-7q0 -113 70 -187.5t210 -111.5q78 24 165 37.5t203 13.5q115 0 155 -22.5t40 -63.5v-2q0 -32 -21.5 -54t-84.5 -33.5t-187 -11.5q-98 0 -196 16
t-191 46t-180 71z" />
    <glyph glyph-name="NyaRa.dv" horiz-adv-x="1837" 
d="M-36 1028h1928l-19 233h-1928zM1664 1107h-331v-850l11 -57v-269h320v1176zM165 870l-26 -254q76 18 153 27t150 9q116 0 181 -16t92 -47t27 -76v-2q0 -70 -65.5 -106t-233.5 -36q-91 0 -179.5 17t-157.5 42l19 -255q70 -28 167 -44t225 -16q277 0 415 99t138 299v4
q0 194 -136.5 293.5t-417.5 99.5q-97 0 -184 -9.5t-167 -28.5zM651 -129h397l356 303v214l-753 -484v-33zM1011 634v-251h377v251h-377z" />
    <glyph glyph-name="NnaRa.dv" horiz-adv-x="2082" 
d="M-34 1028h2140l-18 233h-2140zM710 291q277 0 414 117.5t137 367.5v324h-326v-328q0 -117 -55.5 -171.5t-169.5 -54.5q-116 0 -171 54.5t-55 171.5v328h-325v-324q0 -250 137 -367.5t414 -117.5zM729 -57h444l471 373v267l-915 -602v-38zM1909 1101h-331v-1101h331v1101z
M1490 1028h647l-19 233h-647z" />
    <glyph glyph-name="TaRa.dv" horiz-adv-x="1615" 
d="M1570 1028l-19 233h-1606l19 -233h1606zM1209 311l-30 262l-272 -81q-57 -17 -141.5 -46.5t-160.5 -56.5l-29 9l-459 -122v-282zM767 394l-14 58q60 33 97 80t37 109v4q0 118 -102.5 189t-318.5 71q-98 0 -182 -14t-161 -41l-22 -272q73 30 150.5 48.5t155.5 18.5
q92 0 132 -32.5t40 -87.5v-5q0 -29 -10.5 -56t-35 -51.5t-65.5 -46.5zM1443 1101h-331v-1101h331v1101zM1023 1028h647l-19 233h-647z" />
    <glyph glyph-name="ThaRa.dv" horiz-adv-x="1801" 
d="M1162 1261l19 -233h645l-19 233h-645zM698 153q69 0 131.5 8.5t116.5 29.5l-54 69l-685 -291v-54h551l556 348v254l-92 -46q-64 -33 -128.5 -56t-138 -35.5t-164.5 -12.5q-159 0 -257.5 46.5t-98.5 148.5v119l-310 60q-8 -40 -11 -76.5t-3 -68.5v-9q0 -142 72.5 -239
t204 -146t310.5 -49zM164 876h299v42q0 66 37.5 99.5t119.5 33.5q74 0 111.5 -33.5t37.5 -89.5v-7q0 -56 -35.5 -96.5t-122 -62t-239.5 -21.5h-247l129 -219h248q304 0 448 100t144 286v9q0 176 -122 276.5t-358 100.5q-235 0 -355 -80.5t-120 -223.5q0 -33 6.5 -61
t18.5 -53zM1629 1101h-331v-1101h331v1101zM1209 1028h647l-19 233h-647z" />
    <glyph glyph-name="DaRa.dv" horiz-adv-x="1503" 
d="M899 1028h645l-19 233h-645zM1324 1101h-320v-201h320v201zM-35 1028h1593l-19 233h-1593zM993 732l331 -104v479h-331v-375zM1345 486h-336v-268l31 -25l48 -341h326l-69 381v253zM604 68q57 0 95.5 7.5t75.5 22.5l-76 40l-562 -290v-45h472l453 324l-1 252l-71 -39
q-50 -26 -111 -40.5t-140 -14.5q-137 0 -215.5 45t-78.5 129v5q0 93 84 138.5t284 45.5q130 0 250.5 -5t260.5 -15v213q-169 22 -309 34t-273 12q-325 0 -483 -107t-158 -313v-10q0 -122 63 -209.5t176 -133.5t264 -46z" />
    <glyph glyph-name="DhaRa.dv" horiz-adv-x="1792" 
d="M1155 1028h661l-19 233h-661zM449 445v3q0 21 11.5 36.5t42 26.5t84.5 17t139 7l245 5v235l-223 6q-134 4 -209 19t-106 45.5t-31 81.5v6q0 55 43 87t127 32t123 -30.5t39 -92.5v-26h303q7 19 11.5 42t4.5 48q0 137 -113.5 219.5t-366.5 82.5q-264 0 -385 -89.5
t-121 -232.5v-7q0 -89 41 -151t128.5 -98.5t226.5 -47.5v-10q-139 -6 -216.5 -38t-109 -83.5t-31.5 -113.5v-6q0 -96 64.5 -158.5t182.5 -94t279 -31.5q116 0 207.5 17t150.5 43l-63 57l-733 -307v-52h537l581 342v249l-67 -32q-64 -32 -135 -55t-153 -35t-182 -12
q-123 0 -194 10.5t-101.5 32t-30.5 53.5zM1619 1101h-331v-1101h331v1101zM1200 1028h647l-19 233h-647z" />
    <glyph glyph-name="NaRa.dv" horiz-adv-x="1538" 
d="M1593 1028l-19 233h-1636l19 -233h1636zM1047 0h318v1107h-331v-720l13 -37v-350zM1172 796h-793v-253h793v253zM232 280h315v516h-292l-168 -101q8 -82 28.5 -154.5t50 -137t66.5 -123.5zM235 -34h453l481 349v227l-934 -534v-42z" />
    <glyph glyph-name="PaRa.dv" horiz-adv-x="1558" 
d="M1386 1101h-332v-1101h332v1101zM966 1028h647l-19 233h-647zM-36 1028h1619l-19 233h-1619zM137 58v-58h471l466 363v259l-50 -31q-57 -36 -122 -55.5t-148 -19.5q-86 0 -147 25.5t-93 82.5t-32 150v325h-331v-333q0 -157 58.5 -258.5t166 -150.5t254.5 -49
q68 0 121.5 11.5t93.5 33.5l-107 47z" />
    <glyph glyph-name="PhaRa.dv" horiz-adv-x="2193" 
d="M1276 1101h-332v-1101h332v1101zM856 1028h647l-19 233h-647zM-36 1028h2283l-19 233h-2283zM603 303q67 0 126 14.5t99 39.5l-103 43l-591 -342v-58h461l427 371l-2 253l-55 -36q-56 -38 -111.5 -58t-134.5 -20q-113 0 -175 52t-62 182v355h-331v-352q0 -161 57 -259
t158.5 -141.5t236.5 -43.5zM1552 643q112 0 162.5 -39.5t50.5 -108.5v-4q0 -74 -50.5 -111.5t-155.5 -37.5q-38 0 -72 5t-64 14l20 -246q41 -11 91.5 -17.5t111.5 -6.5q221 0 338 102t117 293v9q0 179 -113 291t-320 112q-103 0 -179.5 -26.5t-126.5 -74t-76 -109.5h-29
l7 -199q33 70 108 112t180 42z" />
    <glyph glyph-name="BaRa.dv" horiz-adv-x="1671" 
d="M1498 913h-331v-936h331v936zM-34 1028h1760l-19 233h-1759zM1498 1091h-331v-259h331v259zM400 672l614 -444l108 125l-577 421zM734 317q-154 0 -235.5 43t-81.5 130v7q0 88 81.5 133t244.5 45q78 0 149.5 -7t139.5 -22l-25 226q-80 17 -158 25t-175 8
q-284 0 -430 -104.5t-146 -299.5v-9q0 -119 63.5 -202t176.5 -126.5t261 -43.5q95 0 158.5 11t110.5 33l-43 70l-665 -275v-50h502l523 306v244l-75 -40q-87 -47 -172 -74.5t-204 -27.5z" />
    <glyph glyph-name="BhaRa.dv" horiz-adv-x="1596" 
d="M876 1028h775l-19 233h-775zM1212 704h-832v-248h832v248zM275 -66l472 -1l413 283v232l-885 -470v-44zM1100 -31h323v1138h-331v-784l8 -28v-326zM256 215h330v476h-327l-159 -86q9 -74 30.5 -142.5t53.5 -130.5t72 -117zM257 534h329v346q0 135 -39 218.5t-129 123
t-243 39.5h-229l19 -233h148q83 0 113.5 -34.5t30.5 -120.5v-339z" />
    <glyph glyph-name="MaRa.dv" horiz-adv-x="1631" 
d="M1686 1028l-19 233h-1722l19 -233h1722zM1248 705h-868v-249h868v249zM1140 -31h318v1138h-331v-790l13 -28v-320zM586 1107h-329v-540h329v540zM256 216h330v475h-327l-159 -86q8 -74 29.5 -142.5t54 -130t72.5 -116.5zM311 -66l471 -1l412 283v233l-883 -471v-44z" />
    <glyph glyph-name="YaRa.dv" horiz-adv-x="1665" 
d="M1492 1101h-331v-1101h331v1101zM1073 1028h647l-19 233h-647zM-55 1261l18 -233h1756l-19 233h-1755zM723 1082h-348q73 -39 100 -84t27 -95v-4q0 -51 -29.5 -86.5t-99.5 -54t-193 -18.5h-71l99 -205l166 6q245 8 357 84.5t112 211.5v7q0 72 -30 130.5t-90 107.5z
M634 170q72 0 128 8.5t111 28.5l-59 74l-667 -296v-47h505l537 336v240l-82 -43q-51 -27 -104.5 -47t-117.5 -31t-148 -11q-110 0 -181.5 22.5t-105.5 64t-34 99.5v107l-307 65q-6 -41 -8.5 -74t-2.5 -67v-11q0 -139 66.5 -232.5t187.5 -139.5t282 -46z" />
    <glyph glyph-name="LaRa.dv" horiz-adv-x="1912" 
d="M-35 1028h2002l-19 233h-2002zM831 0h360l278 211v187l-638 -361v-37zM1739 1073h-331v-775l10 -33v-265h321v1073zM789 279h319l8 153q5 87 43.5 127.5t114.5 40.5q57 0 93.5 -25.5t52.5 -73.5l3 305q-30 24 -73 37.5t-104 13.5q-116 0 -195.5 -52.5t-105.5 -149.5h-9
q-30 97 -117 151t-241 54q-223 0 -347.5 -113t-124.5 -307q0 -132 58 -240.5t164 -199.5h382v6q-124 111 -192.5 206.5t-68.5 207.5q0 86 45.5 134t127.5 48q81 0 118 -42.5t42 -129.5z" />
    <glyph glyph-name="VaRa.dv" horiz-adv-x="1615" 
d="M-34 1028h1604l-19 233h-1604zM98 507q0 -118 60.5 -199t169 -122.5t249.5 -42.5q82 0 139 9t110 31l-43 69l-636 -285v-50h489l500 321v237q-6 -3 -19.5 -10t-28 -14.5t-19.5 -10.5q-52 -26 -104.5 -45t-113 -29.5t-137.5 -10.5q-131 0 -201.5 36.5t-70.5 109.5v0.5v1v1
v0.5q0 72 70.5 106.5t225.5 34.5q64 0 123 -5t112 -15q-1 13 -4 46t-7 72t-7 73.5t-4 50.5q-68 18 -141 25.5t-160 7.5q-267 0 -409.5 -96t-142.5 -292v-1v-1.5v-1.5v-1zM1442 1101h-331v-1101h331v1101zM1022 1028h647l-18 233h-648z" />
    <glyph glyph-name="ShaRa.dv" horiz-adv-x="2005" 
d="M373 264v-297l1157 335v236zM1832 1101h-331v-1101h331v1101zM1412 1028h647l-18 233h-647zM527 702l84 -110l962 -225v255l-652 125l-174 45q-69 18 -112.5 40.5t-63.5 50.5t-20 60v5q0 50 48.5 80t144.5 30q100 0 148 -31.5t48 -83.5v-5q0 -36 -26.5 -64t-78 -49
t-128.5 -36l-68 -20l-595 -73v-275l823 148l131 99q91 33 153 74t93 95.5t31 128.5v7q0 147 -131.5 240t-399.5 93q-263 0 -390.5 -86t-127.5 -226v-4q0 -62 29.5 -118t95.5 -99.5t176 -70.5zM1378 1261l20 -233h630l-20 233h-630z" />
    <glyph glyph-name="SsaRa.dv" horiz-adv-x="1576" 
d="M-36 1028h1667l-19 233h-1667zM360 949q64 -59 126 -100.5t156 -90.5l440 -233l67 126q-66 51 -124 86.5t-134 77.5l-458 249zM621 292q66 0 123.5 15.5t98.5 39.5l-99 47l-603 -336v-58h472l469 366v248l-55 -33q-59 -35 -125 -59.5t-156 -24.5q-134 0 -206.5 60
t-72.5 207v335h-315v-356q0 -160 59 -259.5t165 -145.5t245 -46zM1404 1101h-332v-1101h332v1101zM984 1028h647l-19 233h-647z" />
    <glyph glyph-name="SaRa.dv" horiz-adv-x="1862" 
d="M1917 1028l-19 233h-1953l19 -233h1953zM774 690l65 -241h577v241h-642zM1373 0h316v1121h-331v-712l15 -36v-373zM916 134h306l144 154h17l126 172h-174l-419 -293v-33zM963 0v16l-187 201q-54 58 -99 97.5t-92 70.5t-107 61v174l-403 52v-259l130 -16l334 -397h424z
M775 1090h-368q96 -50 133.5 -105t37.5 -122v-6q0 -92 -92 -138.5t-318 -46.5h-93l188 -238l108 4q284 8 416 100.5t132 253.5v10q0 84 -35 155.5t-109 132.5z" />
    <glyph glyph-name="HaRa.dv" horiz-adv-x="1490" 
d="M1545 1028l-19 233h-1576l19 -233h1576zM977 1092v-384l321 -46v430h-321zM592 86h318l198 306l-202 1l-314 -281v-26zM292 378l204 106q-23 13 -36.5 33.5t-13.5 47.5v4q0 57 75 88t277 31q129 0 253.5 -8t246.5 -23v220q-152 20 -297.5 29t-287.5 9q-322 0 -460 -77.5
t-138 -220.5v-7q0 -82 47.5 -138.5t129.5 -93.5zM1171 -246l32 228q-87 -12 -182 -19.5t-193 -7.5q-198 0 -296 44.5t-98 135.5v10q0 85 86.5 132t272.5 47q132 0 205 -20.5t101.5 -62.5t28.5 -107v-47h255q7 20 11 47.5t4 55.5q0 101 -59.5 179t-189.5 122t-341 44
q-129 0 -231 -18t-177 -53l-54 -25q-109 -45 -162.5 -120.5t-53.5 -173.5v-12q0 -137 84.5 -229t236 -137t355.5 -45q105 0 196.5 8.5t168.5 23.5zM873 1028h645l-19 233h-645zM1298 1101h-320v-201h320v201z" />
    <glyph glyph-name="KaNuktaRa.dv" horiz-adv-x="2145" 
d="M1244 1101h-331v-1101h331v1101zM825 1028h647l-19 233h-647zM-36 1028h2234l-19 233h-2234zM2052 503q0 174 -109.5 285.5t-315.5 111.5q-104 0 -179.5 -26.5t-122.5 -75t-68 -114.5h-31l12 -202q19 74 86 118t184 44q111 0 159.5 -35.5t48.5 -105.5v-7
q0 -69 -51 -104.5t-163 -35.5q-37 0 -69 4t-66 11l19 -240q41 -11 92 -17.5t116 -6.5q228 0 343 103.5t115 285.5v7zM526 146q58 0 104.5 9.5t84.5 26.5l-86 74l-517 -293v-40h411l409 313v236q-4 -4 -17 -11.5t-26.5 -16.5t-20.5 -14q-48 -31 -100.5 -49.5t-124.5 -18.5
q-103 0 -156 36t-53 107v1v1.5v1.5v1q0 69 53 105t167 36q40 0 72.5 -3.5t64.5 -10.5q-1 15 -3.5 46.5t-5.5 68.5t-5 70.5t-4 51.5q-46 13 -97 19.5t-114 6.5q-224 0 -344 -102t-120 -281v-1.5v-2v-2v-1.5q0 -116 55 -197.5t151.5 -124t221.5 -42.5zM769 -409q90 0 138 44.5
t48 117.5v3.5v3.5q0 74 -47.5 119t-138.5 45t-139.5 -44.5t-48.5 -119.5v-3.5v-3.5q0 -73 48.5 -117.5t139.5 -44.5z" />
    <glyph glyph-name="KhaNuktaRa.dv" horiz-adv-x="2134" 
d="M1961 1101h-331v-1101h331v1101zM1541 1028h647l-18 233h-647zM-28 1028h2116l-18 233h-2117zM980 57l236 223q-29 -5 -58 -7t-63 -2q-123 0 -227.5 20t-188.5 62.5t-145 108.5l-39 42l-412 173v-249l148 -18l29 -41q70 -102 172.5 -173.5t239 -107t308.5 -31.5zM858 815
q0 82 -32.5 146.5t-94.5 112.5h-354q73 -38 110 -87.5t37 -116.5v-5q0 -91 -82 -139.5t-271 -48.5h-88l117 -222l106 1q190 3 312 46.5t181 121t59 183.5v8zM1326 355q55 0 101 13t83 32l-75 40l-855 -549v-41l467 1l649 533v255l-58 -34q-34 -21 -65.5 -34t-66.5 -19.5
t-77 -6.5q-87 0 -127.5 23t-40.5 68v2q0 45 38.5 66t123.5 21q33 0 61.5 -2t59.5 -6l-19 203q-46 9 -88 13t-96 4q-189 0 -289 -77.5t-100 -222.5v-4q0 -133 102.5 -205.5t271.5 -72.5zM252 -220q91 0 139 44.5t48 118.5v3v3q0 74 -48 119t-139 45t-139.5 -44.5
t-48.5 -119.5v-3v-3q0 -74 48.5 -118.5t139.5 -44.5z" />
    <glyph glyph-name="GaNuktaRa.dv" horiz-adv-x="1589" 
d="M1416 1101h-331v-1101h331v1101zM997 1028h647l-19 233h-647zM-36 1028h1577l-19 233h-1577zM244 -33h457l475 370v260l-932 -592v-38zM632 1057h-367q91 -46 133 -112t42 -140v-9q0 -91 -58.5 -137t-190.5 -46q-40 0 -73 2.5t-60 7.5l24 -269q41 -10 93.5 -16t109.5 -6
q160 0 270.5 48.5t167 138.5t56.5 216v9q0 94 -37 176.5t-110 136.5zM917 -388q91 0 139 44.5t48 118.5v3.5v3.5q0 74 -48 119t-139 45t-139.5 -44.5t-48.5 -119.5v-3.5v-3.5q0 -74 48.5 -118.5t139.5 -44.5z" />
    <glyph glyph-name="JaNuktaRa.dv" horiz-adv-x="1866" 
d="M1920 1028l-18 233h-1957l19 -233h1956zM650 -137h414l376 312v232l-790 -507v-37zM1419 858h-1155v-237l408 -1l371 -9h376v247zM1373 -89h320v1196h-331v-827l11 -28v-341zM858 679h-594v-58l208 -8q95 -3 147.5 -20.5t73 -46.5t20.5 -69v-4q0 -57 -52 -90t-166 -33
q-115 0 -219 36.5t-198 96.5l16 -281q89 -52 203.5 -80.5t269.5 -28.5q228 0 356.5 78.5t128.5 206.5v5q0 79 -46 135t-148 88v73zM343 -318q90 0 138 44.5t48 118.5v3v3q0 74 -48 119t-138 45q-91 0 -139.5 -44.5t-48.5 -119.5v-3v-3q0 -74 48.5 -118.5t139.5 -44.5z" />
    <glyph glyph-name="PhaNuktaRa.dv" horiz-adv-x="2193" 
d="M1276 1101h-332v-1101h332v1101zM856 1028h647l-19 233h-647zM-36 1028h2283l-19 233h-2283zM603 303q67 0 126 14.5t99 39.5l-103 43l-591 -342v-58h461l427 371l-2 253l-55 -36q-56 -38 -111.5 -58t-134.5 -20q-113 0 -175 52t-62 182v355h-331v-352q0 -161 57 -259
t158.5 -141.5t236.5 -43.5zM1552 643q112 0 162.5 -39.5t50.5 -108.5v-4q0 -74 -50.5 -111.5t-155.5 -37.5q-38 0 -72 5t-64 14l20 -246q41 -11 91.5 -17.5t111.5 -6.5q221 0 338 102t117 293v9q0 179 -113 291t-320 112q-103 0 -179.5 -26.5t-126.5 -74t-76 -109.5h-29
l7 -199q33 70 108 112t180 42zM776 -387q91 0 138.5 44.5t47.5 118.5v3v3q0 75 -47.5 120t-138.5 45t-139.5 -44.5t-48.5 -120.5v-3v-3q0 -74 48.5 -118.5t139.5 -44.5z" />
    <glyph glyph-name="YaNuktaRa.dv" horiz-adv-x="1665" 
d="M1492 1101h-331v-1101h331v1101zM1073 1028h647l-19 233h-647zM-55 1261l18 -233h1756l-19 233h-1755zM723 1082h-348q73 -39 100 -84t27 -95v-4q0 -51 -29.5 -86.5t-99.5 -54t-193 -18.5h-71l99 -205l166 6q245 8 357 84.5t112 211.5v7q0 72 -30 130.5t-90 107.5z
M634 170q72 0 128 8.5t111 28.5l-59 74l-667 -296v-47h505l537 336v240l-82 -43q-51 -27 -104.5 -47t-117.5 -31t-148 -11q-110 0 -181.5 22.5t-105.5 64t-34 99.5v107l-307 65q-6 -41 -8.5 -74t-2.5 -67v-11q0 -139 66.5 -232.5t187.5 -139.5t282 -46zM953 -387
q91 0 139 44.5t48 118.5v3.5v3.5q0 74 -48 119t-139 45t-139.5 -44.5t-48.5 -119.5v-3.5v-3.5q0 -74 48.5 -118.5t139.5 -44.5z" />
    <glyph glyph-name="NgaKa.dv" horiz-adv-x="1857" 
d="M649 -709h264v815h-264v-815zM68 -344q0 -139 84.5 -215t237.5 -76q109 0 167.5 38t78.5 101h26l-7 176q-13 -52 -55.5 -80t-115.5 -28t-108 21t-35 65v4q0 42 34 62.5t103 20.5q52 0 93 -9l-13 193q-36 10 -74.5 15t-83.5 5q-161 0 -246.5 -77t-85.5 -215v-1zM1487 -343
q0 133 -78 212.5t-224 79.5q-108 0 -172 -41.5t-88 -110.5l-24 -1l5 -170q14 57 57.5 86t123.5 29q66 0 98.5 -20.5t32.5 -64.5v-3q0 -42 -31 -63.5t-98 -21.5q-26 0 -50.5 2.5t-48.5 7.5l13 -195q64 -18 149 -18q162 0 248.5 73t86.5 217v2zM1909 1028l-18 233h-1940
l19 -233h1939zM982 1108v-372l313 -40v412h-313zM1660 405q99 0 150 41.5t51 115.5v9q0 74 -50.5 115.5t-150.5 41.5q-99 0 -150.5 -41.5t-51.5 -115.5v-9q0 -74 51.5 -115.5t150.5 -41.5zM97 368l26 -241q114 -48 280 -77.5t362 -29.5q240 0 375.5 37.5t191 105t55.5 156.5
v3q0 87 -46.5 151t-155 99t-294.5 35q-127 0 -220 -11.5t-181 -32.5q-28 7 -43.5 23.5t-15.5 37.5v4q0 26 28 46t104 31.5t218 11.5q135 0 260.5 -6.5t253.5 -21.5v192q-157 22 -300.5 31t-292.5 9q-212 0 -340.5 -33t-185.5 -98t-57 -159v-5q0 -115 89 -180.5t245 -97.5
q87 19 184.5 32t221.5 13q85 0 131.5 -8t65.5 -23.5t19 -35.5v-2q0 -24 -27 -43t-99.5 -29.5t-209.5 -10.5q-177 0 -338.5 35t-303.5 92z" />
    <glyph glyph-name="NgaGa.dv" horiz-adv-x="1857" 
d="M947 -636h276v761h-276v-761zM560 112h-279q71 -42 104.5 -92.5t33.5 -113.5v-5q0 -71 -41 -109.5t-140 -38.5q-28 0 -57.5 3t-49.5 8l20 -224q35 -10 77 -14.5t90 -4.5q191 0 288.5 85t97.5 230v7q0 87 -35 155t-109 114zM1909 1028l-18 233h-1940l19 -233h1939z
M982 1108v-372l313 -40v412h-313zM1660 405q99 0 150 41.5t51 115.5v9q0 74 -50.5 115.5t-150.5 41.5q-99 0 -150.5 -41.5t-51.5 -115.5v-9q0 -74 51.5 -115.5t150.5 -41.5zM97 368l26 -241q114 -48 280 -77.5t362 -29.5q240 0 375.5 37.5t191 105t55.5 156.5v3
q0 87 -46.5 151t-155 99t-294.5 35q-127 0 -220 -11.5t-181 -32.5q-28 7 -43.5 23.5t-15.5 37.5v4q0 26 28 46t104 31.5t218 11.5q135 0 260.5 -6.5t253.5 -21.5v192q-157 22 -300.5 31t-292.5 9q-212 0 -340.5 -33t-185.5 -98t-57 -159v-5q0 -115 89 -180.5t245 -97.5
q87 19 184.5 32t221.5 13q85 0 131.5 -8t65.5 -23.5t19 -35.5v-2q0 -24 -27 -43t-99.5 -29.5t-209.5 -10.5q-177 0 -338.5 35t-303.5 92z" />
    <glyph glyph-name="NgaMa.dv" horiz-adv-x="1857" 
d="M1909 1028l-18 233h-1940l19 -233h1939zM982 1108v-372l313 -40v412h-313zM1660 405q99 0 150 41.5t51 115.5v9q0 74 -50.5 115.5t-150.5 41.5q-99 0 -150.5 -41.5t-51.5 -115.5v-9q0 -74 51.5 -115.5t150.5 -41.5zM97 368l26 -241q114 -48 280 -77.5t362 -29.5
q240 0 375.5 37.5t191 105t55.5 156.5v3q0 87 -46.5 151t-155 99t-294.5 35q-127 0 -220 -11.5t-181 -32.5q-28 7 -43.5 23.5t-15.5 37.5v4q0 26 28 46t104 31.5t218 11.5q135 0 260.5 -6.5t253.5 -21.5v192q-157 22 -300.5 31t-292.5 9q-212 0 -340.5 -33t-185.5 -98
t-57 -159v-5q0 -115 89 -180.5t245 -97.5q87 19 184.5 32t221.5 13q85 0 131.5 -8t65.5 -23.5t19 -35.5v-2q0 -24 -27 -43t-99.5 -29.5t-209.5 -10.5q-177 0 -338.5 35t-303.5 92zM1064 -181h-678v-212h678v212zM971 -659h276v797h-276v-797zM540 139h-273v-453h273v453z
M281 -591h259v401h-259l-129 -86q8 -60 26 -113t44.5 -103t58.5 -99z" />
    <glyph glyph-name="ChaVa.dv" horiz-adv-x="1884" 
d="M1133 1028h645l-19 233h-645zM1558 1101h-320v-201h320v201zM1910 1261h-1980l18 -233h1981zM1234 854h324v253h-324v-253zM1448 110h-289v-705h289v705zM338 -174q0 -157 121.5 -246t324.5 -89q165 0 249.5 52.5t112.5 133.5h29l-8 197q-14 -66 -83.5 -104t-198.5 -38
q-113 0 -170.5 35.5t-57.5 101.5v7q0 49 33 87t108 52l-277 64q-93 -22 -138 -91.5t-45 -153.5v-8zM904 -18q302 0 497.5 71.5t290.5 196.5t95 286v11q0 109 -46 193.5t-144.5 132.5t-256.5 48q-202 0 -307.5 -74t-105.5 -213v-6q0 -127 84 -196.5t230 -69.5q99 0 158.5 34
t83.5 89h25l-3 120q-24 -23 -63.5 -38.5t-95.5 -15.5q-69 0 -102.5 19.5t-33.5 60.5v4q0 38 33 60t100 22q78 0 114.5 -33t36.5 -96v-21l4 -27v-13q0 -86 -63 -152.5t-191.5 -105t-323.5 -38.5q-233 0 -344.5 41t-111.5 114v4q0 39 26 64.5t83 39.5t151 20l79 5v244l-75 6
q-94 6 -151 25.5t-84 52t-27 77.5v5q0 40 20.5 73.5t64.5 56.5h-353q-34 -26 -53.5 -64.5t-19.5 -86.5v-5q0 -97 76 -166.5t264 -89.5v-11q-186 -17 -265 -88t-79 -183v-7q0 -178 197 -277t586 -99z" />
    <glyph glyph-name="TtaTta.dv" horiz-adv-x="1433" 
d="M891 -86l305 -109v499l-305 -1v-389zM1233 -574l24 252q-105 -39 -228 -61t-257 -22q-182 0 -262.5 30.5t-80.5 88.5v2q0 56 77.5 84.5t271.5 28.5q72 0 133.5 -2t129 -7.5t155.5 -14.5v213q-146 19 -262 25.5t-225 6.5q-303 0 -452 -82t-149 -256v-9q0 -172 162.5 -261
t480.5 -89q147 0 266.5 18t215.5 55zM-27 1028h1516l-19 233h-1516zM938 759l314 -120v468h-314v-348zM1285 249l23 258q-102 -41 -232 -64t-285 -23q-136 0 -216 13.5t-114 40t-34 65.5v6q0 41 34 67.5t115 39.5t223 13q77 0 143.5 -2.5t140 -8t169.5 -15.5v220
q-146 19 -275.5 25.5t-245.5 6.5q-323 0 -476.5 -83t-153.5 -259v-10q0 -185 168 -275.5t512 -90.5q152 0 281.5 19t222.5 57z" />
    <glyph glyph-name="TtaTtha.dv" horiz-adv-x="1433" 
d="M815 263v-338l314 -15v353h-314zM1059 26l-192 -197q112 -13 159 -41.5t47 -77.5v-4q0 -62 -81 -91.5t-246 -29.5q-168 0 -247.5 29t-79.5 92v3q0 62 80.5 90t257.5 28q76 0 135 -4.5t114.5 -13.5t122.5 -22v230q-127 19 -224 26t-193 7q-300 0 -454 -81.5t-154 -256.5
v-7q0 -174 164.5 -263.5t476.5 -89.5q328 0 484 88.5t156 264.5v7q0 116 -81.5 196.5t-244.5 117.5zM-27 1028h1516l-19 233h-1516zM938 759l314 -120v468h-314v-348zM1285 249l23 258q-102 -41 -232 -64t-285 -23q-136 0 -216 13.5t-114 40t-34 65.5v6q0 41 34 67.5
t115 39.5t223 13q77 0 143.5 -2.5t140 -8t169.5 -15.5v220q-146 19 -275.5 25.5t-245.5 6.5q-323 0 -476.5 -83t-153.5 -259v-10q0 -185 168 -275.5t512 -90.5q152 0 281.5 19t222.5 57z" />
    <glyph glyph-name="TtaVa.dv" horiz-adv-x="1425" 
d="M-27 1028h1517l-19 233h-1517zM932 696l321 -118v529h-321v-411zM1218 106h-286v-705h286v705zM118 -172q0 -161 117.5 -254.5t322.5 -93.5q157 0 246 54t115 141h29l-10 181q-18 -61 -84 -99.5t-189 -38.5q-116 0 -175.5 37.5t-59.5 103.5v7q0 60 49 97.5t152 42.5
l-158 127q-183 -6 -269 -90t-86 -207v-8zM1284 65l24 268q-101 -46 -229.5 -72t-272.5 -26q-191 0 -276.5 46.5t-85.5 135.5v8q0 90 85 134.5t284 44.5q73 0 138.5 -2.5t137.5 -8.5t164 -16v238q-155 20 -277.5 26.5t-235.5 6.5q-325 0 -482 -104.5t-157 -315.5v-11
q0 -215 170 -325.5t513 -110.5q161 0 280.5 21t219.5 63z" />
    <glyph glyph-name="TthaTtha.dv" horiz-adv-x="1609" 
d="M-46 1261l19 -233h1687l-19 233h-1687zM882 1107v-342l314 -15v357h-314zM1142 863l-195 -197q130 -13 185.5 -42t55.5 -80v-3q0 -65 -95.5 -96t-283.5 -31q-200 0 -291 30t-91 96v3q0 63 89 92.5t280 29.5q126 0 213.5 -10.5t186.5 -30.5v231q-135 23 -238.5 30.5
t-217.5 7.5q-316 0 -477.5 -82.5t-161.5 -260.5v-8q0 -183 182 -275t522 -92q360 0 533 90.5t173 270.5v6q0 125 -94 204.5t-275 116.5zM884 263v-339l314 -14v353h-314zM1139 26l-190 -201q122 -14 174 -41t52 -75v-5q0 -63 -91.5 -92.5t-276.5 -29.5q-192 0 -280.5 28.5
t-88.5 91.5v6q0 60 88 88t277 28q83 0 148 -4.5t123.5 -13.5t123.5 -22v235q-130 17 -233 23.5t-202 6.5q-325 0 -486.5 -81.5t-161.5 -256.5v-7q0 -180 178.5 -269.5t511.5 -89.5q353 0 521.5 89t168.5 267v6q0 122 -88.5 201t-267.5 118z" />
    <glyph glyph-name="DdaDda.dv" horiz-adv-x="1471" 
d="M1526 1028l-19 233h-1556l19 -233h1556zM981 1108v-379l314 -40v419h-314zM460 -45q0 32 30.5 55.5t91.5 30.5l-202 77q-112 -10 -162.5 -62t-50.5 -128v-6q0 -103 84 -165t242 -91q84 19 177 32.5t206 13.5q81 0 125.5 -8.5t62.5 -23.5t18 -35v-2q0 -24 -27.5 -43
t-99 -29t-205.5 -10q-173 0 -330 33.5t-298 92.5l25 -241q113 -47 277 -77t354 -30q237 0 371 38t189.5 105t55.5 156v4q0 86 -46 150t-151 99.5t-284 35.5q-124 0 -214 -12t-178 -33q-27 8 -44 25t-17 43v5zM97 368l26 -241q114 -48 280 -77.5t362 -29.5q240 0 375.5 37.5
t191 105t55.5 156.5v3q0 87 -46.5 151t-155 99t-294.5 35q-127 0 -220 -11.5t-181 -31.5q-28 6 -43.5 22.5t-15.5 37.5v4q0 26 28 46t104 31.5t218 11.5q135 0 260.5 -6.5t253.5 -21.5v192q-157 22 -300.5 31t-292.5 9q-212 0 -340.5 -33t-185.5 -98t-57 -159v-5
q0 -115 89 -180.5t245 -97.5q87 19 184.5 32t221.5 13q85 0 131.5 -8t65.5 -23.5t19 -35.5v-2q0 -24 -27 -43t-99.5 -29.5t-209.5 -10.5q-177 0 -338.5 35t-303.5 92z" />
    <glyph glyph-name="DdaDdha.dv" horiz-adv-x="1471" 
d="M1526 1028l-19 233h-1556l19 -233h1556zM981 1108v-379l314 -40v419h-314zM109 -199v-10q0 -129 82 -225.5t237 -150t376 -53.5q299 0 451 82.5t152 219.5v7q0 122 -102.5 187.5t-317.5 65.5q-199 0 -292 -49.5t-93 -135.5v-4q0 -58 40 -90.5t125 -55.5v-17l191 3
q-44 13 -67.5 32t-23.5 46v4q0 34 31.5 51.5t96.5 17.5q63 0 92 -16t29 -47v-2q0 -41 -61 -61.5t-226 -20.5q-220 0 -313.5 58t-93.5 162v7q0 93 83.5 151.5t256.5 66.5l-156 117q-257 -6 -377 -96.5t-120 -243.5zM97 368l26 -241q114 -48 280 -77.5t362 -29.5
q240 0 375.5 37.5t191 105t55.5 156.5v3q0 87 -46.5 151t-155 99t-294.5 35q-127 0 -220 -11.5t-181 -31.5q-28 6 -43.5 22.5t-15.5 37.5v4q0 26 28 46t104 31.5t218 11.5q135 0 260.5 -6.5t253.5 -21.5v192q-157 22 -300.5 31t-292.5 9q-212 0 -340.5 -33t-185.5 -98
t-57 -159v-5q0 -115 89 -180.5t245 -97.5q87 19 184.5 32t221.5 13q85 0 131.5 -8t65.5 -23.5t19 -35.5v-2q0 -24 -27 -43t-99.5 -29.5t-209.5 -10.5q-177 0 -338.5 35t-303.5 92z" />
    <glyph glyph-name="DdhaDdha.dv" horiz-adv-x="1572" 
d="M-27 1028h1655l-19 233h-1655zM1052 1108v-339l314 -113v452h-314zM101 -202v-10q0 -210 199 -323t559 -113q315 0 469.5 83.5t154.5 219.5v7q0 123 -106.5 187t-329.5 64q-206 0 -302.5 -49t-96.5 -133v-4q0 -58 39 -91t125 -56v-19l191 3q-44 13 -67 33t-23 46v4
q0 34 35.5 51t106.5 17t104 -16t33 -47v-2q0 -40 -66.5 -61t-242.5 -21q-252 0 -356.5 62t-104.5 168v7q0 94 83 152.5t256 66.5l-163 124q-258 -3 -377.5 -99t-119.5 -251zM101 470v-11q0 -221 200 -335.5t559 -114.5q318 0 470.5 83t152.5 219v8q0 124 -107 188.5
t-329 64.5q-206 0 -302.5 -48.5t-96.5 -133.5v-4q0 -59 39 -92.5t125 -56.5v-18l191 3q-44 14 -67 33t-23 46v3q0 34 35.5 52t106.5 18q72 0 105 -16.5t33 -46.5v-2q0 -42 -66 -62t-238 -20q-171 0 -273.5 27t-148 78.5t-45.5 122.5v7q0 110 108.5 165.5t355.5 55.5
q88 0 162.5 -2t150 -8t167.5 -17v208q-144 18 -282.5 27t-278.5 9q-359 0 -531.5 -107t-172.5 -323z" />
    <glyph glyph-name="DaGa.dv" horiz-adv-x="1503" 
d="M-35 1028h1593l-19 233h-1593zM993 734l331 -103v476h-331v-373zM1345 486h-336v-269l31 -25l62 -605h319l-76 645v254zM720 100l-333 -10q80 -34 105.5 -70.5t25.5 -79.5v-4q0 -48 -37 -75.5t-116 -27.5q-30 0 -62 4t-58 11l20 -242q36 -12 86 -17.5t99 -5.5
q181 0 285 72t104 207v5q0 70 -26 127t-93 106zM737 285q-136 0 -214.5 45.5t-78.5 129.5v6q0 92 84.5 137t284.5 45q131 0 251 -5t260 -15v213q-169 22 -307.5 34t-274.5 12q-325 0 -483 -107.5t-158 -312.5v-10q0 -131 70.5 -227.5t199.5 -149t303 -52.5q136 0 230.5 24
t158.5 70l-38 225q-53 -29 -123 -45.5t-165 -16.5zM899 1028h645l-19 233h-645zM1324 1101h-320v-201h320v201z" />
    <glyph glyph-name="DaDa.dv" horiz-adv-x="1452" 
d="M-36 1028h1543l-19 233h-1543zM990 756l316 -83v434h-316v-351zM1336 202h-331v-176l17 -38l48 -328h327l-61 323v219zM664 -173q144 0 247.5 24t158.5 65l-24 193q-52 -16 -127.5 -26.5t-175.5 -10.5q-166 0 -230 31t-64 83v7q0 27 14 47t49 34.5t98 22t161 9.5l398 6
v215l-406 6q-134 2 -200.5 10.5t-88 25t-21.5 43.5v4q0 26 24 42.5t94.5 25t209.5 8.5q96 0 177.5 -2t165 -6t182.5 -11v203q-170 20 -321 28t-288 8q-316 0 -449.5 -63t-133.5 -195v-6q0 -59 28.5 -106t98.5 -78t194 -42v-9q-124 -10 -194.5 -44.5t-100.5 -89t-30 -125.5
v-8q0 -151 145.5 -235t408.5 -84z" />
    <glyph glyph-name="DaDha.dv" horiz-adv-x="2083" 
d="M-36 1028h2173l-19 233h-2173zM1554 734l332 -103v476h-332v-373zM1907 486h-337v-274l29 -24l72 -635h321l-85 658v275zM1299 285q-136 0 -214.5 45.5t-78.5 129.5v6q0 92 84.5 137t284.5 45q130 0 250.5 -5t260.5 -15v213q-170 22 -308.5 34t-273.5 12
q-326 0 -484 -107.5t-158 -312.5v-10q0 -131 71 -227.5t200 -149t303 -52.5q136 0 230.5 24t158.5 70l-39 225q-52 -29 -122.5 -45.5t-164.5 -16.5zM412 627h-318q19 -30 27 -61t8 -69q0 -63 -14.5 -116.5t-14.5 -129.5q0 -191 114.5 -291t317.5 -100q109 0 184.5 31
t116.5 82l9 -5q-9 -23 -14.5 -49.5t-5.5 -56.5q0 -149 115 -233.5t301 -84.5q115 0 197 27.5t131.5 79t66.5 124.5h59l-59 219q-21 -88 -97.5 -139t-212.5 -51q-115 0 -181.5 39.5t-66.5 114.5q0 35 11 62t35 58l-277 151q-47 -64 -102 -95.5t-131 -31.5q-93 0 -141 44.5
t-48 130.5q0 59 12.5 107t12.5 101q0 39 -8 76t-27 66zM1461 1028h644l-19 233h-644zM1886 1101h-321v-201h321v201z" />
    <glyph glyph-name="DaNa.dv" horiz-adv-x="1507" 
d="M-35 1028h1597l-19 233h-1597zM993 734l331 -103v476h-331v-373zM1345 481h-336v-225l20 -28l63 -441h330l-77 428v266zM444 466q0 92 84.5 137t284.5 45q131 0 251 -5t260 -15v213q-169 22 -307.5 34t-274.5 12q-325 0 -483 -106.5t-158 -311.5v-6q0 -126 63.5 -214.5
t176 -135.5t258.5 -47q60 0 98 5.5t70 21.5l-73 63l-475 -188l-89 -137q38 -89 97.5 -152t140.5 -109l232 99l-82 218l-66 -66l621 275l-19 265l-68 -31q-50 -22 -111.5 -38t-150.5 -16q-133 0 -206.5 48t-73.5 135v7zM899 1028h645l-19 233h-645zM1324 1101h-320v-201h320
v201z" />
    <glyph glyph-name="DaBa.dv" horiz-adv-x="1503" 
d="M-35 1028h1593l-19 233h-1593zM413 57l566 -340l85 107l-543 323zM993 734l331 -103v476h-331v-373zM1345 486h-336v-269l34 -25l81 -619h321l-100 659v254zM510 63l-225 118q-88 -41 -131 -108.5t-43 -155.5v-7q0 -167 138 -266.5t385 -99.5q131 0 223.5 25.5t149 75
t80.5 123.5h63l-62 222q-23 -91 -114.5 -152.5t-257.5 -61.5q-148 0 -221 42.5t-73 116.5v6q0 42 22 72.5t66 49.5zM737 285q-136 0 -214.5 45.5t-78.5 129.5v6q0 92 84.5 137t284.5 45q131 0 251 -5t260 -15v213q-169 22 -307.5 34t-274.5 12q-325 0 -483 -107.5
t-158 -312.5v-10q0 -131 70.5 -227.5t199.5 -149t303 -52.5q136 0 230.5 24t158.5 70l-38 225q-53 -29 -123 -45.5t-165 -16.5zM899 1028h645l-19 233h-645zM1324 1101h-320v-201h320v201z" />
    <glyph glyph-name="DaBha.dv" horiz-adv-x="2315" 
d="M-36 1028h2405l-18 233h-2406zM1800 734l331 -103v476h-331v-373zM1895 92l-41 187l-510 -123l-25 42l-756 -156l52 -222zM577 -414l272 60l-93 435l-283 -61l-117 -120q22 -66 54.5 -122t73.5 -103t93 -89zM2153 481h-337v-226l16 -25l59 -455h332l-70 449v257zM493 -93
l285 75l-78 348q-43 190 -158.5 252.5t-326.5 17.5l-166 -35l75 -227l135 25q72 12 104 -10t49 -94zM908 476v-5q0 -114 58.5 -203.5t182 -135.5t317.5 -31l377 81l-17 140q-64 -21 -135 -34t-151 -13q-98 0 -162.5 20.5t-95.5 61t-31 99.5v5q0 92 84.5 139.5t284.5 47.5
q130 0 250.5 -5t260.5 -15v213q-169 22 -308 34t-274 12q-326 0 -483.5 -105.5t-157.5 -305.5zM1705 1028h645l-19 233h-644zM2130 1101h-320v-201h320v201z" />
    <glyph glyph-name="DaMa.dv" horiz-adv-x="1870" 
d="M277 355h404q44 0 57.5 -13.5t13.5 -44.5v-89h308v106q0 81 -27 137.5t-93 86t-183 29.5h-320q-16 12 -24.5 26.5t-8.5 32.5v3q0 44 54 64.5t202 20.5q87 0 169 -4.5t188 -14.5v412h-317v-234l128 26q-84 11 -151 15t-145 4q-241 0 -349 -69t-108 -212v-3
q0 -93 53 -161.5t149 -117.5zM1925 1028l-19 233h-1961l19 -233h1961zM1486 272h-588v-230h588v230zM1366 786h331v321h-331v-321zM747 -100h306v359h-290l-141 -63q5 -56 21.5 -108.5t43 -99.5t60.5 -88zM1697 818h-331v-936h331v936z" />
    <glyph glyph-name="DaYa.dv" horiz-adv-x="1842" 
d="M-36 1028h1933l-19 233h-1933zM1670 1101h-331v-1142h331v1142zM776 788l311 -92v411h-311v-319zM830 216q-149 0 -228.5 9t-109.5 26.5t-30 44.5v4q0 24 18 39t75.5 23t174.5 10l294 4v199l-296 5q-117 2 -176.5 9t-80 21t-20.5 37v1q0 22 20 36.5t77 22t167 7.5
q82 0 166 -4t206 -14v189q-145 20 -266.5 29.5t-239.5 9.5q-250 0 -361.5 -56.5t-111.5 -169.5v-3q0 -90 70.5 -143.5t241.5 -71.5v-10q-174 -14 -238 -69t-64 -147v-3q0 -133 148.5 -208.5t483.5 -75.5q180 0 296.5 26.5t183 81.5t96.5 139h30l-11 203
q-48 -100 -168 -150.5t-347 -50.5z" />
    <glyph glyph-name="DaVa.dv" horiz-adv-x="1503" 
d="M899 1028h645l-19 233h-645zM1324 1101h-320v-201h320v201zM-35 1028h1593l-19 233h-1593zM993 734l331 -103v476h-331v-373zM1345 486h-336v-269l34 -25l77 -619h324l-99 659v254zM558 65l-235 115q-94 -37 -138.5 -106t-44.5 -155v-7q0 -165 135 -260.5t373 -95.5
q129 0 218 26.5t142.5 75.5t75.5 118h63l-69 220q-12 -93 -101 -146t-249 -53q-141 0 -205 39t-64 104v6q0 41 23.5 71.5t75.5 47.5zM737 285q-136 0 -214.5 45.5t-78.5 129.5v6q0 92 84.5 137t284.5 45q130 0 250.5 -5t260.5 -15v213q-169 24 -307.5 35t-274.5 11
q-325 0 -483 -107t-158 -313v-10q0 -132 70.5 -228.5t199.5 -148.5t303 -52q137 0 231 24t158 70l-38 225q-52 -30 -122.5 -46t-165.5 -16z" />
    <glyph glyph-name="KhaNa.dv" horiz-adv-x="2134" 
d="M-28 1028h2216l-18 233h-2217zM1630 826h331v294h-331v-294zM977 60l236 221q-29 -5 -58 -7.5t-63 -2.5q-123 0 -227 20t-187 62.5t-144 108.5l-39 42l-412 173v-249l148 -18l29 -41q72 -103 174 -174t236.5 -105.5t306.5 -29.5zM858 816q0 82 -32.5 146t-94.5 112h-354
q73 -38 110 -87t37 -116v-5q0 -90 -82 -139.5t-271 -49.5h-88l117 -221l106 2q190 2 312 45t181 121t59 184v8zM1325 354q52 0 96 9t84 29l-65 51l-781 -463l-66 -148q53 -80 128 -135.5t163 -87.5l220 149l-125 208l-10 -96l721 486v272l-50 -28q-50 -30 -100.5 -44
t-113.5 -14q-84 0 -124.5 24t-40.5 70v2q0 44 38.5 65.5t123.5 21.5q33 0 61.5 -2t59.5 -6l-19 203q-46 9 -88 13t-96 4q-189 0 -289 -77t-100 -222v-4q0 -134 104.5 -207t268.5 -73zM1961 884h-331v-936h331v936z" />
    <glyph glyph-name="GaNa.dv" horiz-adv-x="1586" 
d="M-36 1028h1677l-20 233h-1676zM1085 823h331v284h-331v-284zM632 1057h-367q91 -46 133 -109t42 -140v-8q0 -90 -62 -135.5t-190 -45.5q-38 0 -70.5 3t-59.5 8l24 -269q42 -11 93.5 -16.5t108.5 -5.5q160 0 270.5 47.5t167.5 136t57 212.5v9q0 99 -37 179t-110 134z
M521 -15l665 259v266l-896 -337l-101 -157q39 -91 100.5 -159.5t141.5 -121.5l243 96l-94 260zM1416 881h-331v-936h331v936z" />
    <glyph glyph-name="GhaNa.dv" horiz-adv-x="1707" 
d="M-40 1028h1802l-20 233h-1801zM1532 1107h-331v-289h331v289zM606 148q91 0 162.5 12t125.5 36l-73 77l-550 -201l-89 -130q38 -91 98.5 -156t143.5 -112l244 102l-84 223l-66 -71l706 282v247l-68 -24q-101 -36 -192.5 -55.5t-210.5 -19.5q-146 0 -216.5 26t-70.5 80v4
q0 36 27 57.5t92.5 32.5t177.5 13l177 5v238l-159 6q-128 4 -195 21.5t-91.5 45.5t-24.5 65v3q0 38 21.5 65t64.5 50h-354q-37 -24 -56 -59t-19 -79v-5q0 -61 33 -108.5t107.5 -78.5t200.5 -43v-9q-126 -8 -202 -41.5t-110 -86t-34 -120.5v-7q0 -94 62 -157.5t171.5 -95.5
t250.5 -32zM1532 873h-331v-936h331v936z" />
    </font>
</defs>
</svg>
