<svg width="20" height="20" viewBox="0 0 20 20" fill="none" xmlns="http://www.w3.org/2000/svg">
<g clip-path="url(#clip0_212_3183)">
<path d="M7.91667 2.08333C7.91667 0.9325 8.84917 0 10 0C11.1508 0 12.0833 0.9325 12.0833 2.08333C12.0833 3.23417 11.1508 4.16667 10 4.16667C8.84917 4.16667 7.91667 3.23417 7.91667 2.08333ZM5.83333 10V8.33333C5.83333 6.495 7.32833 5 9.16667 5H10.8333C12.6717 5 14.1667 6.495 14.1667 8.33333V10C14.1667 11.0867 13.47 12.0133 12.5 12.3575V15.8333C12.5 16.2933 12.1275 16.6667 11.6667 16.6667C11.2058 16.6667 10.8333 16.2933 10.8333 15.8333V12.5H9.16667V15.8333C9.16667 16.2933 8.79417 16.6667 8.33333 16.6667C7.8725 16.6667 7.5 16.2933 7.5 15.8333V12.3575C6.53 12.0133 5.83333 11.0867 5.83333 10ZM15.1692 12.9892C14.9225 12.9383 14.6683 13.0008 14.4742 13.1592C14.28 13.3167 14.1667 13.555 14.1667 13.805V15.7817C14.1667 17.0842 13.1683 18.1892 11.8692 18.2742C11.285 18.3125 10.6617 18.3333 10 18.3333C9.33833 18.3333 8.715 18.3125 8.13083 18.2742C6.83083 18.1892 5.83333 17.085 5.83333 15.7817V13.805C5.83333 13.5542 5.72 13.3167 5.52583 13.1592C5.3325 13.0008 5.07583 12.9383 4.83083 12.9892C1.71583 13.635 0 14.7933 0 16.25C0 18.8267 5.18417 20 10 20C14.8158 20 20 18.8267 20 16.25C20 14.7933 18.2842 13.635 15.1692 12.9892Z" fill="#B0B3B7"/>
</g>
<defs>
<clipPath id="clip0_212_3183">
<rect width="20" height="20" fill="white"/>
</clipPath>
</defs>
</svg>
