<svg width="20" height="20" viewBox="0 0 20 20" fill="none" xmlns="http://www.w3.org/2000/svg">
<g clip-path="url(#clip0_212_3185)">
<path d="M13.3333 1.66667H13.1908C12.8467 0.696667 11.92 0 10.8333 0H9.16667C8.08 0 7.15333 0.696667 6.80917 1.66667H6.66667C4.36917 1.66667 2.5 3.53583 2.5 5.83333V15.8333C2.5 18.1308 4.36917 20 6.66667 20H13.3333C15.6308 20 17.5 18.1308 17.5 15.8333V5.83333C17.5 3.53583 15.6308 1.66667 13.3333 1.66667ZM5.83333 15C5.37333 15 5 14.6267 5 14.1667C5 13.7067 5.37333 13.3333 5.83333 13.3333C6.29333 13.3333 6.66667 13.7067 6.66667 14.1667C6.66667 14.6267 6.29333 15 5.83333 15ZM14.1667 15H9.16667C8.70667 15 8.33333 14.6267 8.33333 14.1667C8.33333 13.7067 8.70667 13.3333 9.16667 13.3333H14.1667C14.6267 13.3333 15 13.7067 15 14.1667C15 14.6267 14.6267 15 14.1667 15ZM5.83333 11.6667C5.37333 11.6667 5 11.2933 5 10.8333C5 10.3733 5.37333 10 5.83333 10C6.29333 10 6.66667 10.3733 6.66667 10.8333C6.66667 11.2933 6.29333 11.6667 5.83333 11.6667ZM14.1667 11.6667H9.16667C8.70667 11.6667 8.33333 11.2933 8.33333 10.8333C8.33333 10.3733 8.70667 10 9.16667 10H14.1667C14.6267 10 15 10.3733 15 10.8333C15 11.2933 14.6267 11.6667 14.1667 11.6667ZM5.83333 8.33333C5.37333 8.33333 5 7.96 5 7.5C5 7.04 5.37333 6.66667 5.83333 6.66667C6.29333 6.66667 6.66667 7.04 6.66667 7.5C6.66667 7.96 6.29333 8.33333 5.83333 8.33333ZM14.1667 8.33333H9.16667C8.70667 8.33333 8.33333 7.96 8.33333 7.5C8.33333 7.04 8.70667 6.66667 9.16667 6.66667H14.1667C14.6267 6.66667 15 7.04 15 7.5C15 7.96 14.6267 8.33333 14.1667 8.33333Z" fill="#B0B3B7"/>
</g>
<defs>
<clipPath id="clip0_212_3185">
<rect width="20" height="20" fill="white"/>
</clipPath>
</defs>
</svg>
