<svg width="21" height="20" viewBox="0 0 21 20" fill="none" xmlns="http://www.w3.org/2000/svg">
<path d="M9.92416 2.72727V6.36364C9.92416 7.08695 9.63682 7.78065 9.12536 8.29211C8.6139 8.80357 7.92021 9.09091 7.19689 9.09091H3.56052C2.83721 9.09091 2.14351 8.80357 1.63205 8.29211C1.12059 7.78065 0.833252 7.08695 0.833252 6.36364V2.72727C0.833252 2.00396 1.12059 1.31026 1.63205 0.7988C2.14351 0.287337 2.83721 0 3.56052 0H7.19689C7.92021 0 8.6139 0.287337 9.12536 0.7988C9.63682 1.31026 9.92416 2.00396 9.92416 2.72727ZM18.106 0H14.4696C13.7463 0 13.0526 0.287337 12.5411 0.7988C12.0297 1.31026 11.7423 2.00396 11.7423 2.72727V6.36364C11.7423 7.08695 12.0297 7.78065 12.5411 8.29211C13.0526 8.80357 13.7463 9.09091 14.4696 9.09091H18.106C18.8293 9.09091 19.523 8.80357 20.0345 8.29211C20.5459 7.78065 20.8333 7.08695 20.8333 6.36364V2.72727C20.8333 2.00396 20.5459 1.31026 20.0345 0.7988C19.523 0.287337 18.8293 0 18.106 0ZM7.19689 10.9091H3.56052C2.83721 10.9091 2.14351 11.1964 1.63205 11.7079C1.12059 12.2194 0.833252 12.913 0.833252 13.6364V17.2727C0.833252 17.996 1.12059 18.6897 1.63205 19.2012C2.14351 19.7127 2.83721 20 3.56052 20H7.19689C7.92021 20 8.6139 19.7127 9.12536 19.2012C9.63682 18.6897 9.92416 17.996 9.92416 17.2727V13.6364C9.92416 12.913 9.63682 12.2194 9.12536 11.7079C8.6139 11.1964 7.92021 10.9091 7.19689 10.9091ZM18.106 10.9091H14.4696C13.7463 10.9091 13.0526 11.1964 12.5411 11.7079C12.0297 12.2194 11.7423 12.913 11.7423 13.6364V17.2727C11.7423 17.996 12.0297 18.6897 12.5411 19.2012C13.0526 19.7127 13.7463 20 14.4696 20H18.106C18.8293 20 19.523 19.7127 20.0345 19.2012C20.5459 18.6897 20.8333 17.996 20.8333 17.2727V13.6364C20.8333 12.913 20.5459 12.2194 20.0345 11.7079C19.523 11.1964 18.8293 10.9091 18.106 10.9091Z" fill="#B0B3B7"/>
</svg>
