<svg width="20" height="20" viewBox="0 0 20 20" fill="none" xmlns="http://www.w3.org/2000/svg">
<g clip-path="url(#clip0_212_3173)">
<path d="M17.5 5.83325C17.9583 5.83325 18.3333 5.45825 18.3333 4.99992C18.3333 2.69992 16.4667 0.833252 14.1667 0.833252H4.16667C1.86667 0.833252 0 2.69992 0 4.99992V10.8333C0 13.1333 1.86667 14.9999 4.16667 14.9999H8.33333V16.6666H5.83333C5.375 16.6666 5 17.0416 5 17.4999C5 17.9583 5.375 18.3333 5.83333 18.3333H9.16667C9.625 18.3333 10 17.9583 10 17.4999V10.8333C10 8.07492 12.2417 5.83325 15 5.83325H17.5ZM16.6667 7.49992H15C13.1583 7.49992 11.6667 8.99159 11.6667 10.8333V16.6666C11.6667 18.5083 13.1583 19.9999 15 19.9999H16.6667C18.5083 19.9999 20 18.5083 20 16.6666V10.8333C20 8.99159 18.5083 7.49992 16.6667 7.49992Z" fill="#B0B3B7"/>
</g>
<defs>
<clipPath id="clip0_212_3173">
<rect width="20" height="20" fill="white"/>
</clipPath>
</defs>
</svg>
