<svg width="20" height="20" viewBox="0 0 20 20" fill="none" xmlns="http://www.w3.org/2000/svg">
<g clip-path="url(#clip0_212_3177)">
<path d="M11.6667 5.83333V0.383333C12.4276 0.671667 13.1276 1.11583 13.7209 1.70833L16.6242 4.61333C17.2176 5.20583 17.6617 5.90583 17.9501 6.66667H12.5001C12.0401 6.66667 11.6667 6.2925 11.6667 5.83333ZM12.9167 12.5H7.08341C6.85341 12.5 6.66675 12.6867 6.66675 12.9167V14.5833C6.66675 14.8133 6.85341 15 7.08341 15H12.9167C13.1467 15 13.3334 14.8133 13.3334 14.5833V12.9167C13.3334 12.6867 13.1467 12.5 12.9167 12.5ZM18.3334 8.7375V15.8333C18.3334 18.1308 16.4642 20 14.1667 20H5.83341C3.53591 20 1.66675 18.1308 1.66675 15.8333V4.16667C1.66675 1.86917 3.53591 0 5.83341 0H9.59592C9.73175 0 9.86592 0.0108333 10.0001 0.02V5.83333C10.0001 7.21167 11.1217 8.33333 12.5001 8.33333H18.3134C18.3226 8.4675 18.3334 8.60167 18.3334 8.7375ZM5.00008 5C5.00008 5.46 5.37341 5.83333 5.83341 5.83333H7.50008C7.96008 5.83333 8.33342 5.46 8.33342 5C8.33342 4.54 7.96008 4.16667 7.50008 4.16667H5.83341C5.37341 4.16667 5.00008 4.54 5.00008 5ZM5.00008 8.33333C5.00008 8.79333 5.37341 9.16667 5.83341 9.16667H7.50008C7.96008 9.16667 8.33342 8.79333 8.33342 8.33333C8.33342 7.87333 7.96008 7.5 7.50008 7.5H5.83341C5.37341 7.5 5.00008 7.87333 5.00008 8.33333ZM15.0001 12.9167C15.0001 11.7683 14.0651 10.8333 12.9167 10.8333H7.08341C5.93508 10.8333 5.00008 11.7683 5.00008 12.9167V14.5833C5.00008 15.7317 5.93508 16.6667 7.08341 16.6667H12.9167C14.0651 16.6667 15.0001 15.7317 15.0001 14.5833V12.9167Z" fill="#B0B3B7"/>
</g>
<defs>
<clipPath id="clip0_212_3177">
<rect width="20" height="20" fill="white"/>
</clipPath>
</defs>
</svg>
