<svg width="20" height="20" viewBox="0 0 20 20" fill="none" xmlns="http://www.w3.org/2000/svg">
<g clip-path="url(#clip0_212_3194)">
<path d="M14.0425 11.02C13.8466 11.0039 13.6524 11.0661 13.5023 11.193C13.3523 11.3199 13.2587 11.5011 13.2421 11.697C13.1765 12.4712 13.0952 13.1446 13.0241 13.4985V13.5028C12.8144 14.5848 11.7894 15.6544 10.7382 15.8895C10.6472 15.9083 10.5558 15.9263 10.4648 15.9434C10.5429 14.9384 10.6011 13.6532 10.5933 12.6622C10.605 11.1481 10.4601 8.81688 10.3316 7.88915C10.1007 6.18094 9.05031 4.28641 7.8882 3.48133L7.88117 3.47665C7.07316 2.93079 6.20721 2.47606 5.29914 2.12079C5.13716 2.05803 4.97713 1.99943 4.81906 1.945C5.68109 1.81173 6.55226 1.74642 7.42453 1.74969C8.61203 1.74969 9.69601 1.85789 10.7382 2.0743C11.7894 2.30868 12.8144 3.37899 13.0241 4.46102V4.46532C13.0948 4.81688 13.1761 5.49032 13.2417 6.26219C13.2584 6.45836 13.3523 6.63987 13.5028 6.76678C13.6533 6.8937 13.8481 6.95563 14.0443 6.93895C14.2404 6.92227 14.4219 6.82835 14.5488 6.67784C14.6758 6.52734 14.7377 6.33258 14.721 6.13641C14.6499 5.30086 14.5624 4.58641 14.4804 4.17547C14.1566 2.51102 12.6835 0.984067 11.0538 0.623129L11.0444 0.621176C9.89913 0.383676 8.71554 0.26727 7.42179 0.264926C6.12804 0.262583 4.94913 0.382114 3.80382 0.621567L3.79406 0.62352C3.06671 0.784848 2.37101 1.1786 1.79445 1.71258C1.63862 1.83008 1.50243 1.97155 1.39093 2.13172C0.881557 2.72625 0.511635 3.43758 0.367885 4.17547C0.187807 5.07821 -0.0157088 7.41922 -8.37607e-05 8.98172C-0.00867751 9.82 0.0456194 10.8825 0.126088 11.8266C0.169057 12.4321 0.217885 12.9595 0.26476 13.2977C0.495619 15.0059 1.54601 16.9005 2.70851 17.7056L2.71515 17.7102C3.52334 18.256 4.38942 18.7107 5.29757 19.0661C6.2171 19.4231 7.06085 19.6395 7.87765 19.7278H7.88468C8.98234 19.8259 9.97999 18.8731 10.2819 17.4802C10.5374 17.4395 10.7907 17.3933 11.0417 17.3415L11.0511 17.3395C12.6812 16.9786 14.1538 15.4516 14.4777 13.7872C14.5597 13.3755 14.6476 12.6595 14.7187 11.822C14.7352 11.626 14.6733 11.4314 14.5465 11.2811C14.4197 11.1307 14.2385 11.0368 14.0425 11.02Z" fill="#B0B3B7"/>
<path d="M20.0034 8.98056C20.0034 8.95595 20.0034 8.93134 19.9995 8.90673C19.9997 8.90517 19.9997 8.9036 19.9995 8.90204C19.9972 8.87896 19.9937 8.85601 19.989 8.83329V8.82821C19.9597 8.68715 19.8897 8.55775 19.7878 8.45595L17.1315 5.79735C16.9924 5.65811 16.8036 5.57987 16.6067 5.57983C16.4098 5.5798 16.221 5.65797 16.0817 5.79716C15.9425 5.93634 15.8643 6.12514 15.8642 6.32202C15.8642 6.5189 15.9424 6.70772 16.0815 6.84696L17.4749 8.23993H12.3511C12.1542 8.23993 11.9655 8.31813 11.8263 8.45731C11.6871 8.5965 11.6089 8.78528 11.6089 8.98212C11.6089 9.17896 11.6871 9.36774 11.8263 9.50692C11.9655 9.64611 12.1542 9.72431 12.3511 9.72431H17.4683L16.0761 11.1165C15.9374 11.2558 15.8596 11.4444 15.8598 11.641C15.86 11.8376 15.9382 12.026 16.0772 12.165C16.2162 12.304 16.4046 12.3822 16.6012 12.3824C16.7978 12.3826 16.9864 12.3048 17.1257 12.1661L19.7698 9.52196C19.8657 9.43215 19.9359 9.31832 19.9729 9.19228C19.9797 9.1698 19.9851 9.14698 19.9894 9.12392C19.9895 9.12066 19.9895 9.1174 19.9894 9.11415C19.9929 9.09423 19.9964 9.07509 19.9983 9.05399C20.0003 9.0329 19.9983 9.02352 19.9983 9.00868C19.9983 9.00009 19.9983 8.99149 19.9983 8.9829L20.0034 8.98056Z" fill="#B0B3B7"/>
</g>
<defs>
<clipPath id="clip0_212_3194">
<rect width="20" height="20" fill="white"/>
</clipPath>
</defs>
</svg>
