<svg width="20" height="20" viewBox="0 0 20 20" fill="none" xmlns="http://www.w3.org/2000/svg">
<g clip-path="url(#clip0_212_3181)">
<path d="M1.66675 5.83333V15.8333C1.66675 18.1308 3.53591 20 5.83341 20H14.1667C16.4642 20 18.3334 18.1308 18.3334 15.8333V5.83333H1.66675ZM10.0001 15H6.66675C6.20675 15 5.83341 14.6275 5.83341 14.1667C5.83341 13.7058 6.20675 13.3333 6.66675 13.3333H10.0001C10.4601 13.3333 10.8334 13.7058 10.8334 14.1667C10.8334 14.6275 10.4601 15 10.0001 15ZM13.3334 10.8333H6.66675C6.20675 10.8333 5.83341 10.4608 5.83341 10C5.83341 9.53917 6.20675 9.16667 6.66675 9.16667H13.3334C13.7934 9.16667 14.1667 9.53917 14.1667 10C14.1667 10.4608 13.7934 10.8333 13.3334 10.8333ZM18.3334 4.16667H1.66675C1.66675 1.86917 3.53591 0 5.83341 0H14.1667C16.4642 0 18.3334 1.86917 18.3334 4.16667Z" fill="#B0B3B7"/>
</g>
<defs>
<clipPath id="clip0_212_3181">
<rect width="20" height="20" fill="white"/>
</clipPath>
</defs>
</svg>
