<svg width="20" height="20" viewBox="0 0 20 20" fill="none" xmlns="http://www.w3.org/2000/svg">
<path d="M3 4.21055C3 1.88512 4.79086 0 7 0C9.20917 0 11 1.88512 11 4.21055C11 6.53597 9.20917 8.42109 7 8.42109C4.79086 8.42109 3 6.53597 3 4.21055Z" fill="#B0B3B7"/>
<path d="M11 0.428779C11.9611 1.39475 12.556 2.73242 12.556 4.21055C12.556 5.68867 11.9611 7.02633 11 7.99229C11.5533 8.26693 12.1758 8.42109 12.8338 8.42109C15.1348 8.42109 17 6.53597 17 4.21055C17 1.88512 15.1348 0 12.8338 0C12.1758 0 11.5533 0.154196 11 0.428779Z" fill="#B0B3B7"/>
<path d="M0 15.2151C0 12.5726 1.81506 10.4304 4.05407 10.4304H10.5406C12.7796 10.4304 14.5946 12.5726 14.5946 15.2151C14.5946 17.8577 12.7796 19.9998 10.5406 19.9998H4.05407C1.81506 19.9998 0 17.8577 0 15.2151Z" fill="#B0B3B7"/>
<path d="M15.8857 15.4737C15.8857 16.7683 15.5518 17.967 14.9841 18.9474H16.1429C18.2731 18.9474 20 16.8266 20 14.2105C20 11.5944 18.2731 9.47363 16.1429 9.47363H11C13.6984 9.47363 15.8857 12.1599 15.8857 15.4737Z" fill="#B0B3B7"/>
</svg>
